<svg aria-hidden="true" style="position: absolute; width: 0; height: 0; overflow: hidden;" version="1.1" xmlns="http://www.w3.org/2000/svg" xmlns:xlink="http://www.w3.org/1999/xlink">
<defs>
<symbol id="icon-logo-motif" viewBox="0 0 57 32">
<path fill="#ffecde" style="fill: var(--color1, #ffecde)" d="M42.815 32.030c-14.272 0-28.528 0-42.785 0 0-10.667 0-21.333 0-32 18.963 0 37.926 0 56.889 0 0 10.667 0 21.333 0 32-4.696 0-9.393 0-14.104 0zM29.35 11.228c-0.014-0.019-0.030-0.056-0.042-0.055-0.090 0.009-0.18 0.036-0.27 0.038-0.157 0.004-0.22 0.088-0.273 0.229-0.084 0.224-0.204 0.435-0.313 0.662-0.019-0.021-0.030-0.029-0.036-0.041-0.119-0.254-0.237-0.508-0.357-0.762-0.011-0.024-0.029-0.061-0.049-0.064-0.159-0.025-0.32-0.044-0.488-0.066 0.008 0.040 0.008 0.066 0.017 0.087 0.149 0.319 0.296 0.639 0.452 0.954 0.046 0.091 0.034 0.144-0.039 0.211-0.36 0.329-0.647 0.715-0.869 1.148-0.336 0.655-0.496 1.355-0.507 2.102-0.059-0.032-0.111-0.062-0.164-0.091-0.72-0.392-1.49-0.579-2.31-0.561-0.103 0.002-0.142 0.049-0.158 0.13-0.017 0.085-0.027 0.172-0.031 0.259-0.029 0.653 0.044 1.292 0.286 1.905 0.060 0.152 0.050 0.155-0.124 0.17-0.289 0.025-0.577 0.059-0.874 0.090 0.064 0.091 0.105 0.182 0.173 0.238 0.077 0.064 0.104 0.19 0.272 0.154 0.264-0.056 0.541-0.054 0.84-0.079-0.191 0.289-0.367 0.557-0.533 0.808 0.033 0.088 0.060 0.163 0.089 0.238 0.088 0.222 0.093 0.226 0.232 0.041 0.159-0.212 0.308-0.432 0.454-0.638 0.791 1.11 1.887 1.73 3.247 1.92-0.126 0.278-0.25 0.551-0.381 0.842 0.196-0.027 0.357-0.049 0.519-0.071 0.115-0.247 0.232-0.497 0.351-0.752 0.097-0.035 0.149 0.015 0.191 0.109 0.097 0.221 0.203 0.438 0.302 0.651 0.174 0.019 0.333 0.037 0.517 0.057-0.146-0.319-0.273-0.596-0.398-0.867 0.083-0.017 0.148-0.033 0.214-0.045 0.895-0.16 1.659-0.583 2.298-1.214 0.271-0.268 0.477-0.602 0.706-0.911 0.044-0.059 0.071-0.111 0.126-0.023 0.128 0.204 0.25 0.412 0.377 0.617 0.030 0.049 0.069 0.092 0.109 0.144 0.077-0.167 0.144-0.311 0.212-0.459-0.163-0.262-0.33-0.532-0.519-0.835 0.306 0.043 0.581 0.083 0.857 0.119 0.045 0.006 0.11 0.019 0.135-0.005 0.098-0.092 0.186-0.194 0.27-0.299 0.011-0.014-0.018-0.090-0.036-0.094-0.148-0.027-0.298-0.043-0.447-0.064-0.214-0.030-0.428-0.061-0.648-0.092 0.132-0.465 0.206-0.912 0.187-1.37-0.008-0.19-0.014-0.381-0.034-0.57-0.004-0.037-0.067-0.097-0.103-0.097-0.195-0-0.393-0.001-0.585 0.028-0.501 0.077-0.987 0.21-1.437 0.454-0.198 0.108-0.392 0.224-0.561 0.321-0.051-0.395-0.076-0.803-0.16-1.199-0.165-0.783-0.528-1.471-1.087-2.050-0.157-0.163-0.157-0.183-0.058-0.391 0.15-0.313 0.294-0.629 0.457-0.962zM29.734 4.297c-0.29-0.639-0.741-1.15-1.274-1.594-0.025-0.021-0.105-0.014-0.13 0.010-0.254 0.245-0.53 0.474-0.743 0.752-0.239 0.312-0.454 0.654-0.615 1.012-0.253 0.564-0.368 1.168-0.367 1.802-0.060-0.033-0.112-0.063-0.166-0.092-0.731-0.394-1.509-0.584-2.341-0.559-0.080 0.002-0.117 0.031-0.127 0.101-0.014 0.091-0.029 0.182-0.030 0.274-0.003 0.414 0.001 0.825 0.083 1.237 0.178 0.896 0.59 1.667 1.225 2.31 0.261 0.264 0.575 0.483 0.889 0.686 0.614 0.399 1.304 0.583 2.029 0.637 0.454 0.034 0.908-0.011 1.345-0.123 0.856-0.218 1.601-0.637 2.205-1.295 0.397-0.432 0.705-0.914 0.924-1.459 0.293-0.731 0.36-1.487 0.275-2.263-0.007-0.067-0.037-0.115-0.123-0.105-0.283 0.033-0.569 0.049-0.85 0.093-0.509 0.080-0.978 0.276-1.419 0.54-0.108 0.064-0.215 0.128-0.331 0.198 0.009-0.76-0.127-1.471-0.46-2.162zM31.628 22.606c-0.028-0.018-0.060-0.032-0.083-0.056-0.347-0.348-0.766-0.588-1.208-0.789-0.498-0.226-1.026-0.346-1.569-0.364-0.315-0.010-0.632 0.027-0.947 0.055-0.476 0.043-0.923 0.204-1.34 0.422-0.501 0.261-0.966 0.585-1.317 1.040-0.213 0.276-0.421 0.559-0.596 0.859-0.294 0.504-0.473 1.054-0.504 1.641-0.019 0.364-0.005 0.73-0 1.096 0.001 0.069 0.048 0.104 0.128 0.098 0.209-0.015 0.42-0.021 0.629-0.031 0.426-0.021 0.828-0.141 1.219-0.298 0.223-0.090 0.437-0.203 0.639-0.298 0.025 0.223 0.052 0.453 0.077 0.684 0.047 0.436 0.172 0.853 0.373 1.238 0.173 0.333 0.371 0.659 0.602 0.954 0.196 0.249 0.453 0.451 0.689 0.667 0.026 0.024 0.114 0.024 0.14-0 0.244-0.233 0.491-0.465 0.717-0.716 0.34-0.377 0.564-0.825 0.738-1.298 0.203-0.554 0.273-1.13 0.269-1.729 0.040 0.022 0.071 0.041 0.104 0.058 0.347 0.177 0.681 0.391 1.045 0.52 0.361 0.128 0.752 0.177 1.132 0.245 0.128 0.023 0.278 0.031 0.392-0.016 0.055-0.023 0.051-0.189 0.074-0.29 0.003-0.014 0.006-0.029 0.007-0.043 0.011-0.444 0.005-0.887-0.096-1.323-0.209-0.895-0.648-1.662-1.313-2.325zM38.915 18.903c0.625-0.387 1.12-0.902 1.499-1.529 0.017-0.029 0.012-0.098-0.011-0.12-0.091-0.088-0.186-0.176-0.292-0.244-0.221-0.142-0.444-0.285-0.679-0.401-0.223-0.111-0.458-0.2-0.694-0.28-0.346-0.116-0.705-0.162-1.070-0.185-0.453-0.028-0.895 0.020-1.334 0.123-0.559 0.131-1.079 0.364-1.538 0.701-0.433 0.317-0.807 0.704-1.109 1.157-0.219 0.328-0.396 0.679-0.524 1.047-0.123 0.355-0.191 0.727-0.224 1.109-0.051 0.587 0.024 1.156 0.193 1.708 0.166 0.54 0.425 1.046 0.797 1.477 0.241 0.279 0.507 0.544 0.794 0.774 0.24 0.192 0.527 0.327 0.798 0.478 0.033 0.018 0.13-0.007 0.146-0.039 0.147-0.284 0.301-0.567 0.415-0.865 0.105-0.278 0.183-0.57 0.236-0.862s0.060-0.593 0.086-0.878c0.235 0.123 0.485 0.255 0.737 0.386 0.473 0.245 0.985 0.366 1.509 0.41 0.628 0.053 1.248-0.034 1.849-0.234 0.027-0.009 0.062-0.057 0.059-0.083-0.042-0.398-0.106-0.793-0.267-1.161-0.141-0.321-0.296-0.638-0.474-0.939-0.199-0.337-0.463-0.627-0.765-0.879-0.176-0.147-0.354-0.293-0.537-0.444 0.126-0.075 0.251-0.149 0.399-0.226zM21.058 14.668c0.316-0.109 0.607-0.263 0.892-0.44 0.395-0.246 0.737-0.55 1.025-0.904 0.283-0.348 0.508-0.737 0.682-1.159 0.181-0.438 0.294-0.89 0.335-1.354 0.050-0.569-0.021-1.134-0.198-1.682-0.126-0.391-0.283-0.768-0.526-1.102-0.141-0.194-0.289-0.384-0.445-0.566-0.152-0.176-0.302-0.361-0.484-0.504-0.235-0.184-0.501-0.328-0.752-0.492-0.082-0.054-0.148-0.040-0.194 0.043-0.131 0.234-0.278 0.462-0.381 0.709-0.126 0.302-0.235 0.616-0.311 0.934-0.072 0.304-0.091 0.621-0.131 0.915-0.147-0.085-0.303-0.183-0.466-0.267-0.276-0.142-0.548-0.294-0.836-0.405-0.393-0.152-0.811-0.22-1.232-0.243-0.485-0.026-0.963 0.027-1.43 0.168-0.153 0.046-0.195 0.109-0.154 0.268 0.006 0.023 0.014 0.045 0.019 0.068 0.078 0.359 0.136 0.723 0.237 1.075 0.12 0.415 0.341 0.789 0.602 1.13 0.198 0.259 0.433 0.491 0.661 0.725 0.12 0.124 0.261 0.228 0.396 0.345-0.397 0.146-0.735 0.37-1.053 0.628-0.366 0.296-0.676 0.642-0.934 1.034-0.021 0.031-0.024 0.101-0.003 0.128 0.057 0.074 0.125 0.142 0.199 0.198 0.141 0.106 0.282 0.215 0.436 0.3 0.259 0.144 0.526 0.275 0.794 0.402 0.448 0.213 0.931 0.297 1.419 0.335 0.278 0.021 0.565 0.009 0.84-0.036 0.328-0.053 0.647-0.158 0.99-0.253zM36.675 8.702c-0.023-0.185-0.025-0.375-0.072-0.554-0.076-0.286-0.191-0.561-0.271-0.845-0.079-0.279-0.223-0.521-0.382-0.756-0.020-0.030-0.086-0.054-0.121-0.045-0.088 0.023-0.179 0.054-0.255 0.103-0.291 0.185-0.586 0.365-0.861 0.571-0.312 0.234-0.58 0.521-0.792 0.85-0.178 0.275-0.359 0.555-0.489 0.854-0.13 0.298-0.215 0.619-0.289 0.937-0.059 0.251-0.097 0.514-0.097 0.771-0 0.292 0.046 0.585 0.083 0.876 0.055 0.427 0.196 0.833 0.391 1.21 0.173 0.334 0.381 0.66 0.63 0.94 0.259 0.293 0.569 0.547 0.884 0.782 0.347 0.259 0.742 0.43 1.164 0.555 0.43 0.127 0.858 0.214 1.304 0.22 0.115 0.002 0.233 0.006 0.346-0.010 0.28-0.039 0.564-0.073 0.838-0.141 0.282-0.070 0.57-0.146 0.826-0.277 0.331-0.169 0.632-0.395 0.948-0.598-0.248-0.452-0.557-0.811-0.913-1.138-0.357-0.327-0.771-0.561-1.193-0.782 1.349-0.789 2.159-1.936 2.363-3.48-0.672-0.28-1.363-0.378-2.071-0.325-0.694 0.052-1.342 0.27-1.95 0.623-0.012-0.114-0.023-0.218-0.019-0.339zM17.575 16.78c-0.315 0.205-0.63 0.409-0.942 0.612 0.471 0.843 1.089 1.48 1.91 1.912-1.241 0.802-2 1.912-2.18 3.407 1.479 0.562 2.868 0.38 4.206-0.433-0.014 0.087-0.038 0.154-0.033 0.218 0.025 0.362 0.021 0.73 0.096 1.082 0.103 0.485 0.27 0.956 0.549 1.375 0.022 0.032 0.104 0.056 0.14 0.041 0.13-0.053 0.259-0.115 0.377-0.192 0.281-0.183 0.575-0.353 0.828-0.571 0.368-0.317 0.675-0.695 0.92-1.118 0.202-0.349 0.364-0.718 0.461-1.109 0.061-0.245 0.104-0.5 0.118-0.752 0.020-0.346 0.036-0.698-0.003-1.041-0.057-0.496-0.215-0.976-0.449-1.415-0.176-0.331-0.397-0.644-0.636-0.934-0.3-0.363-0.671-0.658-1.076-0.898-0.348-0.206-0.721-0.361-1.114-0.464-0.409-0.107-0.824-0.153-1.248-0.151-0.5 0.002-0.982 0.088-1.451 0.254-0.151 0.053-0.3 0.11-0.472 0.174zM32.644 14.044c0.209-0.020 0.419-0.039 0.628-0.059 0.199-0.020 0.398-0.041 0.62-0.065-0.059-0.086-0.098-0.152-0.145-0.211-0.104-0.13-0.203-0.262-0.409-0.175-0.078 0.033-0.174 0.026-0.263 0.033-0.15 0.011-0.3 0.019-0.48 0.030 0.114-0.163 0.221-0.298 0.307-0.445 0.098-0.165 0.313-0.294 0.184-0.54-0.050-0.095-0.088-0.195-0.134-0.299-0.025 0.022-0.039 0.029-0.047 0.041-0.277 0.404-0.556 0.806-0.825 1.215-0.049 0.075-0.097 0.090-0.175 0.090-0.508-0.002-1.016-0.001-1.524-0.001-0.081 0-0.163 0-0.253 0 0.009 0.042 0.012 0.066 0.019 0.088 0.123 0.356 0.123 0.356 0.501 0.356 0.4 0 0.8 0 1.232 0-0.117 0.253-0.211 0.458-0.322 0.699 0.185-0.038 0.334-0.064 0.48-0.102 0.041-0.011 0.088-0.050 0.107-0.089 0.087-0.174 0.164-0.353 0.243-0.527 0.081-0.014 0.157-0.027 0.255-0.039zM24.072 12.68c-0.011-0.021-0.019-0.044-0.033-0.063-0.028-0.039-0.059-0.075-0.089-0.113-0.023 0.037-0.047 0.074-0.069 0.112-0.058 0.102-0.116 0.206-0.172 0.307 0.159 0.277 0.318 0.556 0.498 0.872-0.198-0.037-0.353-0.074-0.509-0.093-0.207-0.025-0.429-0.179-0.614 0.057-0.061 0.078-0.13 0.15-0.206 0.237 0.043 0.012 0.056 0.016 0.069 0.018 0.489 0.089 0.978 0.184 1.469 0.262 0.11 0.018 0.154 0.070 0.195 0.155 0.038 0.080 0.069 0.202 0.132 0.224 0.145 0.052 0.309 0.055 0.496 0.082-0.103-0.229-0.192-0.429-0.284-0.635 0.474 0 0.933 0.001 1.393-0.002 0.047-0 0.121-0.019 0.135-0.051 0.054-0.12 0.088-0.249 0.136-0.392-0.063 0-0.111 0-0.158 0-0.573 0-1.145-0.001-1.718 0.002-0.079 0-0.122-0.022-0.161-0.095-0.159-0.293-0.327-0.58-0.509-0.886zM31.616 5.33c0.023 0.021 0.044 0.056 0.068 0.059 0.035 0.004 0.073-0.024 0.11-0.025 0.231-0.007 0.387-0.091 0.47-0.332 0.085-0.25 0.219-0.482 0.343-0.746-0.824 0-1.631 0-2.46 0 0.042 0.104 0.099 0.205 0.122 0.314 0.023 0.107 0.081 0.112 0.166 0.112 0.488-0.002 0.975-0.001 1.481-0.001-0.099 0.205-0.194 0.401-0.299 0.619zM31.333 27.526c-0.276 0-0.553-0.002-0.829 0.002-0.044 0.001-0.114 0.016-0.126 0.044-0.053 0.125-0.089 0.256-0.133 0.39 0.82 0 1.625 0 2.441 0-0.149-0.321-0.292-0.631-0.437-0.94-0.015-0.033-0.041-0.077-0.069-0.084-0.156-0.036-0.314-0.063-0.498-0.098 0.111 0.243 0.211 0.462 0.313 0.686-0.218 0-0.425 0-0.662 0zM37.542 23.485c-0.2 0.31-0.4 0.62-0.613 0.952-0.142-0.221-0.27-0.42-0.407-0.634-0.039 0.083-0.075 0.139-0.093 0.2-0.048 0.155-0.156 0.311-0.013 0.473 0.032 0.037 0.063 0.076 0.089 0.118 0.12 0.199 0.237 0.401 0.359 0.599 0.014 0.022 0.050 0.030 0.075 0.044 0.377-0.585 0.747-1.164 1.121-1.738 0.216-0.332 0.22-0.332-0.175-0.38-0.043-0.005-0.105 0.029-0.134 0.064-0.072 0.088-0.13 0.188-0.207 0.302zM40.208 11.922c0.179 0.296 0.358 0.593 0.539 0.893-0.221 0.022-0.429 0.042-0.637 0.064-0.026 0.003-0.073 0.018-0.073 0.029-0.002 0.029 0.011 0.065 0.029 0.088 0.055 0.071 0.115 0.139 0.176 0.205 0.056 0.060 0.11 0.111 0.211 0.084s0.209-0.030 0.315-0.040c0.227-0.021 0.455-0.039 0.707-0.060-0.422-0.713-0.832-1.404-1.253-2.115-0.098 0.116-0.192 0.22-0.276 0.332-0.014 0.019 0.006 0.074 0.023 0.105 0.076 0.132 0.157 0.262 0.239 0.414zM19.497 24.812c0.133 0.217 0.266 0.434 0.415 0.676 0.039-0.052 0.062-0.078 0.080-0.106 0.123-0.189 0.244-0.378 0.367-0.567 0.057-0.088 0.171-0.181 0.162-0.261-0.019-0.169-0.102-0.331-0.164-0.515-0.155 0.224-0.291 0.419-0.432 0.623-0.284-0.468-0.559-0.923-0.827-1.365-0.119 0.019-0.221 0.044-0.325 0.049-0.115 0.006-0.122 0.053-0.072 0.136 0.093 0.155 0.187 0.31 0.281 0.465 0.171 0.281 0.342 0.562 0.515 0.865zM20.266 5.976c-0.023-0.036-0.045-0.072-0.075-0.12-0.472 0.668-0.937 1.327-1.414 2.002 0.115 0.030 0.221 0.044 0.313 0.086 0.113 0.051 0.172-0.002 0.228-0.082 0.274-0.39 0.547-0.781 0.832-1.188 0.13 0.222 0.249 0.427 0.391 0.67 0.070-0.175 0.123-0.301 0.17-0.428 0.014-0.039 0.032-0.096 0.015-0.126-0.148-0.266-0.304-0.528-0.459-0.814zM25.437 4.711c0.316 0 0.632 0.002 0.948-0.002 0.044-0 0.114-0.016 0.126-0.044 0.053-0.124 0.088-0.256 0.131-0.388-0.791 0-1.567 0-2.344 0 0 0.025-0.005 0.042 0.001 0.054 0.132 0.285 0.259 0.572 0.401 0.852 0.028 0.055 0.11 0.096 0.175 0.117 0.081 0.026 0.171 0.025 0.257 0.033 0.033 0.003 0.067-0.003 0.101-0.005-0.006-0.036-0.005-0.074-0.020-0.106-0.076-0.168-0.156-0.335-0.238-0.51 0.155 0 0.294 0 0.461 0zM25.184 27.297c0.052-0.126 0.104-0.252 0.17-0.41-0.165 0.028-0.302 0.047-0.436 0.077-0.043 0.010-0.096 0.041-0.114 0.078-0.138 0.277-0.269 0.557-0.401 0.837-0.012 0.024-0.012 0.054-0.019 0.082 0.784 0 1.561 0 2.357 0-0.049-0.114-0.108-0.21-0.129-0.314-0.022-0.108-0.075-0.123-0.169-0.123-0.454 0.004-0.908 0.002-1.374 0.002 0.036-0.074 0.069-0.141 0.114-0.229zM41.332 18.47c0.012-0.020 0.023-0.041 0.036-0.061 0.080-0.118 0.069-0.139-0.070-0.158-0.279-0.038-0.557-0.080-0.837-0.116-0.039-0.005-0.090 0.007-0.12 0.030-0.119 0.095-0.233 0.198-0.348 0.298 0.012 0.022 0.023 0.043 0.035 0.065 0.223 0.030 0.446 0.061 0.671 0.091-0.035 0.058-0.073 0.123-0.115 0.186-0.212 0.323-0.428 0.644-0.635 0.969-0.030 0.048-0.055 0.135-0.031 0.174 0.062 0.105 0.152 0.195 0.239 0.301 0.031-0.042 0.057-0.076 0.080-0.111 0.361-0.55 0.721-1.101 1.095-1.669zM16.711 18.681c0.097-0.008 0.195-0.015 0.339-0.026-0.102-0.13-0.184-0.237-0.269-0.341-0.052-0.064-0.115-0.079-0.201-0.065-0.197 0.030-0.397 0.041-0.595 0.064-0.116 0.013-0.23 0.036-0.357 0.056 0.071 0.118 0.125 0.208 0.178 0.297 0.278 0.466 0.555 0.932 0.834 1.396 0.060 0.1 0.128 0.195 0.192 0.293 0.073-0.088 0.147-0.175 0.221-0.263 0.014-0.016 0.038-0.027 0.043-0.045 0.008-0.027 0.016-0.064 0.003-0.085-0.243-0.409-0.489-0.816-0.746-1.242 0.12-0.010 0.228-0.020 0.357-0.039zM37.822 7.022c-0.194-0.327-0.387-0.653-0.59-0.994-0.045 0.061-0.079 0.107-0.112 0.153-0.127 0.181-0.257 0.36-0.378 0.545-0.061 0.094-0.159 0.185-0.114 0.312 0.034 0.096 0.105 0.18 0.137 0.276s0.050 0.092 0.101 0.015c0.108-0.162 0.22-0.321 0.338-0.492 0.247 0.421 0.485 0.827 0.725 1.232 0.014 0.023 0.046 0.055 0.066 0.052 0.143-0.015 0.286-0.039 0.44-0.061-0.21-0.358-0.405-0.689-0.614-1.039zM15.734 12.138c-0.099 0.146-0.195 0.293-0.297 0.438-0.042 0.060-0.045 0.077 0.040 0.090 0.298 0.048 0.595 0.11 0.892 0.162 0.041 0.007 0.101 0.010 0.126-0.013 0.107-0.103 0.204-0.216 0.329-0.352-0.251-0.047-0.463-0.087-0.685-0.128 0.106-0.143 0.206-0.277 0.304-0.413s0.195-0.272 0.292-0.408c0.088-0.125 0.234-0.246 0.244-0.377 0.009-0.123-0.126-0.257-0.199-0.385-0.005-0.008-0.014-0.014-0.033-0.031-0.171 0.243-0.34 0.485-0.511 0.725-0.161 0.226-0.326 0.45-0.502 0.692z"></path>
<path fill="#115420" style="fill: var(--color2, #115420)" d="M29.342 11.238c-0.154 0.324-0.299 0.639-0.449 0.953-0.099 0.208-0.099 0.228 0.058 0.391 0.559 0.579 0.922 1.267 1.087 2.050 0.083 0.396 0.109 0.804 0.16 1.199 0.169-0.097 0.363-0.214 0.561-0.321 0.449-0.243 0.935-0.377 1.437-0.454 0.192-0.029 0.39-0.028 0.585-0.028 0.036 0 0.099 0.060 0.103 0.097 0.020 0.189 0.026 0.38 0.034 0.57 0.018 0.458-0.056 0.904-0.187 1.37 0.22 0.031 0.434 0.062 0.648 0.092 0.149 0.021 0.299 0.037 0.447 0.064 0.019 0.003 0.048 0.080 0.036 0.094-0.084 0.105-0.172 0.207-0.27 0.299-0.025 0.023-0.090 0.011-0.135 0.005-0.276-0.037-0.551-0.076-0.857-0.119 0.188 0.303 0.356 0.573 0.519 0.835-0.068 0.148-0.135 0.293-0.212 0.459-0.040-0.052-0.079-0.095-0.109-0.144-0.127-0.205-0.25-0.413-0.377-0.617-0.055-0.088-0.082-0.037-0.126 0.023-0.229 0.309-0.435 0.643-0.706 0.911-0.639 0.631-1.403 1.054-2.298 1.214-0.066 0.012-0.131 0.027-0.214 0.045 0.125 0.271 0.251 0.548 0.398 0.867-0.184-0.020-0.343-0.038-0.517-0.057-0.099-0.213-0.205-0.43-0.302-0.651-0.041-0.094-0.093-0.145-0.191-0.109-0.119 0.256-0.235 0.505-0.351 0.752-0.162 0.022-0.323 0.044-0.519 0.071 0.132-0.291 0.255-0.564 0.381-0.842-1.36-0.19-2.456-0.81-3.247-1.92-0.146 0.207-0.295 0.426-0.454 0.638-0.139 0.185-0.145 0.181-0.232-0.041-0.029-0.074-0.056-0.149-0.089-0.238 0.166-0.251 0.343-0.52 0.533-0.808-0.299 0.025-0.576 0.023-0.84 0.079-0.168 0.036-0.195-0.090-0.272-0.154-0.069-0.057-0.109-0.147-0.173-0.238 0.297-0.031 0.585-0.064 0.874-0.090 0.174-0.015 0.184-0.018 0.124-0.17-0.242-0.613-0.315-1.251-0.286-1.905 0.004-0.087 0.014-0.174 0.031-0.259 0.016-0.081 0.056-0.128 0.158-0.13 0.821-0.018 1.59 0.168 2.31 0.561 0.053 0.029 0.106 0.059 0.164 0.091 0.011-0.747 0.171-1.447 0.507-2.102 0.222-0.433 0.51-0.819 0.869-1.148 0.073-0.067 0.084-0.119 0.039-0.211-0.157-0.315-0.303-0.635-0.452-0.954-0.010-0.021-0.010-0.047-0.017-0.087 0.169 0.022 0.329 0.041 0.488 0.066 0.019 0.003 0.037 0.039 0.049 0.064 0.12 0.254 0.238 0.508 0.357 0.762 0.005 0.011 0.017 0.019 0.036 0.041 0.109-0.226 0.229-0.437 0.313-0.662 0.053-0.142 0.116-0.225 0.273-0.229 0.090-0.003 0.18-0.029 0.27-0.038 0.012-0.001 0.028 0.036 0.035 0.064zM26.724 16.309c-0.385-0.277-0.797-0.504-1.248-0.653-0.361-0.119-0.731-0.185-1.111-0.191-0.165 2.639 2.069 4.397 3.964 4.338-0.041-0.369-0.070-0.736-0.124-1.099-0.071-0.473-0.267-0.901-0.513-1.307-0.251-0.415-0.582-0.761-0.967-1.087zM30.725 16.045c-0.039 0.019-0.080 0.033-0.115 0.057-0.626 0.42-1.133 0.951-1.452 1.636-0.152 0.325-0.274 0.672-0.347 1.022-0.072 0.344-0.065 0.704-0.093 1.064 2.722-0.287 3.946-2.719 3.738-4.344-0.613 0.052-1.184 0.238-1.73 0.566zM27.229 16.162c0.593 0.536 1.028 1.177 1.285 1.955 0.19-0.558 0.527-1.179 0.94-1.603 0.089-0.092 0.184-0.195 0.227-0.311 0.044-0.118 0.043-0.26 0.035-0.389-0.020-0.319-0.035-0.64-0.090-0.953-0.154-0.891-0.601-1.622-1.263-2.243-0.157 0.171-0.322 0.327-0.459 0.505-0.577 0.753-0.882 1.601-0.885 2.556-0.001 0.191-0.010 0.37 0.21 0.484z"></path>
<path fill="#115420" style="fill: var(--color2, #115420)" d="M29.74 4.306c0.326 0.682 0.462 1.393 0.453 2.152 0.116-0.069 0.224-0.134 0.331-0.198 0.441-0.263 0.91-0.46 1.419-0.54 0.281-0.044 0.567-0.060 0.85-0.093 0.086-0.010 0.115 0.037 0.123 0.105 0.085 0.775 0.018 1.531-0.275 2.263-0.218 0.545-0.527 1.027-0.924 1.459-0.605 0.658-1.349 1.077-2.205 1.295-0.438 0.111-0.892 0.156-1.345 0.123-0.725-0.054-1.415-0.238-2.029-0.637-0.313-0.204-0.628-0.422-0.889-0.686-0.635-0.643-1.047-1.414-1.225-2.31-0.082-0.412-0.085-0.823-0.083-1.237 0.001-0.091 0.016-0.183 0.030-0.274 0.010-0.070 0.047-0.099 0.127-0.101 0.831-0.025 1.61 0.165 2.341 0.559 0.053 0.029 0.106 0.059 0.166 0.092-0.001-0.634 0.114-1.239 0.367-1.802 0.161-0.358 0.376-0.7 0.615-1.012 0.212-0.278 0.489-0.507 0.743-0.752 0.025-0.024 0.105-0.030 0.13-0.010 0.533 0.444 0.984 0.955 1.281 1.603zM25.984 9.584c0.681 0.544 1.464 0.804 2.327 0.853 0.165-2.438-1.806-4.339-3.938-4.352 0.014 0.293-0.001 0.591 0.048 0.877 0.091 0.527 0.259 1.032 0.547 1.492 0.269 0.43 0.582 0.819 1.015 1.13zM32.504 6.473c0-0.132 0-0.264 0-0.397-2.535 0.27-3.917 2.471-3.72 4.35 0.175-0.028 0.352-0.047 0.524-0.087 1.031-0.237 1.857-0.787 2.463-1.653 0.457-0.653 0.706-1.383 0.733-2.213zM29.393 7.215c0.085-0.094 0.173-0.185 0.252-0.284 0.034-0.043 0.064-0.098 0.071-0.151 0.059-0.408 0.043-0.817-0.034-1.219-0.087-0.454-0.237-0.888-0.466-1.294-0.219-0.388-0.495-0.729-0.814-1.033-0.345 0.304-0.622 0.652-0.837 1.044-0.38 0.693-0.552 1.44-0.512 2.232 0.002 0.044 0.018 0.098 0.047 0.128 0.221 0.227 0.459 0.438 0.667 0.676 0.248 0.285 0.448 0.604 0.59 0.957 0.056 0.138 0.12 0.273 0.192 0.436 0.183-0.569 0.466-1.046 0.843-1.493z"></path>
<path fill="#115420" style="fill: var(--color2, #115420)" d="M31.636 22.614c0.657 0.655 1.096 1.423 1.305 2.317 0.102 0.435 0.107 0.879 0.096 1.323-0 0.014-0.004 0.029-0.007 0.043-0.022 0.101-0.019 0.268-0.074 0.29-0.114 0.047-0.264 0.039-0.392 0.016-0.38-0.068-0.771-0.117-1.132-0.245-0.364-0.129-0.698-0.343-1.045-0.52-0.033-0.017-0.064-0.036-0.104-0.058 0.003 0.599-0.067 1.175-0.269 1.729-0.173 0.473-0.398 0.922-0.738 1.298-0.226 0.25-0.473 0.482-0.717 0.716-0.026 0.024-0.114 0.025-0.14 0-0.236-0.216-0.493-0.417-0.689-0.667-0.231-0.294-0.429-0.621-0.602-0.954-0.201-0.385-0.326-0.802-0.373-1.238-0.025-0.231-0.052-0.462-0.077-0.684-0.202 0.095-0.416 0.209-0.639 0.298-0.391 0.157-0.793 0.278-1.219 0.298-0.21 0.010-0.42 0.016-0.629 0.031-0.080 0.006-0.127-0.030-0.128-0.098-0.005-0.365-0.019-0.731 0-1.096 0.031-0.586 0.21-1.136 0.504-1.641 0.175-0.3 0.384-0.583 0.596-0.859 0.351-0.455 0.816-0.779 1.317-1.040 0.418-0.218 0.864-0.379 1.34-0.422 0.315-0.029 0.632-0.066 0.947-0.055 0.544 0.018 1.072 0.137 1.569 0.364 0.442 0.201 0.861 0.441 1.208 0.789 0.023 0.023 0.055 0.037 0.091 0.063zM24.636 26.163c0.128-0.020 0.256-0.044 0.384-0.058 0.577-0.065 1.088-0.311 1.573-0.603 0.455-0.274 0.817-0.657 1.114-1.101 0.492-0.737 0.713-1.551 0.709-2.433-0-0.107-0.039-0.145-0.139-0.131-0.242 0.035-0.489 0.052-0.726 0.11-0.581 0.143-1.105 0.406-1.567 0.793-0.428 0.358-0.812 0.756-1.046 1.264-0.166 0.36-0.305 0.74-0.394 1.125-0.076 0.331-0.065 0.682-0.093 1.033 0.078 0 0.117 0 0.184 0zM28.918 22.831c0.070 0.441 0.228 0.85 0.439 1.243 0.301 0.56 0.711 1.021 1.235 1.377 0.416 0.283 0.871 0.489 1.359 0.611 0.206 0.051 0.42 0.071 0.632 0.106 0.167-2.198-1.514-4.142-3.724-4.324 0 0.143-0.007 0.286 0.002 0.428 0.012 0.178 0.037 0.355 0.057 0.559zM28.593 28.903c0.394-0.383 0.699-0.828 0.915-1.333 0.287-0.675 0.383-1.378 0.297-2.105-0.007-0.057-0.040-0.117-0.077-0.164-0.071-0.092-0.154-0.175-0.23-0.263-0.292-0.338-0.542-0.703-0.709-1.121-0.048-0.119-0.1-0.236-0.153-0.362-0.119 0.251-0.224 0.495-0.347 0.728-0.269 0.512-0.646 0.937-1.089 1.306-0.032 0.027-0.056 0.081-0.057 0.123-0.013 0.38 0.002 0.758 0.086 1.131 0.192 0.854 0.607 1.576 1.266 2.165 0.030-0.033 0.057-0.062 0.099-0.106z"></path>
<path fill="#115420" style="fill: var(--color2, #115420)" d="M38.904 18.904c-0.137 0.076-0.262 0.15-0.388 0.225 0.182 0.151 0.36 0.296 0.537 0.444 0.302 0.252 0.566 0.542 0.765 0.879 0.178 0.301 0.333 0.618 0.474 0.939 0.162 0.367 0.225 0.763 0.267 1.161 0.003 0.026-0.032 0.074-0.059 0.083-0.601 0.2-1.221 0.287-1.849 0.234-0.523-0.044-1.035-0.165-1.509-0.41-0.251-0.13-0.502-0.262-0.737-0.386-0.026 0.285-0.033 0.586-0.086 0.878s-0.131 0.584-0.236 0.862c-0.113 0.298-0.268 0.581-0.415 0.865-0.016 0.032-0.113 0.057-0.146 0.039-0.272-0.151-0.558-0.286-0.798-0.478-0.288-0.23-0.553-0.495-0.794-0.774-0.372-0.43-0.632-0.936-0.797-1.477-0.169-0.552-0.244-1.121-0.193-1.708 0.033-0.382 0.1-0.754 0.224-1.109 0.127-0.368 0.304-0.718 0.524-1.047 0.302-0.453 0.676-0.839 1.109-1.157 0.459-0.337 0.979-0.569 1.538-0.701 0.439-0.103 0.88-0.152 1.334-0.123 0.365 0.023 0.724 0.068 1.070 0.185 0.236 0.080 0.472 0.169 0.694 0.28 0.235 0.117 0.458 0.26 0.679 0.401 0.106 0.068 0.201 0.156 0.292 0.244 0.023 0.022 0.028 0.091 0.011 0.12-0.379 0.627-0.874 1.143-1.51 1.53zM39.393 17.985c0.015-0.024 0.026-0.052 0.045-0.073 0.155-0.171 0.311-0.34 0.47-0.514-0.104-0.066-0.178-0.119-0.257-0.161-0.284-0.148-0.559-0.32-0.857-0.43-0.379-0.14-0.776-0.223-1.189-0.227-0.354-0.004-0.704 0.015-1.049 0.092-0.561 0.124-1.078 0.346-1.539 0.692-0.32 0.24-0.604 0.515-0.848 0.834-0.078 0.102-0.050 0.154 0.043 0.207 0.156 0.089 0.314 0.177 0.469 0.267 0.348 0.201 0.727 0.319 1.117 0.389 0.318 0.057 0.637 0.092 0.968 0.060 0.315-0.031 0.626-0.064 0.93-0.156 0.385-0.116 0.754-0.265 1.080-0.505 0.203-0.149 0.401-0.305 0.618-0.475zM35.554 24.011c0.021-0.058 0.045-0.115 0.063-0.174 0.095-0.306 0.222-0.608 0.275-0.922 0.067-0.397 0.090-0.805 0.017-1.207-0.043-0.235-0.090-0.471-0.164-0.698-0.076-0.231-0.169-0.461-0.289-0.672-0.146-0.257-0.312-0.506-0.497-0.736-0.161-0.2-0.35-0.382-0.549-0.545-0.172-0.141-0.375-0.243-0.558-0.358-0.511 1-0.631 2.020-0.311 3.080 0.32 1.062 0.964 1.864 1.928 2.41 0.030-0.067 0.050-0.113 0.086-0.179zM37.557 22.164c0.828 0.31 1.671 0.346 2.54 0.136-0.074-0.262-0.136-0.516-0.219-0.763-0.144-0.43-0.371-0.817-0.655-1.168-0.325-0.402-0.718-0.729-1.166-0.988-0.038-0.022-0.094-0.037-0.135-0.029-0.275 0.057-0.546 0.136-0.822 0.18-0.235 0.037-0.478 0.062-0.715 0.047-0.324-0.021-0.646-0.086-0.968-0.132 0.053 0.078 0.106 0.159 0.163 0.237 0.308 0.43 0.517 0.905 0.658 1.413 0.037 0.134 0.028 0.29 0.162 0.386 0.122 0.088 0.236 0.186 0.361 0.269 0.243 0.163 0.499 0.304 0.796 0.412z"></path>
<path fill="#115420" style="fill: var(--color2, #115420)" d="M21.048 14.674c-0.333 0.089-0.652 0.193-0.98 0.247-0.275 0.045-0.562 0.057-0.84 0.036-0.488-0.037-0.971-0.122-1.419-0.335-0.268-0.127-0.535-0.258-0.794-0.402-0.154-0.085-0.295-0.194-0.436-0.3-0.074-0.056-0.142-0.125-0.199-0.198-0.021-0.027-0.018-0.097 0.003-0.128 0.259-0.392 0.568-0.738 0.934-1.034 0.319-0.258 0.657-0.482 1.053-0.628-0.135-0.117-0.276-0.221-0.396-0.345-0.228-0.235-0.463-0.466-0.661-0.725-0.261-0.341-0.482-0.715-0.602-1.13-0.101-0.352-0.16-0.716-0.237-1.075-0.005-0.023-0.014-0.045-0.019-0.068-0.041-0.159 0.001-0.222 0.154-0.268 0.467-0.141 0.945-0.195 1.43-0.168 0.421 0.023 0.839 0.090 1.232 0.243 0.288 0.112 0.56 0.264 0.836 0.405 0.164 0.084 0.32 0.182 0.466 0.267 0.040-0.295 0.059-0.611 0.131-0.915 0.075-0.318 0.185-0.632 0.311-0.934 0.103-0.246 0.25-0.474 0.381-0.709 0.046-0.082 0.111-0.096 0.194-0.043 0.251 0.164 0.517 0.308 0.752 0.492 0.181 0.142 0.332 0.327 0.484 0.504 0.157 0.182 0.305 0.371 0.445 0.566 0.242 0.334 0.399 0.711 0.526 1.102 0.177 0.548 0.248 1.113 0.198 1.682-0.041 0.464-0.153 0.916-0.335 1.354-0.175 0.422-0.399 0.811-0.682 1.159-0.288 0.354-0.631 0.659-1.025 0.904-0.285 0.177-0.576 0.331-0.902 0.446zM17.661 14.091c0.019 0.004 0.039 0.005 0.056 0.014 0.415 0.213 0.859 0.338 1.319 0.384 0.273 0.027 0.551 0.007 0.827-0.001 0.512-0.015 0.994-0.164 1.445-0.391 0.278-0.14 0.557-0.291 0.782-0.521 0.213-0.218 0.443-0.421 0.668-0.633-1.716-1.483-4.545-1.187-5.842 0.683 0.243 0.15 0.485 0.3 0.745 0.465zM23.11 8.61c-0.35-0.688-0.852-1.232-1.509-1.62-0.541 0.966-0.705 1.983-0.441 3.048 0.268 1.080 0.885 1.917 1.842 2.497 0.055-0.114 0.105-0.225 0.161-0.334 0.239-0.466 0.359-0.968 0.386-1.485 0.017-0.323-0.011-0.652-0.059-0.972-0.041-0.27-0.135-0.533-0.219-0.795-0.035-0.111-0.105-0.21-0.16-0.338zM19.904 9.184c-0.099-0.056-0.196-0.115-0.297-0.169-0.333-0.178-0.69-0.293-1.058-0.36-0.541-0.099-1.085-0.092-1.636 0.038 0.013 0.078 0.023 0.153 0.037 0.227 0.106 0.565 0.306 1.091 0.633 1.567 0.318 0.464 0.705 0.857 1.182 1.156 0.051 0.032 0.116 0.075 0.169 0.067 0.324-0.045 0.644-0.132 0.969-0.148 0.344-0.016 0.691 0.022 1.035 0.055 0.171 0.017 0.339 0.076 0.53 0.122-0.024-0.048-0.033-0.070-0.046-0.090-0.318-0.458-0.563-0.949-0.684-1.498-0.053-0.239-0.087-0.489-0.329-0.636-0.167-0.102-0.322-0.221-0.506-0.333z"></path>
<path fill="#115420" style="fill: var(--color2, #115420)" d="M36.668 8.71c0.003 0.112 0.015 0.217 0.027 0.331 0.608-0.353 1.256-0.571 1.95-0.623 0.708-0.053 1.398 0.045 2.071 0.325-0.204 1.545-1.014 2.691-2.363 3.48 0.422 0.221 0.836 0.455 1.193 0.782 0.356 0.326 0.665 0.686 0.913 1.138-0.316 0.203-0.618 0.429-0.948 0.598-0.256 0.131-0.544 0.207-0.826 0.277-0.274 0.068-0.557 0.101-0.838 0.141-0.114 0.016-0.231 0.012-0.346 0.010-0.446-0.006-0.875-0.093-1.304-0.22-0.422-0.125-0.817-0.295-1.164-0.555-0.315-0.235-0.625-0.489-0.884-0.782-0.248-0.28-0.457-0.607-0.63-0.94-0.195-0.377-0.335-0.783-0.391-1.21-0.038-0.291-0.084-0.584-0.083-0.876 0-0.257 0.038-0.52 0.097-0.771 0.074-0.318 0.159-0.639 0.289-0.937 0.13-0.299 0.311-0.579 0.489-0.854 0.213-0.328 0.48-0.615 0.792-0.85 0.275-0.206 0.57-0.386 0.861-0.571 0.077-0.049 0.167-0.080 0.255-0.103 0.036-0.009 0.101 0.015 0.121 0.045 0.159 0.235 0.304 0.477 0.382 0.756 0.080 0.285 0.196 0.56 0.271 0.845 0.047 0.178 0.050 0.369 0.065 0.562zM33.571 9.829c-0.193 0.988-0.056 1.926 0.423 2.809 0.992-0.544 1.702-1.328 2.047-2.415 0.349-1.099 0.236-2.157-0.301-3.194-1.156 0.606-1.858 1.535-2.169 2.8zM38.918 14.516c0.064-0.029 0.131-0.054 0.193-0.087 0.229-0.123 0.457-0.247 0.685-0.373 0.072-0.039 0.071-0.041 0.019-0.102-0.094-0.112-0.19-0.221-0.281-0.335-0.269-0.341-0.629-0.573-0.989-0.799-0.185-0.116-0.407-0.171-0.607-0.266-0.329-0.157-0.684-0.216-1.038-0.251-0.419-0.041-0.843-0.008-1.255 0.085-0.513 0.116-0.985 0.333-1.421 0.632 0.077 0.089 0.16 0.173 0.23 0.267 0.274 0.369 0.637 0.635 1.021 0.873 0.441 0.274 0.929 0.433 1.44 0.516 0.675 0.109 1.338 0.043 2.002-0.161zM40.106 9.48c0.040-0.145 0.081-0.291 0.121-0.436-0.528-0.18-1.066-0.225-1.618-0.175-0.399 0.037-0.784 0.134-1.153 0.277-0.267 0.104-0.512 0.264-0.764 0.405-0.033 0.018-0.057 0.068-0.067 0.107-0.035 0.139-0.064 0.279-0.092 0.419-0.088 0.443-0.274 0.85-0.492 1.238-0.124 0.22-0.296 0.414-0.453 0.628 0.17-0.021 0.333-0.041 0.496-0.062 0.523-0.068 1.038-0.013 1.548 0.104 0.064 0.015 0.147 0.027 0.199-0.001 0.267-0.146 0.533-0.297 0.787-0.464 0.294-0.193 0.542-0.441 0.76-0.717 0.312-0.395 0.57-0.819 0.727-1.324z"></path>
<path fill="#115420" style="fill: var(--color2, #115420)" d="M17.585 16.776c0.161-0.060 0.311-0.116 0.461-0.17 0.469-0.165 0.951-0.252 1.451-0.254 0.424-0.002 0.839 0.044 1.248 0.151 0.393 0.103 0.766 0.258 1.114 0.464 0.406 0.24 0.777 0.535 1.076 0.898 0.239 0.29 0.46 0.603 0.636 0.934 0.234 0.44 0.392 0.919 0.449 1.415 0.039 0.343 0.023 0.695 0.003 1.041-0.014 0.252-0.057 0.506-0.118 0.752-0.097 0.391-0.259 0.76-0.461 1.109-0.245 0.423-0.552 0.801-0.92 1.118-0.252 0.218-0.547 0.388-0.828 0.571-0.118 0.077-0.247 0.138-0.377 0.192-0.036 0.015-0.118-0.009-0.14-0.041-0.28-0.419-0.446-0.891-0.549-1.375-0.075-0.352-0.071-0.72-0.096-1.082-0.005-0.065 0.019-0.131 0.033-0.218-1.338 0.812-2.727 0.995-4.206 0.433 0.18-1.496 0.939-2.605 2.18-3.407-0.822-0.433-1.439-1.069-1.91-1.912 0.312-0.203 0.627-0.408 0.953-0.617zM19.984 19.319c0.027 0.010 0.054 0.028 0.081 0.028 0.383-0.003 0.768 0.010 1.149-0.018 0.338-0.025 0.664-0.123 0.972-0.274 0.261-0.129 0.527-0.247 0.794-0.371-0.975-1.698-3.634-2.637-5.775-1.15 0.122 0.15 0.249 0.294 0.364 0.448 0.237 0.318 0.548 0.553 0.874 0.762 0.239 0.153 0.508 0.268 0.775 0.369 0.238 0.091 0.492 0.14 0.766 0.208zM23.526 21.7c0.192-0.919 0.090-1.802-0.317-2.649-1.551 0.7-2.951 2.955-1.796 5.449 0.305-0.225 0.625-0.42 0.894-0.671 0.256-0.239 0.474-0.525 0.68-0.811 0.137-0.19 0.237-0.412 0.327-0.63 0.088-0.213 0.142-0.44 0.212-0.687zM17.022 22.459c0.108 0.021 0.217 0.035 0.323 0.065 0.378 0.105 0.76 0.073 1.141 0.039 0.471-0.042 0.925-0.161 1.342-0.392 0.257-0.143 0.506-0.3 0.753-0.461 0.049-0.032 0.083-0.107 0.099-0.168 0.117-0.449 0.293-0.872 0.541-1.263 0.116-0.183 0.247-0.357 0.387-0.558-0.226 0.036-0.43 0.090-0.635 0.098-0.619 0.023-1.23-0.026-1.815-0.257-0.078-0.031-0.143-0.028-0.22 0.029-0.181 0.135-0.383 0.242-0.558 0.382-0.211 0.169-0.419 0.347-0.6 0.546-0.285 0.313-0.517 0.668-0.672 1.063-0.105 0.268-0.182 0.547-0.273 0.826 0.073 0.023 0.118 0.037 0.189 0.051z"></path>
<path fill="#115420" style="fill: var(--color2, #115420)" d="M32.632 14.044c-0.087 0.013-0.162 0.026-0.244 0.039-0.079 0.174-0.157 0.353-0.243 0.527-0.019 0.039-0.066 0.078-0.107 0.089-0.146 0.038-0.295 0.064-0.48 0.102 0.111-0.24 0.205-0.445 0.322-0.699-0.432 0-0.832 0-1.232 0-0.378 0-0.378 0-0.501-0.356-0.008-0.022-0.010-0.046-0.019-0.088 0.090 0 0.172 0 0.253 0 0.508 0 1.016-0.001 1.524 0.001 0.078 0 0.125-0.015 0.175-0.090 0.269-0.409 0.548-0.811 0.825-1.215 0.008-0.012 0.022-0.019 0.047-0.041 0.046 0.103 0.084 0.204 0.134 0.299 0.129 0.246-0.087 0.375-0.184 0.54-0.087 0.147-0.194 0.282-0.307 0.445 0.18-0.011 0.33-0.019 0.48-0.030 0.088-0.007 0.185 0.001 0.263-0.033 0.206-0.088 0.305 0.044 0.409 0.175 0.047 0.059 0.086 0.125 0.145 0.211-0.222 0.023-0.421 0.045-0.62 0.065-0.209 0.021-0.419 0.040-0.64 0.059z"></path>
<path fill="#115420" style="fill: var(--color2, #115420)" d="M24.080 12.688c0.173 0.297 0.342 0.585 0.5 0.878 0.040 0.073 0.083 0.095 0.161 0.095 0.573-0.003 1.145-0.002 1.718-0.002 0.048 0 0.095 0 0.158 0-0.048 0.143-0.082 0.272-0.136 0.392-0.014 0.032-0.088 0.050-0.135 0.051-0.459 0.004-0.918 0.002-1.393 0.002 0.092 0.206 0.182 0.406 0.284 0.635-0.188-0.027-0.351-0.030-0.496-0.082-0.063-0.022-0.094-0.144-0.132-0.224-0.041-0.085-0.086-0.138-0.195-0.155-0.491-0.078-0.979-0.173-1.469-0.262-0.013-0.002-0.026-0.007-0.069-0.018 0.076-0.087 0.145-0.159 0.206-0.237 0.185-0.236 0.407-0.082 0.614-0.057 0.157 0.019 0.311 0.056 0.509 0.093-0.18-0.315-0.34-0.594-0.498-0.872 0.057-0.101 0.114-0.204 0.172-0.307 0.022-0.038 0.046-0.075 0.069-0.112 0.030 0.037 0.061 0.074 0.089 0.113 0.014 0.019 0.022 0.042 0.041 0.071z"></path>
<path fill="#115420" style="fill: var(--color2, #115420)" d="M31.62 5.319c0.1-0.207 0.194-0.403 0.294-0.608-0.505 0-0.993-0.001-1.481 0.001-0.085 0-0.143-0.005-0.166-0.112-0.023-0.108-0.080-0.209-0.122-0.314 0.83 0 1.637 0 2.46 0-0.123 0.263-0.258 0.496-0.343 0.746-0.082 0.241-0.239 0.325-0.47 0.332-0.037 0.001-0.075 0.029-0.11 0.025-0.025-0.003-0.046-0.038-0.063-0.070z"></path>
<path fill="#115420" style="fill: var(--color2, #115420)" d="M31.348 27.526c0.222 0 0.429 0 0.647 0-0.102-0.224-0.202-0.443-0.313-0.686 0.184 0.035 0.343 0.061 0.498 0.098 0.028 0.007 0.054 0.051 0.069 0.084 0.145 0.309 0.288 0.619 0.437 0.94-0.816 0-1.621 0-2.441 0 0.044-0.133 0.080-0.265 0.133-0.39 0.012-0.028 0.083-0.043 0.126-0.044 0.276-0.004 0.553-0.002 0.844-0.002z"></path>
<path fill="#115420" style="fill: var(--color2, #115420)" d="M37.548 23.476c0.070-0.104 0.128-0.204 0.2-0.293 0.029-0.036 0.092-0.069 0.134-0.064 0.395 0.048 0.391 0.048 0.175 0.38-0.375 0.575-0.744 1.153-1.121 1.738-0.024-0.014-0.061-0.022-0.075-0.044-0.122-0.199-0.239-0.4-0.359-0.599-0.025-0.042-0.056-0.081-0.089-0.118-0.142-0.162-0.034-0.318 0.013-0.473 0.019-0.061 0.054-0.117 0.093-0.2 0.137 0.214 0.266 0.414 0.407 0.634 0.214-0.331 0.413-0.642 0.62-0.961z"></path>
<path fill="#115420" style="fill: var(--color2, #115420)" d="M40.207 11.91c-0.080-0.142-0.162-0.271-0.238-0.403-0.018-0.031-0.038-0.086-0.023-0.105 0.084-0.112 0.178-0.216 0.276-0.332 0.421 0.711 0.831 1.403 1.253 2.115-0.251 0.021-0.479 0.039-0.707 0.060-0.105 0.010-0.214 0.013-0.315 0.040s-0.155-0.024-0.211-0.084c-0.061-0.066-0.121-0.134-0.176-0.205-0.019-0.024-0.031-0.059-0.029-0.088 0.001-0.011 0.047-0.026 0.073-0.029 0.208-0.022 0.416-0.042 0.637-0.064-0.181-0.3-0.36-0.597-0.54-0.904z"></path>
<path fill="#115420" style="fill: var(--color2, #115420)" d="M19.496 24.801c-0.172-0.292-0.343-0.573-0.514-0.854-0.094-0.155-0.188-0.31-0.281-0.465-0.050-0.083-0.043-0.13 0.072-0.136 0.104-0.005 0.206-0.030 0.325-0.049 0.268 0.442 0.543 0.897 0.827 1.365 0.141-0.204 0.276-0.398 0.432-0.623 0.063 0.184 0.146 0.346 0.164 0.515 0.009 0.080-0.105 0.173-0.162 0.261-0.123 0.189-0.244 0.378-0.367 0.567-0.019 0.029-0.041 0.055-0.080 0.106-0.148-0.242-0.282-0.459-0.416-0.688z"></path>
<path fill="#115420" style="fill: var(--color2, #115420)" d="M20.267 5.987c0.154 0.274 0.31 0.536 0.458 0.803 0.017 0.030-0.001 0.086-0.015 0.126-0.047 0.127-0.099 0.252-0.17 0.428-0.142-0.243-0.261-0.448-0.391-0.67-0.286 0.408-0.559 0.798-0.832 1.188-0.056 0.080-0.114 0.134-0.228 0.082-0.092-0.042-0.198-0.056-0.313-0.086 0.477-0.675 0.942-1.334 1.414-2.002 0.030 0.048 0.053 0.084 0.076 0.131z"></path>
<path fill="#115420" style="fill: var(--color2, #115420)" d="M25.422 4.711c-0.153 0-0.291 0-0.447 0 0.082 0.176 0.162 0.342 0.238 0.51 0.014 0.032 0.014 0.071 0.020 0.106-0.034 0.002-0.068 0.008-0.101 0.005-0.086-0.008-0.176-0.007-0.257-0.033-0.065-0.021-0.147-0.061-0.175-0.117-0.142-0.28-0.27-0.567-0.401-0.852-0.006-0.012-0.001-0.029-0.001-0.054 0.777 0 1.553 0 2.344 0-0.043 0.131-0.078 0.263-0.131 0.388-0.012 0.028-0.082 0.044-0.126 0.044-0.316 0.004-0.632 0.002-0.963 0.002z"></path>
<path fill="#115420" style="fill: var(--color2, #115420)" d="M25.178 27.307c-0.039 0.077-0.072 0.145-0.108 0.219 0.466 0 0.92 0.002 1.374-0.002 0.094-0.001 0.147 0.014 0.169 0.123 0.021 0.104 0.080 0.2 0.129 0.314-0.797 0-1.573 0-2.357 0 0.006-0.028 0.007-0.058 0.019-0.082 0.132-0.28 0.263-0.56 0.401-0.837 0.018-0.037 0.072-0.068 0.114-0.078 0.134-0.030 0.271-0.049 0.436-0.077-0.066 0.158-0.118 0.284-0.176 0.42z"></path>
<path fill="#115420" style="fill: var(--color2, #115420)" d="M41.326 18.479c-0.367 0.559-0.727 1.11-1.088 1.66-0.023 0.035-0.049 0.069-0.080 0.111-0.087-0.106-0.177-0.195-0.239-0.301-0.023-0.039 0.001-0.126 0.031-0.174 0.208-0.326 0.423-0.646 0.635-0.969 0.041-0.063 0.079-0.128 0.115-0.186-0.226-0.031-0.449-0.061-0.671-0.091-0.012-0.022-0.023-0.043-0.035-0.065 0.116-0.1 0.229-0.203 0.348-0.298 0.030-0.024 0.081-0.035 0.12-0.030 0.279 0.036 0.558 0.078 0.837 0.116 0.139 0.019 0.15 0.040 0.070 0.158-0.013 0.020-0.024 0.040-0.043 0.070z"></path>
<path fill="#115420" style="fill: var(--color2, #115420)" d="M16.701 18.686c-0.119 0.014-0.227 0.024-0.347 0.034 0.257 0.426 0.503 0.833 0.746 1.242 0.012 0.021 0.005 0.058-0.003 0.085-0.006 0.018-0.030 0.029-0.043 0.045-0.074 0.087-0.147 0.175-0.221 0.263-0.064-0.098-0.132-0.193-0.192-0.293-0.279-0.465-0.556-0.931-0.834-1.396-0.053-0.090-0.107-0.179-0.178-0.297 0.127-0.020 0.241-0.043 0.357-0.056 0.198-0.023 0.398-0.033 0.595-0.064 0.087-0.013 0.149 0.002 0.201 0.065 0.085 0.105 0.167 0.212 0.269 0.341-0.144 0.011-0.242 0.019-0.349 0.031z"></path>
<path fill="#115420" style="fill: var(--color2, #115420)" d="M37.829 7.031c0.202 0.341 0.397 0.673 0.607 1.030-0.154 0.022-0.297 0.046-0.44 0.061-0.020 0.002-0.053-0.029-0.066-0.052-0.24-0.404-0.477-0.81-0.725-1.232-0.118 0.172-0.231 0.33-0.338 0.492-0.051 0.077-0.069 0.082-0.101-0.015s-0.103-0.18-0.137-0.276c-0.045-0.128 0.053-0.219 0.114-0.312 0.12-0.185 0.251-0.364 0.378-0.545 0.033-0.047 0.068-0.093 0.112-0.153 0.202 0.341 0.396 0.668 0.596 1.003z"></path>
<path fill="#115420" style="fill: var(--color2, #115420)" d="M15.74 12.129c0.169-0.234 0.334-0.457 0.495-0.683 0.172-0.24 0.34-0.482 0.511-0.725 0.019 0.017 0.028 0.023 0.033 0.031 0.072 0.129 0.208 0.263 0.199 0.385-0.010 0.131-0.156 0.252-0.244 0.377-0.096 0.137-0.194 0.273-0.292 0.408s-0.198 0.269-0.304 0.413c0.222 0.041 0.435 0.081 0.685 0.128-0.124 0.135-0.222 0.249-0.329 0.352-0.024 0.023-0.085 0.021-0.126 0.013-0.298-0.053-0.594-0.114-0.892-0.162-0.084-0.014-0.082-0.030-0.040-0.090 0.101-0.144 0.198-0.292 0.303-0.447z"></path>
<path fill="#ffecde" style="fill: var(--color1, #ffecde)" d="M26.732 16.317c0.378 0.318 0.709 0.664 0.96 1.079 0.246 0.406 0.442 0.834 0.513 1.307 0.055 0.364 0.083 0.731 0.124 1.099-1.894 0.060-4.129-1.699-3.964-4.338 0.38 0.007 0.75 0.072 1.111 0.191 0.452 0.149 0.863 0.376 1.255 0.661z"></path>
<path fill="#ffecde" style="fill: var(--color1, #ffecde)" d="M30.733 16.037c0.538-0.32 1.109-0.506 1.722-0.558 0.209 1.625-1.015 4.057-3.738 4.344 0.028-0.36 0.021-0.72 0.093-1.064 0.073-0.35 0.195-0.697 0.347-1.022 0.32-0.685 0.827-1.216 1.452-1.636 0.035-0.024 0.077-0.038 0.123-0.065z"></path>
<path fill="#ffecde" style="fill: var(--color1, #ffecde)" d="M27.221 16.155c-0.212-0.107-0.202-0.286-0.202-0.477 0.003-0.955 0.308-1.803 0.885-2.556 0.136-0.178 0.302-0.334 0.459-0.505 0.661 0.621 1.109 1.352 1.263 2.243 0.054 0.314 0.069 0.635 0.090 0.953 0.008 0.13 0.009 0.271-0.035 0.389-0.043 0.116-0.138 0.219-0.227 0.311-0.412 0.424-0.749 1.045-0.94 1.603-0.256-0.778-0.692-1.419-1.292-1.962z"></path>
<path fill="#ffecde" style="fill: var(--color1, #ffecde)" d="M25.976 9.578c-0.425-0.304-0.737-0.693-1.006-1.123-0.288-0.46-0.456-0.965-0.547-1.492-0.049-0.286-0.034-0.583-0.048-0.877 2.132 0.013 4.103 1.913 3.938 4.352-0.863-0.049-1.646-0.309-2.336-0.859z"></path>
<path fill="#ffecde" style="fill: var(--color1, #ffecde)" d="M32.504 6.488c-0.027 0.815-0.276 1.545-0.733 2.198-0.606 0.866-1.432 1.416-2.463 1.653-0.172 0.040-0.349 0.058-0.524 0.087-0.196-1.879 1.186-4.081 3.72-4.35 0 0.133 0 0.265 0 0.412z"></path>
<path fill="#ffecde" style="fill: var(--color1, #ffecde)" d="M29.385 7.222c-0.369 0.44-0.652 0.916-0.836 1.485-0.072-0.163-0.137-0.298-0.192-0.436-0.142-0.353-0.342-0.673-0.59-0.957-0.207-0.238-0.446-0.449-0.667-0.676-0.029-0.030-0.045-0.084-0.047-0.128-0.040-0.792 0.132-1.538 0.512-2.232 0.215-0.392 0.492-0.74 0.837-1.044 0.319 0.304 0.595 0.644 0.814 1.033 0.229 0.406 0.379 0.84 0.466 1.294 0.077 0.403 0.093 0.811 0.034 1.219-0.008 0.053-0.037 0.109-0.071 0.151-0.079 0.098-0.167 0.189-0.259 0.291z"></path>
<path fill="#ffecde" style="fill: var(--color1, #ffecde)" d="M24.622 26.163c-0.053 0-0.092 0-0.17 0 0.028-0.351 0.016-0.702 0.093-1.033 0.089-0.385 0.229-0.765 0.394-1.125 0.234-0.509 0.618-0.907 1.046-1.264 0.462-0.386 0.986-0.65 1.567-0.793 0.237-0.058 0.484-0.075 0.726-0.11 0.1-0.014 0.139 0.024 0.139 0.131 0.004 0.882-0.217 1.695-0.709 2.433-0.297 0.444-0.659 0.827-1.114 1.101-0.485 0.292-0.997 0.538-1.573 0.603-0.129 0.015-0.256 0.039-0.398 0.058z"></path>
<path fill="#ffecde" style="fill: var(--color1, #ffecde)" d="M28.918 22.818c-0.020-0.191-0.045-0.368-0.057-0.546-0.009-0.142-0.002-0.285-0.002-0.428 2.21 0.182 3.89 2.125 3.724 4.324-0.212-0.034-0.426-0.054-0.632-0.106-0.488-0.122-0.943-0.328-1.359-0.611-0.524-0.356-0.933-0.817-1.235-1.377-0.211-0.393-0.369-0.802-0.44-1.257z"></path>
<path fill="#ffecde" style="fill: var(--color1, #ffecde)" d="M28.586 28.911c-0.034 0.037-0.061 0.066-0.091 0.099-0.658-0.589-1.073-1.311-1.266-2.165-0.084-0.373-0.098-0.751-0.086-1.131 0.001-0.042 0.025-0.096 0.057-0.123 0.443-0.369 0.82-0.794 1.089-1.306 0.123-0.234 0.228-0.477 0.347-0.728 0.053 0.126 0.105 0.243 0.153 0.362 0.167 0.417 0.417 0.783 0.709 1.121 0.076 0.088 0.159 0.171 0.23 0.263 0.036 0.047 0.070 0.107 0.077 0.164 0.085 0.727-0.010 1.43-0.297 2.105-0.215 0.505-0.52 0.95-0.922 1.34z"></path>
<path fill="#ffecde" style="fill: var(--color1, #ffecde)" d="M39.385 17.993c-0.208 0.161-0.407 0.317-0.61 0.467-0.326 0.24-0.695 0.388-1.080 0.505-0.304 0.092-0.614 0.125-0.93 0.156-0.33 0.032-0.65-0.003-0.968-0.060-0.391-0.070-0.77-0.188-1.117-0.389-0.156-0.090-0.313-0.178-0.469-0.267-0.092-0.053-0.121-0.104-0.043-0.207 0.243-0.319 0.528-0.594 0.848-0.834 0.462-0.345 0.979-0.568 1.539-0.692 0.345-0.076 0.695-0.095 1.049-0.092 0.412 0.004 0.809 0.088 1.189 0.227 0.298 0.11 0.573 0.282 0.857 0.43 0.080 0.042 0.153 0.095 0.257 0.161-0.159 0.174-0.315 0.344-0.47 0.514-0.019 0.021-0.030 0.048-0.053 0.081z"></path>
<path fill="#ffecde" style="fill: var(--color1, #ffecde)" d="M35.547 24.020c-0.028 0.056-0.049 0.103-0.078 0.17-0.964-0.546-1.608-1.348-1.928-2.41-0.32-1.060-0.2-2.080 0.311-3.080 0.183 0.115 0.386 0.218 0.558 0.358 0.199 0.163 0.387 0.345 0.549 0.545 0.186 0.23 0.352 0.479 0.497 0.736 0.12 0.211 0.213 0.441 0.289 0.672 0.075 0.226 0.122 0.463 0.164 0.698 0.074 0.402 0.051 0.81-0.017 1.207-0.053 0.314-0.18 0.615-0.275 0.922-0.018 0.059-0.042 0.116-0.070 0.183z"></path>
<path fill="#ffecde" style="fill: var(--color1, #ffecde)" d="M37.548 22.156c-0.289-0.1-0.544-0.241-0.787-0.404-0.124-0.083-0.239-0.181-0.361-0.269-0.134-0.096-0.124-0.252-0.162-0.386-0.141-0.508-0.35-0.983-0.658-1.413-0.056-0.079-0.109-0.159-0.163-0.237 0.322 0.046 0.644 0.111 0.968 0.132 0.237 0.015 0.479-0.010 0.715-0.047 0.277-0.044 0.547-0.122 0.822-0.18 0.042-0.009 0.097 0.006 0.135 0.029 0.447 0.259 0.841 0.587 1.166 0.988 0.284 0.351 0.511 0.738 0.655 1.168 0.083 0.247 0.144 0.501 0.219 0.763-0.87 0.21-1.712 0.174-2.549-0.145z"></path>
<path fill="#ffecde" style="fill: var(--color1, #ffecde)" d="M17.652 14.083c-0.251-0.158-0.493-0.307-0.736-0.457 1.296-1.87 4.125-2.166 5.842-0.683-0.225 0.212-0.454 0.415-0.668 0.633-0.225 0.23-0.504 0.381-0.782 0.521-0.452 0.227-0.933 0.376-1.445 0.391-0.276 0.008-0.554 0.028-0.827 0.001-0.461-0.045-0.904-0.17-1.319-0.384-0.017-0.009-0.037-0.009-0.064-0.022z"></path>
<path fill="#ffecde" style="fill: var(--color1, #ffecde)" d="M23.111 8.622c0.055 0.116 0.124 0.216 0.159 0.326 0.084 0.262 0.178 0.525 0.219 0.795 0.049 0.32 0.076 0.65 0.059 0.972-0.027 0.517-0.147 1.019-0.386 1.485-0.056 0.109-0.106 0.22-0.161 0.334-0.957-0.58-1.573-1.417-1.842-2.497-0.264-1.064-0.101-2.082 0.441-3.048 0.657 0.388 1.159 0.932 1.51 1.632z"></path>
<path fill="#ffecde" style="fill: var(--color1, #ffecde)" d="M19.915 9.185c0.172 0.112 0.328 0.231 0.494 0.333 0.242 0.148 0.276 0.398 0.329 0.636 0.122 0.549 0.366 1.040 0.684 1.498 0.013 0.019 0.022 0.042 0.046 0.090-0.192-0.046-0.359-0.105-0.53-0.122-0.344-0.034-0.692-0.072-1.035-0.055-0.324 0.015-0.645 0.103-0.969 0.148-0.052 0.007-0.118-0.035-0.169-0.067-0.478-0.3-0.864-0.693-1.182-1.156-0.327-0.476-0.527-1.003-0.633-1.567-0.014-0.074-0.024-0.149-0.037-0.227 0.551-0.13 1.095-0.137 1.636-0.038 0.368 0.067 0.725 0.182 1.058 0.36 0.1 0.054 0.198 0.112 0.308 0.169z"></path>
<path fill="#ffecde" style="fill: var(--color1, #ffecde)" d="M33.578 9.818c0.305-1.255 1.007-2.184 2.163-2.79 0.538 1.037 0.65 2.096 0.301 3.194-0.345 1.087-1.055 1.871-2.047 2.415-0.479-0.883-0.617-1.821-0.416-2.82z"></path>
<path fill="#ffecde" style="fill: var(--color1, #ffecde)" d="M38.91 14.509c-0.656 0.211-1.318 0.277-1.994 0.168-0.511-0.082-0.999-0.242-1.44-0.516-0.383-0.238-0.747-0.504-1.021-0.873-0.070-0.094-0.153-0.179-0.23-0.267 0.436-0.299 0.908-0.516 1.421-0.632 0.412-0.093 0.836-0.126 1.255-0.085 0.354 0.035 0.709 0.094 1.038 0.251 0.199 0.095 0.422 0.149 0.607 0.266 0.36 0.226 0.719 0.458 0.989 0.799 0.090 0.114 0.187 0.224 0.281 0.335 0.051 0.061 0.052 0.063-0.019 0.102-0.228 0.125-0.456 0.25-0.685 0.373-0.062 0.033-0.128 0.058-0.2 0.080z"></path>
<path fill="#ffecde" style="fill: var(--color1, #ffecde)" d="M40.098 9.488c-0.149 0.496-0.407 0.921-0.719 1.316-0.218 0.276-0.466 0.524-0.76 0.717-0.255 0.167-0.52 0.318-0.787 0.464-0.051 0.028-0.135 0.016-0.199 0.001-0.511-0.118-1.025-0.172-1.548-0.104-0.163 0.021-0.326 0.041-0.496 0.062 0.156-0.214 0.328-0.407 0.453-0.628 0.219-0.389 0.404-0.795 0.492-1.238 0.028-0.14 0.057-0.28 0.092-0.419 0.010-0.040 0.034-0.089 0.067-0.107 0.252-0.141 0.497-0.301 0.764-0.405 0.369-0.144 0.754-0.241 1.153-0.277 0.552-0.050 1.090-0.006 1.618 0.175-0.041 0.146-0.081 0.291-0.129 0.445z"></path>
<path fill="#ffecde" style="fill: var(--color1, #ffecde)" d="M19.97 19.319c-0.26-0.068-0.514-0.117-0.753-0.208-0.267-0.102-0.536-0.216-0.775-0.369-0.326-0.209-0.637-0.444-0.874-0.762-0.114-0.154-0.242-0.298-0.364-0.448 2.141-1.487 4.8-0.548 5.775 1.15-0.267 0.124-0.533 0.243-0.794 0.371-0.308 0.152-0.634 0.25-0.972 0.274-0.382 0.028-0.766 0.015-1.149 0.018-0.027 0-0.054-0.018-0.094-0.028z"></path>
<path fill="#ffecde" style="fill: var(--color1, #ffecde)" d="M23.525 21.712c-0.069 0.234-0.123 0.461-0.211 0.674-0.090 0.218-0.19 0.44-0.327 0.63-0.206 0.286-0.424 0.572-0.68 0.811-0.269 0.251-0.59 0.447-0.894 0.671-1.156-2.494 0.244-4.749 1.796-5.449 0.407 0.847 0.509 1.73 0.317 2.662z"></path>
<path fill="#ffecde" style="fill: var(--color1, #ffecde)" d="M17.009 22.459c-0.058-0.014-0.102-0.028-0.176-0.051 0.091-0.279 0.168-0.558 0.273-0.826 0.155-0.396 0.388-0.75 0.672-1.063 0.181-0.2 0.389-0.377 0.6-0.546 0.176-0.141 0.378-0.248 0.558-0.382 0.076-0.057 0.142-0.060 0.22-0.029 0.584 0.231 1.196 0.28 1.815 0.257 0.205-0.008 0.409-0.062 0.635-0.098-0.14 0.201-0.271 0.375-0.387 0.558-0.248 0.391-0.424 0.814-0.541 1.263-0.016 0.061-0.049 0.136-0.099 0.168-0.246 0.161-0.496 0.318-0.753 0.461-0.416 0.231-0.87 0.35-1.342 0.392-0.381 0.034-0.763 0.066-1.141-0.039-0.105-0.029-0.215-0.044-0.336-0.065z"></path>
</symbol>
<symbol id="icon-logo-words-circular" viewBox="0 0 31 32">
<path d="M24.228 12.76l-0.038-0.316-0.318 0.008c-1.686 0.050-3.236 0.588-4.525 1.478l0.028-0.018-0.322 0.219 0.008-0.452c0.002-0.036 0.002-0.072 0.002-0.108 0-2.537-1.124-4.918-3.086-6.532l-0.223-0.183-0.221 0.183c-1.849 1.528-3.032 3.804-3.082 6.359l-0 0.008-0.008 0.34-0.294-0.171c-1.272-0.736-2.732-1.126-4.218-1.126-0.048 0-0.092 0-0.143 0.002l-0.289 0.018-0.036 0.288c-0.040 0.298-0.062 0.642-0.062 0.992 0 0.007 0 0.013 0 0.020v-0.001c0 3.468 2.175 6.636 5.412 7.881l0.099 0.036c0.797 0.306 1.718 0.494 2.679 0.518l0.011 0 0.173 0.006v0.006l0.322-0.010c0.942-0.028 1.834-0.206 2.664-0.509l-0.059 0.019 0.094-0.032c3.285-1.23 5.493-4.411 5.493-7.915-0-0.355-0.022-0.705-0.064-1.048l0.004 0.041zM15.667 21.313l-0.012 0.199-0.199-0.008c-0.87-0.043-1.684-0.225-2.44-0.523l0.052 0.018-0.066-0.026c-2.933-1.158-4.904-4.053-4.904-7.206q0-0.211 0.012-0.422l0.010-0.199 0.201 0.010c1.566 0.076 3.058 0.621 4.31 1.576 0.101 0.076 0.199 0.157 0.294 0.237 1.398 1.18 2.367 2.831 2.66 4.705l0.006 0.044c0.016 0.107 0.030 0.213 0.043 0.326 0.029 0.251 0.046 0.541 0.046 0.835 0 0.004 0 0.008 0 0.012v-0.001q-0.001 0.214-0.012 0.422zM16.236 17.867l-0.020 0.050-0.189 0.502-0.189-0.502-0.032-0.080c-0.046-0.121-0.096-0.239-0.147-0.356l-0.054-0.123c-0.070-0.155-0.145-0.303-0.219-0.442l-0.038-0.070c-0.068-0.123-0.139-0.245-0.213-0.366-0.026-0.040-0.050-0.082-0.076-0.123-0.075-0.117-0.153-0.231-0.233-0.346l-0.050-0.072c-0.092-0.128-0.195-0.261-0.303-0.392l-0.083-0.096c-0.084-0.101-0.171-0.199-0.261-0.294l-0.092-0.101c-0.131-0.137-0.249-0.253-0.36-0.356l-0.022-0.020c-0.11-0.101-0.229-0.203-0.364-0.314l-0.048-0.040-0.066-0.054-0.008-0.086c-0.016-0.199-0.024-0.406-0.024-0.615 0-2.149 0.903-4.218 2.475-5.679l0.137-0.127 0.139 0.127c1.572 1.462 2.473 3.53 2.473 5.679 0 0.002 0 0.005 0 0.007 0 0.41-0.031 0.812-0.092 1.205l0.006-0.044-0.011 0.068-0.048 0.046-0.040 0.043c-0.084 0.085-0.167 0.167-0.245 0.253l-0.050 0.050q-0.139 0.154-0.272 0.314l-0.068 0.086c-0.066 0.081-0.131 0.163-0.205 0.261l-0.062 0.084c-0.076 0.107-0.153 0.213-0.223 0.322l-0.012 0.018c-0.075 0.114-0.147 0.231-0.215 0.35l-0.058 0.103c-0.052 0.090-0.101 0.183-0.149 0.275l-0.052 0.098c-0.062 0.123-0.121 0.247-0.183 0.388l-0.011 0.024q-0.072 0.171-0.138 0.343zM18.625 20.999l-0.075 0.028c-0.567 0.217-1.226 0.375-1.912 0.444l-0.033 0.003-0.209 0.022-0.012-0.211c-0.006-0.133-0.008-0.263-0.008-0.394-0-0.010-0-0.021-0-0.032 0-0.265 0.015-0.526 0.043-0.784l-0.003 0.032c0.018-0.191 0.042-0.38 0.075-0.565 0.036-0.207 0.082-0.414 0.135-0.613 0.392-1.468 1.162-2.721 2.201-3.691l0.004-0.004c1.236-1.156 2.845-1.884 4.527-2.049l0.209-0.020 0.012 0.209c0.006 0.133 0.010 0.263 0.010 0.394 0 3.178-1.994 6.085-4.966 7.231z"></path>
<path d="M12.364 9.891h-4.278l0.828 1.767c0.273 0.030 0.551 0.070 0.828 0.125l-0.559-1.194h2.913c0.080-0.233 0.169-0.466 0.268-0.697zM16.688 23.011l-0.845 1.805-0.845-1.805c-0.278-0.024-0.551-0.060-0.822-0.111l1.667 3.56 1.667-3.56c-0.271 0.050-0.546 0.086-0.822 0.111zM19.15 9.891c0.101 0.231 0.189 0.466 0.267 0.697h3.086l-0.603 1.289c0.284-0.070 0.569-0.127 0.85-0.169l0.85-1.817z"></path>
<path d="M15.844 3.863c6.73 0 12.206 5.476 12.206 12.206s-5.476 12.206-12.206 12.206-12.206-5.476-12.206-12.206 5.476-12.206 12.206-12.206zM15.844 3.156c-7.131 0-12.913 5.782-12.913 12.913s5.782 12.914 12.913 12.914 12.913-5.782 12.913-12.913-5.782-12.913-12.913-12.913z"></path>
<path d="M0.443 11.414l2.251 0.535-0.107 0.451-0.958-0.227-0.229 0.964 0.958 0.227-0.107 0.452-2.251-0.534 0.107-0.452 0.925 0.22 0.229-0.964-0.926-0.22z"></path>
<path d="M1.39 9.055l1.269 0.663q0.208 0.109 0.375 0.058t0.27-0.247q0.104-0.2 0.051-0.366t-0.262-0.275l-1.269-0.663 0.217-0.414 1.266 0.662q0.261 0.137 0.383 0.344c0.072 0.118 0.114 0.261 0.114 0.414 0 0.011-0 0.021-0.001 0.032l0-0.002q-0.008 0.237-0.129 0.469-0.12 0.229-0.308 0.368c-0.118 0.088-0.265 0.145-0.424 0.153l-0.002 0q-0.238 0.014-0.499-0.123l-1.266-0.662z"></path>
<path d="M5.16 7.32q-0.19 0.092-0.382 0.074t-0.353-0.154l0.327-0.375q0.114 0.086 0.236 0.072t0.227-0.134q0.107-0.123 0.109-0.244c0.002-0.081-0.029-0.149-0.093-0.204q-0.077-0.068-0.169-0.064c-0.067 0.004-0.129 0.022-0.185 0.051l0.002-0.001c-0.093 0.049-0.17 0.096-0.244 0.146l0.009-0.006q-0.199 0.127-0.34 0.191c-0.077 0.035-0.166 0.056-0.261 0.056-0.016 0-0.032-0.001-0.047-0.002l0.002 0q-0.165-0.010-0.33-0.154-0.155-0.135-0.202-0.313t0.013-0.371 0.218-0.373q0.235-0.27 0.513-0.324t0.528 0.133l-0.335 0.385c-0.045-0.036-0.103-0.058-0.166-0.058-0.017 0-0.035 0.002-0.051 0.005l0.002-0q-0.121 0.020-0.223 0.138-0.089 0.103-0.090 0.209t0.099 0.194c0.037 0.034 0.087 0.056 0.142 0.056 0.005 0 0.010-0 0.015-0.001l-0.001 0c0.065-0.005 0.124-0.023 0.178-0.051l-0.003 0.001q0.088-0.044 0.235-0.136 0.198-0.126 0.342-0.19c0.078-0.035 0.17-0.056 0.266-0.056 0.016 0 0.032 0.001 0.047 0.002l-0.002-0q0.167 0.010 0.33 0.151c0.090 0.078 0.158 0.179 0.195 0.295l0.001 0.005q0.057 0.177 0.006 0.379t-0.218 0.394q-0.16 0.182-0.349 0.273z"></path>
<path d="M7.33 2.42l1.34 1.886-0.378 0.269-0.57-0.802-0.808 0.574 0.57 0.802-0.378 0.269-1.341-1.886 0.378-0.269 0.551 0.775 0.808-0.574-0.551-0.775z"></path>
<path d="M12.956 2.626l-0.708-0.756-0.213 0.051 0.212 0.877-0.451 0.109-0.543-2.249 0.845-0.204q0.261-0.063 0.467-0.016t0.336 0.182c0.084 0.088 0.146 0.199 0.175 0.323l0.001 0.005c0.013 0.050 0.021 0.108 0.021 0.168 0 0.095-0.019 0.186-0.055 0.269l0.002-0.004q-0.086 0.21-0.324 0.339l0.758 0.782zM11.953 1.582l0.377-0.091q0.184-0.044 0.252-0.155t0.031-0.268q-0.037-0.154-0.148-0.218t-0.295-0.019l-0.377 0.091z"></path>
<path d="M15.377 0.393l0.011 0.58 0.779-0.013 0.006 0.368-0.779 0.014 0.011 0.613 0.878-0.015 0.007 0.378-1.342 0.023-0.040-2.317 1.342-0.023 0.006 0.378z"></path>
<path d="M19.774 0.475l-0.072 0.368-0.605-0.118-0.372 1.903-0.455-0.089 0.372-1.903-0.605-0.118 0.072-0.368z"></path>
<path d="M21.762 3.657l-0.099-1.031-0.2-0.089-0.367 0.823-0.424-0.189 0.942-2.112 0.793 0.353q0.245 0.109 0.379 0.272t0.155 0.349c0.003 0.022 0.004 0.049 0.004 0.075 0 0.106-0.024 0.206-0.066 0.296l0.002-0.004c-0.061 0.138-0.161 0.248-0.286 0.321l-0.003 0.002q-0.196 0.114-0.463 0.071l0.124 1.082zM21.604 2.219l0.355 0.158q0.173 0.077 0.294 0.032t0.188-0.194q0.065-0.146 0.016-0.263t-0.222-0.195l-0.354-0.158z"></path>
<path d="M25.038 3.363l-0.346 0.466 0.625 0.465-0.219 0.295-0.625-0.465-0.366 0.492 0.706 0.524-0.226 0.303-1.078-0.8 1.382-1.86 1.077 0.801-0.225 0.304z"></path>
<path d="M26.954 7.239l-0.597-0.702-0.435 0.169-0.316-0.371 2.304-0.867 0.35 0.412-1.227 2.135-0.318-0.374zM27.155 6.903l0.521-0.882-0.954 0.372z"></path>
<path d="M30.544 9.545l-0.334 0.17-0.28-0.549-1.728 0.88-0.211-0.414 1.728-0.88-0.28-0.549 0.334-0.17z"></path>
<path d="M29.12 12.256q0.032-0.208 0.156-0.356t0.328-0.203l0.122 0.482q-0.136 0.045-0.194 0.154t-0.019 0.263c0.026 0.105 0.073 0.181 0.138 0.228 0.042 0.031 0.094 0.050 0.151 0.050 0.025 0 0.049-0.004 0.072-0.010l-0.002 0q0.1-0.025 0.148-0.103c0.032-0.051 0.054-0.111 0.063-0.176l0-0.002c0.010-0.081 0.017-0.175 0.018-0.271l0-0.002q0.009-0.235 0.037-0.387c0.021-0.109 0.066-0.204 0.131-0.284l-0.001 0.001q0.102-0.13 0.314-0.184 0.199-0.050 0.372 0.011t0.298 0.222 0.183 0.391q0.088 0.347-0.025 0.607t-0.41 0.359l-0.126-0.495c0.075-0.023 0.135-0.076 0.166-0.145l0.001-0.002q0.052-0.111 0.014-0.262-0.034-0.132-0.121-0.193t-0.216-0.029c-0.057 0.013-0.105 0.049-0.134 0.096l-0.001 0.001c-0.029 0.050-0.050 0.108-0.059 0.17l-0 0.002q-0.014 0.098-0.021 0.271-0.009 0.235-0.038 0.389c-0.022 0.11-0.068 0.207-0.133 0.288l0.001-0.001q-0.103 0.132-0.312 0.185c-0.049 0.013-0.106 0.021-0.164 0.021-0.069 0-0.136-0.011-0.198-0.031l0.005 0.001q-0.178-0.054-0.315-0.211t-0.2-0.404q-0.060-0.234-0.027-0.443z"></path>
<path d="M3.183 21.153l-2.202 0.708-0.142-0.442 0.937-0.301-0.303-0.944-0.937 0.301-0.142-0.442 2.202-0.708 0.142 0.442-0.905 0.291 0.303 0.943 0.906-0.291z"></path>
<path d="M3.995 22.777l-1.221 0.749q-0.2 0.123-0.242 0.293t0.075 0.359q0.118 0.192 0.288 0.232t0.371-0.084l1.221-0.749 0.245 0.398-1.218 0.747q-0.252 0.154-0.492 0.152c-0.164-0-0.316-0.049-0.443-0.133l0.003 0.002q-0.2-0.128-0.336-0.352-0.136-0.22-0.158-0.454c-0.002-0.024-0.004-0.051-0.004-0.078 0-0.134 0.034-0.26 0.093-0.37l-0.002 0.004q0.11-0.211 0.361-0.365l1.217-0.747z"></path>
<path d="M4.196 26.841c-0.050-0.131-0.065-0.26-0.043-0.386s0.083-0.239 0.183-0.34l0.347 0.356q-0.095 0.107-0.091 0.23t0.115 0.237q0.114 0.116 0.234 0.128c0.009 0.001 0.018 0.002 0.028 0.002 0.072 0 0.136-0.030 0.182-0.077l0-0c0.049-0.048 0.075-0.102 0.077-0.163 0-0.004 0-0.008 0-0.013 0-0.062-0.013-0.122-0.036-0.176l0.001 0.003c-0.043-0.1-0.083-0.18-0.128-0.258l0.007 0.013q-0.11-0.208-0.162-0.354c-0.023-0.063-0.036-0.137-0.036-0.213 0-0.034 0.003-0.068 0.008-0.101l-0 0.004q0.023-0.164 0.18-0.317 0.147-0.143 0.328-0.176t0.369 0.043 0.354 0.247q0.25 0.257 0.281 0.538t-0.175 0.516l-0.356-0.365c0.045-0.047 0.072-0.111 0.072-0.182 0-0.010-0.001-0.020-0.002-0.029l0 0.001q-0.011-0.122-0.119-0.234-0.095-0.097-0.201-0.107t-0.201 0.083c-0.041 0.038-0.067 0.091-0.067 0.151v0c0 0 0 0.001 0 0.001 0 0.064 0.013 0.125 0.036 0.181l-0.001-0.003c0.042 0.1 0.081 0.181 0.124 0.26l-0.007-0.014q0.11 0.208 0.162 0.356c0.023 0.064 0.036 0.138 0.036 0.215 0 0.035-0.003 0.069-0.008 0.103l0-0.004q-0.023 0.166-0.177 0.316c-0.084 0.083-0.19 0.143-0.309 0.171l-0.004 0.001q-0.181 0.042-0.378-0.025t-0.375-0.25q-0.169-0.173-0.245-0.37z"></path>
<path d="M9.283 28.029l-1.254 1.944-0.39-0.252 0.534-0.827-0.833-0.537-0.534 0.827-0.39-0.252 1.255-1.944 0.39 0.252-0.516 0.799 0.832 0.537 0.516-0.799z"></path>
<path d="M12.577 31.657l-0.293-0.994-0.213-0.050-0.204 0.879-0.452-0.105 0.524-2.254 0.846 0.197q0.262 0.061 0.424 0.196t0.218 0.313c0.019 0.062 0.030 0.132 0.030 0.206 0 0.214-0.093 0.406-0.241 0.537l-0.001 0.001q-0.171 0.149-0.442 0.158l0.327 1.039zM12.149 30.274l0.378 0.088c0.123 0.028 0.221 0.020 0.295-0.025s0.123-0.121 0.148-0.226c0.024-0.103 0.012-0.191-0.035-0.261s-0.132-0.121-0.255-0.15l-0.378-0.088z"></path>
<path d="M15.323 30.041l-0.014 0.58 0.779 0.018-0.008 0.368-0.779-0.018-0.014 0.613 0.878 0.021-0.009 0.378-1.342-0.031 0.053-2.316 1.342 0.031-0.009 0.378z"></path>
<path d="M19.025 29.328l0.064 0.369-0.607 0.106 0.331 1.91-0.457 0.079-0.332-1.91-0.607 0.105-0.064-0.369z"></path>
<path d="M22.161 30.69l-0.812-0.643-0.203 0.082 0.339 0.835-0.43 0.175-0.87-2.144 0.805-0.326q0.249-0.101 0.46-0.084c0.141 0.011 0.26 0.054 0.359 0.13s0.175 0.177 0.221 0.293l0.002 0.005c0.033 0.078 0.053 0.169 0.053 0.264 0 0.060-0.008 0.117-0.022 0.173l0.001-0.005q-0.053 0.22-0.27 0.383l0.866 0.661zM21.016 29.806l0.36-0.146q0.175-0.071 0.227-0.19t-0.009-0.27q-0.060-0.147-0.179-0.194c-0.079-0.031-0.177-0.023-0.294 0.025l-0.36 0.146z"></path>
<path d="M23.469 27.791l0.323 0.482 0.647-0.434 0.205 0.306-0.647 0.434 0.342 0.509 0.73-0.49 0.21 0.314-1.115 0.748-1.291-1.924 1.115-0.748 0.211 0.313z"></path>
<path d="M27.331 26.454l-0.638 0.665 0.213 0.415-0.337 0.352-1.096-2.205 0.374-0.39 2.248 1.004-0.34 0.354zM26.976 26.287l-0.93-0.428 0.467 0.912z"></path>
<path d="M27.932 22.377l0.321 0.194-0.319 0.528 1.659 1.004-0.24 0.397-1.659-1.004-0.319 0.527-0.321-0.194z"></path>
<path d="M30.685 21.688q-0.142 0.156-0.326 0.211t-0.386-0.012l0.164-0.469q0.138 0.038 0.246-0.021t0.16-0.209q0.053-0.154 0.011-0.267t-0.162-0.155c-0.064-0.023-0.125-0.021-0.18 0.004-0.059 0.028-0.109 0.067-0.15 0.114l-0 0.001c-0.055 0.064-0.109 0.135-0.16 0.209l-0.006 0.009c-0.079 0.113-0.16 0.212-0.246 0.305l0.002-0.002c-0.072 0.074-0.16 0.13-0.26 0.163l-0.005 0.001q-0.157 0.053-0.363-0.020-0.194-0.068-0.304-0.215t-0.126-0.349 0.063-0.428q0.118-0.338 0.356-0.492t0.54-0.073l-0.168 0.482c-0.023-0.007-0.049-0.011-0.077-0.011-0.053 0-0.102 0.016-0.144 0.043l0.001-0.001q-0.105 0.063-0.156 0.21-0.045 0.128-0.006 0.228t0.164 0.143c0.022 0.009 0.048 0.014 0.075 0.014 0.033 0 0.064-0.008 0.092-0.021l-0.001 0.001c0.056-0.028 0.104-0.066 0.144-0.111l0-0.001c0.056-0.064 0.111-0.133 0.162-0.206l0.006-0.008q0.137-0.191 0.246-0.304c0.073-0.074 0.163-0.131 0.264-0.165l0.005-0.001q0.159-0.053 0.362 0.018c0.118 0.041 0.218 0.112 0.293 0.203l0.001 0.001q0.118 0.143 0.147 0.349t-0.056 0.447q-0.079 0.229-0.221 0.385z"></path>
</symbol>
<symbol id="icon-logo-words-right" viewBox="0 0 114 32">
<path d="M27.465 9.638l-0.062-0.515-0.519 0.013c-2.751 0.081-5.282 0.96-7.386 2.412l0.046-0.030-0.525 0.358 0.013-0.738c0.003-0.059 0.003-0.118 0.003-0.177 0-4.142-1.834-8.026-5.037-10.661l-0.364-0.299-0.361 0.299c-3.018 2.494-4.949 6.21-5.030 10.379l-0 0.014-0.013 0.554-0.479-0.279c-2.077-1.201-4.459-1.838-6.884-1.838-0.079 0-0.151 0-0.233 0.003l-0.473 0.029-0.059 0.47c-0.065 0.487-0.102 1.050-0.102 1.621 0 0.010 0 0.020 0 0.030v-0.002c0 5.661 3.551 10.833 8.834 12.863l0.161 0.059c1.3 0.5 2.803 0.807 4.373 0.847l0.017 0 0.282 0.010v0.010l0.525-0.016c1.537-0.046 2.993-0.336 4.349-0.833l-0.096 0.031 0.154-0.053c5.362-2.009 8.965-7.199 8.965-12.918-0-0.579-0.036-1.15-0.105-1.711l0.007 0.067zM13.493 23.597l-0.019 0.325-0.325-0.013c-1.419-0.071-2.749-0.367-3.983-0.853l0.085 0.029-0.108-0.043c-4.789-1.892-8.004-6.616-8.004-11.762q0-0.344 0.019-0.689l0.017-0.325 0.327 0.016c2.671 0.132 5.099 1.079 7.065 2.595l-0.029-0.022c0.164 0.125 0.325 0.256 0.479 0.387 2.282 1.926 3.863 4.62 4.342 7.68l0.009 0.071c0.026 0.173 0.049 0.348 0.069 0.532 0.048 0.41 0.075 0.885 0.075 1.366 0 0.005 0 0.011 0 0.016v-0.001q-0 0.349-0.020 0.69zM14.422 17.973l-0.032 0.082-0.308 0.82-0.308-0.82-0.052-0.131c-0.075-0.197-0.157-0.391-0.239-0.581l-0.089-0.2c-0.115-0.253-0.236-0.495-0.358-0.722l-0.062-0.116c-0.112-0.2-0.227-0.4-0.348-0.597-0.043-0.066-0.082-0.135-0.125-0.2-0.121-0.19-0.249-0.377-0.381-0.564l-0.082-0.118c-0.152-0.209-0.32-0.426-0.497-0.639l-0.135-0.158c-0.138-0.164-0.279-0.325-0.427-0.479l-0.151-0.164c-0.213-0.223-0.407-0.414-0.587-0.581l-0.036-0.033c-0.181-0.164-0.374-0.331-0.594-0.512l-0.079-0.066-0.108-0.088-0.013-0.141c-0.026-0.325-0.039-0.663-0.039-1.004 0.005-3.656 1.555-6.95 4.031-9.263l0.007-0.007 0.223-0.207 0.227 0.207c2.566 2.386 4.036 5.762 4.036 9.271 0 0.004 0 0.009 0 0.013 0 0.668-0.051 1.325-0.15 1.965l0.009-0.071-0.017 0.112-0.079 0.075-0.066 0.069c-0.138 0.138-0.272 0.272-0.4 0.413l-0.082 0.082q-0.227 0.25-0.443 0.512l-0.112 0.141c-0.108 0.131-0.213 0.266-0.335 0.427l-0.102 0.138c-0.125 0.173-0.249 0.348-0.364 0.525l-0.019 0.029c-0.121 0.187-0.239 0.377-0.351 0.571l-0.095 0.167c-0.085 0.148-0.164 0.299-0.243 0.45l-0.086 0.161c-0.102 0.2-0.197 0.405-0.298 0.633l-0.017 0.039q-0.118 0.28-0.227 0.561zM18.319 23.085l-0.122 0.046c-0.926 0.354-2.001 0.612-3.119 0.724l-0.053 0.004-0.341 0.036-0.019-0.344c-0.010-0.217-0.013-0.43-0.013-0.643-0-0.016-0-0.034-0-0.053 0-0.432 0.024-0.859 0.070-1.279l-0.005 0.052c0.030-0.312 0.069-0.62 0.122-0.922 0.059-0.338 0.135-0.676 0.22-1.002 0.639-2.395 1.897-4.441 3.593-6.024l0.007-0.007c2.018-1.888 4.642-3.075 7.39-3.344l0.341-0.033 0.019 0.341c0.010 0.217 0.016 0.43 0.016 0.643 0.001 5.189-3.255 9.933-8.105 11.803z"></path>
<path d="M8.102 4.955h-6.983l1.352 2.885c0.446 0.049 0.899 0.116 1.352 0.203l-0.912-1.95h4.755c0.131-0.381 0.276-0.761 0.437-1.139zM15.16 26.369l-1.378 2.947-1.378-2.947c-0.453-0.040-0.899-0.098-1.342-0.18l2.72 5.811 2.72-5.811c-0.443 0.082-0.892 0.141-1.342 0.18zM19.177 4.955c0.164 0.377 0.308 0.761 0.436 1.139h5.037l-0.984 2.103c0.462-0.116 0.929-0.207 1.387-0.275l1.388-2.967z"></path>
<path d="M49.817 8.648v12.857h-1.678v-5.829h-6.549v5.829h-1.678v-12.857h1.678v5.644h6.549v-5.644z"></path>
<path d="M63.546 8.648v8.135q0 1.714 0.84 2.545t2.333 0.83q1.476 0 2.315-0.83t0.839-2.545v-8.135h1.679v8.117q0 1.605-0.646 2.702t-1.743 1.633q-1.098 0.536-2.463 0.535t-2.463-0.535-1.734-1.633-0.636-2.702v-8.117z"></path>
<path d="M85.383 21.182q-1.006-0.452-1.577-1.255t-0.59-1.854h1.789q0.092 0.904 0.747 1.522t1.91 0.618q1.198 0 1.891-0.6t0.692-1.541q0-0.738-0.406-1.199t-1.016-0.7q-0.609-0.239-1.642-0.516-1.273-0.332-2.038-0.664t-1.31-1.042-0.544-1.909q0-1.051 0.535-1.864t1.503-1.254q0.968-0.443 2.223-0.443 1.808 0 2.961 0.904t1.301 2.398h-1.844q-0.093-0.739-0.775-1.301t-1.806-0.562q-1.052 0-1.716 0.545t-0.664 1.522q0 0.701 0.397 1.144c0.264 0.292 0.591 0.521 0.96 0.667l0.017 0.006q0.582 0.231 1.633 0.526 1.273 0.349 2.048 0.691t1.328 1.051q0.553 0.71 0.553 1.928 0 0.941-0.498 1.771t-1.476 1.347-2.306 0.516q-1.273 0-2.278-0.452z"></path>
<path d="M113.547 8.648v12.857h-1.679v-5.829h-6.549v5.829h-1.678v-12.857h1.678v5.644h6.549v-5.644z"></path>
<path d="M59.462 26.706l-0.572-0.982h-0.38v0.982h-0.314v-2.404h0.776c0.182 0 0.335 0.031 0.461 0.093 0.118 0.055 0.213 0.141 0.279 0.248l0.002 0.003c0.059 0.104 0.093 0.228 0.093 0.361 0 0.165-0.054 0.318-0.145 0.441l0.001-0.002c-0.095 0.127-0.238 0.21-0.429 0.252l0.604 1.007zM58.51 25.471h0.462c0.171 0 0.298-0.042 0.383-0.126s0.128-0.196 0.128-0.336-0.042-0.253-0.126-0.331-0.212-0.117-0.385-0.117h-0.462z"></path>
<path d="M63.709 24.557v0.804h0.876v0.259h-0.876v0.828h0.979v0.259h-1.293v-2.408h1.293v0.259z"></path>
<path d="M69.746 24.302v0.255h-0.655v2.149h-0.314v-2.149h-0.658v-0.255z"></path>
<path d="M74.5 26.706l-0.573-0.982h-0.379v0.982h-0.314v-2.404h0.776q0.273 0 0.461 0.093c0.118 0.055 0.213 0.141 0.279 0.248l0.002 0.003c0.059 0.1 0.093 0.221 0.093 0.349 0 0.005-0 0.009-0 0.014v-0.001c0 0.004 0 0.008 0 0.013 0 0.161-0.054 0.309-0.144 0.427l0.001-0.002c-0.095 0.127-0.239 0.21-0.429 0.252l0.604 1.007zM73.548 25.471h0.462c0.171 0 0.298-0.042 0.383-0.126s0.128-0.196 0.128-0.336-0.042-0.253-0.126-0.331-0.212-0.117-0.385-0.117h-0.462z"></path>
<path d="M78.748 24.557v0.804h0.876v0.259h-0.876v0.828h0.98v0.259h-1.294v-2.408h1.293v0.259z"></path>
<path d="M84.726 26.171h-1.048l-0.193 0.534h-0.332l0.869-2.39h0.362l0.866 2.39h-0.331zM84.636 25.916l-0.435-1.214-0.435 1.214z"></path>
<path d="M90.211 24.302v0.255h-0.655v2.149h-0.314v-2.149h-0.658v-0.255z"></path>
<path d="M94.036 26.645c-0.12-0.052-0.219-0.132-0.293-0.232l-0.001-0.002c-0.069-0.096-0.111-0.217-0.111-0.347v0h0.335c0.011 0.113 0.062 0.212 0.14 0.284l0 0q0.122 0.116 0.357 0.116c0.149 0 0.267-0.039 0.354-0.112 0.079-0.067 0.129-0.167 0.129-0.278 0-0.004-0-0.007-0-0.011v0.001q0-0.138-0.076-0.224c-0.051-0.057-0.115-0.102-0.186-0.13l-0.003-0.001c-0.079-0.031-0.181-0.064-0.286-0.092l-0.021-0.005c-0.149-0.037-0.276-0.079-0.398-0.131l0.017 0.006c-0.099-0.044-0.182-0.111-0.243-0.193l-0.001-0.002c-0.068-0.089-0.102-0.208-0.102-0.357-0-0.003-0-0.008-0-0.012 0-0.125 0.037-0.242 0.101-0.339l-0.001 0.002c0.070-0.103 0.165-0.183 0.277-0.233l0.004-0.002c0.116-0.053 0.252-0.083 0.396-0.083 0.007 0 0.014 0 0.021 0l-0.001-0q0.338 0 0.553 0.169c0.137 0.106 0.228 0.266 0.242 0.447l0 0.002h-0.345q-0.018-0.138-0.145-0.243c-0.085-0.070-0.197-0.105-0.338-0.105-0.131 0-0.238 0.034-0.321 0.102s-0.124 0.163-0.124 0.285c-0 0.004-0 0.008-0 0.012 0 0.077 0.028 0.148 0.075 0.202l-0-0c0.049 0.055 0.111 0.097 0.18 0.124l0.003 0.001c0.078 0.031 0.179 0.065 0.283 0.093l0.022 0.005c0.152 0.040 0.279 0.084 0.402 0.137l-0.019-0.007c0.1 0.045 0.184 0.112 0.247 0.195l0.001 0.002c0.069 0.088 0.103 0.208 0.103 0.36 0 0 0 0.001 0 0.001 0 0.122-0.035 0.236-0.095 0.332l0.002-0.003c-0.067 0.108-0.161 0.194-0.272 0.25l-0.004 0.002q-0.183 0.096-0.431 0.096c-0.005 0-0.012 0-0.018 0-0.147 0-0.287-0.031-0.414-0.087l0.007 0.003z"></path>
</symbol>
<symbol id="icon-logo-main" viewBox="0 0 53 32">
<path d="M32.654 4.25l-0.028-0.227-0.229 0.006c-1.213 0.036-2.33 0.423-3.258 1.064l0.020-0.013-0.231 0.158 0.006-0.325c0.001-0.026 0.001-0.052 0.001-0.078 0-0.003 0-0.006 0-0.009 0-1.886-0.861-3.572-2.211-4.685l-0.010-0.008-0.161-0.132-0.159 0.132c-1.331 1.1-2.183 2.739-2.218 4.577l-0 0.006-0.006 0.245-0.211-0.123c-0.87-0.509-1.915-0.81-3.031-0.81-0.002 0-0.004 0-0.005 0h0c-0.035 0-0.066 0-0.103 0.001l-0.208 0.013-0.026 0.208c-0.029 0.214-0.045 0.462-0.045 0.714 0 0.005 0 0.010 0 0.015v-0.001c0 2.496 1.566 4.777 3.896 5.673l0.071 0.026c0.574 0.22 1.237 0.356 1.93 0.373l0.008 0 0.125 0.004v0.004l0.231-0.007c0.678-0.021 1.319-0.148 1.917-0.367l-0.042 0.014 0.068-0.023c2.365-0.886 3.954-3.175 3.954-5.698-0-0.256-0.016-0.507-0.047-0.755l0.003 0.030zM26.492 10.407l-0.009 0.143-0.143-0.006c-0.626-0.031-1.212-0.162-1.757-0.376l0.037 0.013-0.048-0.019c-2.111-0.834-3.53-2.917-3.53-5.187q0-0.152 0.009-0.304l0.007-0.143 0.145 0.007c1.178 0.058 2.249 0.476 3.116 1.144l-0.013-0.010c0.072 0.055 0.143 0.113 0.212 0.171 1.007 0.849 1.704 2.038 1.915 3.387l0.004 0.031c0.012 0.077 0.022 0.153 0.030 0.235 0.021 0.181 0.033 0.39 0.033 0.602 0 0.003 0 0.005 0 0.008v-0q0 0.154-0.009 0.304zM26.901 7.926l-0.015 0.036-0.136 0.362-0.136-0.362-0.023-0.058c-0.033-0.086-0.069-0.173-0.105-0.256l-0.039-0.088c-0.050-0.112-0.104-0.219-0.158-0.318l-0.027-0.051c-0.049-0.088-0.1-0.177-0.153-0.263-0.019-0.029-0.036-0.059-0.055-0.088-0.054-0.084-0.11-0.166-0.168-0.249l-0.036-0.052c-0.067-0.093-0.14-0.188-0.218-0.282l-0.059-0.069c-0.061-0.072-0.123-0.143-0.188-0.211l-0.067-0.072c-0.094-0.098-0.18-0.182-0.259-0.256l-0.016-0.014c-0.080-0.072-0.165-0.146-0.262-0.226l-0.035-0.029-0.048-0.039-0.006-0.062c-0.012-0.143-0.017-0.292-0.017-0.443 0.002-1.613 0.686-3.065 1.778-4.085l0.003-0.003 0.098-0.091 0.1 0.091c1.095 1.023 1.779 2.475 1.781 4.087v0c0 0.002 0 0.003 0 0.005 0 0.295-0.023 0.585-0.066 0.867l0.004-0.032-0.007 0.049-0.035 0.033-0.029 0.030c-0.061 0.061-0.12 0.12-0.176 0.182l-0.036 0.036q-0.1 0.111-0.195 0.226l-0.049 0.062c-0.048 0.058-0.094 0.117-0.148 0.188l-0.045 0.061c-0.055 0.077-0.11 0.153-0.161 0.231l-0.009 0.013c-0.053 0.082-0.105 0.166-0.156 0.252l-0.042 0.074c-0.038 0.065-0.072 0.132-0.107 0.198l-0.038 0.071c-0.045 0.088-0.086 0.178-0.131 0.279l-0.007 0.017q-0.051 0.124-0.099 0.248zM28.621 10.181l-0.054 0.020c-0.408 0.156-0.883 0.27-1.376 0.319l-0.023 0.002-0.151 0.016-0.008-0.152c-0.005-0.095-0.006-0.19-0.006-0.284-0-0.007-0-0.015-0-0.023 0-0.191 0.011-0.379 0.031-0.564l-0.002 0.023c0.013-0.138 0.030-0.273 0.054-0.407 0.026-0.149 0.059-0.298 0.097-0.441 0.601-2.236 2.502-3.896 4.823-4.133l0.024-0.002 0.151-0.014 0.009 0.15c0.004 0.095 0.007 0.19 0.007 0.284 0 2.289-1.436 4.382-3.575 5.206z"></path>
<path d="M24.114 2.185h-3.080l0.596 1.272c0.197 0.022 0.396 0.050 0.596 0.090l-0.402-0.86h2.097c0.058-0.168 0.122-0.335 0.192-0.502zM27.227 11.63l-0.608 1.299-0.608-1.299c-0.2-0.017-0.397-0.043-0.592-0.080l1.199 2.563 1.2-2.563c-0.195 0.036-0.394 0.062-0.592 0.079zM28.999 2.186c0.072 0.166 0.136 0.336 0.192 0.502h2.221l-0.434 0.927c0.204-0.051 0.41-0.091 0.612-0.121l0.612-1.308z"></path>
<path d="M7.162 18.927v9.296h-1.214v-4.214h-4.735v4.214h-1.213v-9.296h1.213v4.082h4.735v-4.082z"></path>
<path d="M17.088 18.927v5.881q0 1.24 0.607 1.84t1.687 0.6q1.067 0 1.674-0.6t0.607-1.84v-5.881h1.214v5.868q0 1.16-0.467 1.954t-1.26 1.181-1.781 0.387-1.78-0.387q-0.794-0.387-1.254-1.181t-0.46-1.954v-5.868z"></path>
<path d="M32.876 27.989q-0.727-0.327-1.14-0.907t-0.427-1.34h1.294q0.066 0.654 0.54 1.101t1.381 0.447q0.866 0 1.366-0.434t0.5-1.113q0-0.533-0.294-0.867c-0.197-0.221-0.443-0.394-0.721-0.502l-0.013-0.004q-0.44-0.173-1.187-0.373-0.92-0.24-1.474-0.48t-0.947-0.753-0.393-1.38q0-0.761 0.387-1.347t1.087-0.907 1.607-0.32q1.307 0 2.141 0.653t0.94 1.734h-1.334q-0.067-0.534-0.56-0.94t-1.307-0.407q-0.761 0-1.24 0.394t-0.48 1.1q0 0.507 0.287 0.827c0.191 0.211 0.427 0.377 0.694 0.482l0.013 0.004q0.421 0.167 1.18 0.381 0.92 0.253 1.481 0.5t0.96 0.761 0.4 1.394q0 0.68-0.36 1.28t-1.067 0.974-1.667 0.373q-0.921-0.001-1.647-0.328z"></path>
<path d="M53.238 18.927v9.296h-1.214v-4.214h-4.735v4.214h-1.214v-9.296h1.213v4.082h4.735v-4.082z"></path>
<path d="M14.135 31.983l-0.414-0.71h-0.274v0.71h-0.227v-1.738h0.561c0.131 0 0.242 0.022 0.333 0.067 0.085 0.040 0.154 0.103 0.202 0.18l0.001 0.002c0.042 0.072 0.068 0.159 0.068 0.252 0 0.003-0 0.007-0 0.010v-0c0 0.002 0 0.005 0 0.008 0 0.117-0.039 0.224-0.105 0.31l0.001-0.001c-0.069 0.092-0.173 0.152-0.31 0.182l0.437 0.728zM13.447 31.090h0.334c0.123 0 0.215-0.030 0.277-0.091s0.093-0.142 0.093-0.243-0.030-0.183-0.091-0.239-0.153-0.085-0.278-0.085h-0.334z"></path>
<path d="M17.206 30.429v0.581h0.634v0.187h-0.634v0.598h0.709v0.187h-0.936v-1.74h0.935v0.187z"></path>
<path d="M21.571 30.245v0.184h-0.474v1.553h-0.227v-1.553h-0.476v-0.184z"></path>
<path d="M25.008 31.983l-0.413-0.71h-0.275v0.71h-0.227v-1.738h0.561q0.197 0 0.333 0.067c0.085 0.040 0.154 0.102 0.202 0.18l0.001 0.002c0.042 0.072 0.068 0.159 0.068 0.252 0 0.003-0 0.007-0 0.010v-0c0 0.002 0 0.005 0 0.008 0 0.117-0.039 0.224-0.105 0.31l0.001-0.001c-0.069 0.092-0.173 0.152-0.311 0.182l0.437 0.728zM24.32 31.090h0.334c0.123 0 0.215-0.030 0.277-0.091s0.093-0.142 0.093-0.243-0.030-0.183-0.091-0.239-0.153-0.085-0.278-0.085h-0.334z"></path>
<path d="M28.079 30.429v0.581h0.634v0.187h-0.634v0.598h0.709v0.187h-0.935v-1.74h0.935v0.187z"></path>
<path d="M32.401 31.596h-0.758l-0.14 0.386h-0.239l0.628-1.728h0.262l0.626 1.728h-0.239zM32.336 31.412l-0.314-0.878-0.315 0.878z"></path>
<path d="M36.367 30.245v0.184h-0.474v1.553h-0.227v-1.553h-0.476v-0.184z"></path>
<path d="M39.132 31.939c-0.087-0.038-0.159-0.095-0.212-0.168l-0.001-0.001c-0.050-0.070-0.080-0.157-0.080-0.251 0 0 0-0 0-0v0h0.242c0.008 0.082 0.045 0.154 0.101 0.206l0 0q0.088 0.083 0.258 0.084 0.162 0 0.256-0.081c0.057-0.049 0.093-0.121 0.093-0.201 0-0.002-0-0.005-0-0.007v0c0-0.003 0-0.007 0-0.011 0-0.058-0.021-0.111-0.055-0.152l0 0c-0.037-0.041-0.083-0.073-0.135-0.094l-0.002-0.001c-0.057-0.022-0.131-0.046-0.206-0.066l-0.016-0.003c-0.108-0.026-0.2-0.057-0.288-0.094l0.013 0.005c-0.072-0.032-0.131-0.080-0.176-0.14l-0.001-0.001q-0.074-0.096-0.074-0.258c-0-0.002-0-0.005-0-0.008 0-0.091 0.027-0.175 0.073-0.245l-0.001 0.002c0.050-0.074 0.119-0.133 0.2-0.169l0.003-0.001c0.084-0.038 0.183-0.060 0.286-0.060 0.005 0 0.010 0 0.015 0h-0.001q0.244 0 0.4 0.122c0.099 0.077 0.165 0.192 0.176 0.323l0 0.002h-0.249q-0.013-0.1-0.105-0.176c-0.062-0.051-0.143-0.076-0.244-0.076-0.095 0-0.173 0.024-0.232 0.073s-0.090 0.118-0.090 0.206c-0 0.003-0 0.006-0 0.009 0 0.056 0.020 0.107 0.054 0.146l-0-0c0.036 0.039 0.080 0.070 0.13 0.090l0.002 0.001c0.056 0.022 0.13 0.047 0.205 0.067l0.016 0.004c0.11 0.029 0.202 0.061 0.291 0.099l-0.014-0.005c0.072 0.033 0.133 0.081 0.179 0.141l0.001 0.001q0.075 0.095 0.075 0.26c0 0 0 0.001 0 0.001 0 0.088-0.025 0.17-0.068 0.24l0.001-0.002c-0.049 0.078-0.116 0.14-0.196 0.181l-0.003 0.001c-0.086 0.044-0.187 0.069-0.294 0.069-0.006 0-0.012-0-0.018-0l0.001 0c-0.004 0-0.008 0-0.012 0-0.107 0-0.209-0.023-0.301-0.064l0.005 0.002z"></path>
</symbol>
<symbol id="icon-logo-no-words-sm" viewBox="0 0 28 32">
<path d="M27.466 9.637l-0.063-0.515-0.518 0.013c-2.751 0.081-5.282 0.96-7.386 2.412l0.046-0.030-0.525 0.357 0.013-0.739c0.003-0.059 0.003-0.118 0.003-0.177 0-4.141-1.834-8.026-5.037-10.661l-0.365-0.298-0.361 0.299c-3.017 2.494-4.949 6.209-5.030 10.378l-0 0.014-0.013 0.554-0.479-0.279c-1.972-1.155-4.342-1.837-6.872-1.837-0.004 0-0.009 0-0.013 0h0.001c-0.079 0-0.151 0-0.233 0.003l-0.472 0.029-0.059 0.469c-0.065 0.487-0.102 1.049-0.102 1.62 0 0.011 0 0.022 0 0.033v-0.002c0 5.66 3.55 10.832 8.833 12.863l0.161 0.059c1.3 0.5 2.803 0.807 4.373 0.846l0.017 0 0.282 0.010v0.010l0.525-0.016c1.537-0.046 2.993-0.336 4.349-0.831l-0.096 0.031 0.154-0.053c5.362-2.008 8.965-7.199 8.965-12.918 0-0.002 0-0.004 0-0.006 0-0.577-0.035-1.146-0.104-1.705l0.007 0.067zM13.493 23.596l-0.020 0.325-0.325-0.013c-1.419-0.071-2.749-0.367-3.983-0.853l0.085 0.030-0.108-0.043c-4.789-1.89-8.004-6.615-8.004-11.76q0-0.345 0.020-0.689l0.016-0.325 0.328 0.016c2.671 0.132 5.098 1.079 7.064 2.594l-0.029-0.022c0.164 0.125 0.325 0.257 0.479 0.389 2.282 1.926 3.863 4.619 4.342 7.678l0.009 0.071c0.026 0.174 0.049 0.348 0.069 0.532 0.048 0.41 0.075 0.884 0.075 1.365 0 0.006 0 0.011 0 0.017v-0.001q0 0.349-0.020 0.689zM14.422 17.972l-0.033 0.082-0.308 0.82-0.308-0.82-0.053-0.132c-0.075-0.197-0.158-0.39-0.239-0.58l-0.089-0.2c-0.114-0.253-0.237-0.495-0.357-0.722l-0.063-0.114c-0.111-0.2-0.226-0.4-0.348-0.597-0.042-0.066-0.082-0.135-0.125-0.201-0.121-0.19-0.249-0.377-0.381-0.564l-0.082-0.118c-0.151-0.21-0.318-0.426-0.495-0.64l-0.135-0.158c-0.138-0.164-0.279-0.325-0.426-0.479l-0.151-0.164c-0.213-0.223-0.407-0.413-0.588-0.58l-0.036-0.034c-0.18-0.164-0.374-0.331-0.594-0.512l-0.079-0.065-0.108-0.089-0.013-0.141c-0.026-0.325-0.040-0.663-0.040-1.004 0.005-3.656 1.556-6.949 4.033-9.262l0.007-0.007 0.223-0.207 0.227 0.207c2.484 2.32 4.033 5.614 4.037 9.269v0.001c0 0.004 0 0.009 0 0.014 0 0.668-0.051 1.324-0.15 1.964l0.009-0.071-0.017 0.112-0.079 0.075-0.066 0.069c-0.138 0.138-0.273 0.272-0.4 0.413l-0.082 0.082q-0.226 0.251-0.443 0.512l-0.112 0.141c-0.108 0.132-0.213 0.266-0.335 0.427l-0.103 0.138c-0.125 0.174-0.249 0.348-0.364 0.525l-0.020 0.030c-0.121 0.187-0.239 0.377-0.351 0.571l-0.095 0.167c-0.085 0.148-0.164 0.299-0.242 0.449l-0.085 0.161c-0.102 0.2-0.197 0.404-0.298 0.633l-0.017 0.039q-0.117 0.282-0.226 0.563zM18.32 23.085l-0.121 0.046c-0.926 0.355-2.002 0.612-3.12 0.724l-0.053 0.004-0.341 0.036-0.020-0.343c-0.010-0.217-0.013-0.43-0.013-0.643-0-0.016-0-0.034-0-0.053 0-0.432 0.024-0.859 0.070-1.279l-0.005 0.052c0.030-0.312 0.069-0.62 0.121-0.923 0.059-0.338 0.135-0.676 0.22-1.001 1.363-5.070 5.672-8.834 10.936-9.37l0.054-0.004 0.341-0.033 0.020 0.341c0.009 0.217 0.016 0.43 0.016 0.643 0 5.188-3.255 9.932-8.105 11.803z"></path>
<path d="M8.102 4.955h-6.983l1.352 2.884c0.446 0.049 0.899 0.115 1.352 0.203l-0.912-1.948h4.755c0.131-0.382 0.276-0.763 0.436-1.14zM15.16 26.369l-1.378 2.947-1.378-2.947c-0.453-0.040-0.899-0.098-1.342-0.18l2.72 5.811 2.72-5.811c-0.443 0.082-0.892 0.141-1.342 0.18zM19.177 4.955c0.163 0.377 0.308 0.761 0.436 1.14h5.037l-0.983 2.102c0.463-0.115 0.929-0.207 1.388-0.275l1.388-2.966z"></path>
</symbol>
<symbol id="icon-rarr-circle" viewBox="0 0 20 20">
<path d="M10 0.4c-5.303 0-9.601 4.298-9.601 9.6 0 5.303 4.298 9.601 9.601 9.601 5.301 0 9.6-4.298 9.6-9.601s-4.299-9.6-9.6-9.6zM9.999 17.6c-4.197 0-7.6-3.402-7.6-7.6s3.402-7.6 7.6-7.6 7.601 3.403 7.601 7.6-3.404 7.6-7.601 7.6zM10 8h-4v4h4v2.5l4.5-4.5-4.5-4.5v2.5z"></path>
</symbol>
<symbol id="icon-rarr-triangle" viewBox="0 0 20 20">
<path d="M15 10l-9 5v-10l9 5z"></path>
</symbol>
<symbol id="icon-cross" viewBox="0 0 20 20">
<path d="M14.348 14.849c-0.469 0.469-1.229 0.469-1.697 0l-2.651-3.030-2.651 3.029c-0.469 0.469-1.229 0.469-1.697 0-0.469-0.469-0.469-1.229 0-1.697l2.758-3.15-2.759-3.152c-0.469-0.469-0.469-1.228 0-1.697s1.228-0.469 1.697 0l2.652 3.031 2.651-3.031c0.469-0.469 1.228-0.469 1.697 0s0.469 1.229 0 1.697l-2.758 3.152 2.758 3.15c0.469 0.469 0.469 1.229 0 1.698z"></path>
</symbol>
<symbol id="icon-location-pin" viewBox="0 0 20 20">
<path d="M10 2.009c-2.762 0-5 2.229-5 4.99 0 4.774 5 11 5 11s5-6.227 5-11c0-2.76-2.238-4.99-5-4.99zM10 9.76c-1.492 0-2.7-1.209-2.7-2.7s1.208-2.7 2.7-2.7c1.49 0 2.699 1.209 2.699 2.7s-1.209 2.7-2.699 2.7z"></path>
</symbol>
<symbol id="icon-map" viewBox="0 0 20 20">
<path d="M19.447 3.718l-6-3c-0.281-0.141-0.613-0.141-0.895 0l-5.63 2.815-5.606-1.869c-0.306-0.102-0.64-0.051-0.901 0.138s-0.415 0.49-0.415 0.811v13.001c0 0.379 0.214 0.725 0.553 0.894l6 3c0.141 0.070 0.294 0.106 0.447 0.106s0.307-0.035 0.447-0.106l5.63-2.814 5.606 1.869c0.305 0.1 0.64 0.049 0.901-0.139s0.415-0.49 0.415-0.81v-13.002c0.001-0.379-0.213-0.725-0.552-0.894zM8 5.231l4-2v11.763l-4 2v-11.763zM2 4l4 1.333v11.661l-4-2v-10.994zM18 16.227l-4-1.334v-11.662l4 2v10.996z"></path>
</symbol>
<symbol id="icon-star" viewBox="0 0 20 20">
<path d="M10 1.3l2.388 6.722h6.412l-5.232 3.948 1.871 6.928-5.439-4.154-5.438 4.154 1.87-6.928-5.233-3.948h6.412l2.389-6.722z"></path>
</symbol>
<symbol id="icon-coin-dollar" viewBox="0 0 32 32">
<path d="M15 2c-8.284 0-15 6.716-15 15s6.716 15 15 15c8.284 0 15-6.716 15-15s-6.716-15-15-15zM15 29c-6.627 0-12-5.373-12-12s5.373-12 12-12c6.627 0 12 5.373 12 12s-5.373 12-12 12zM16 16v-4h4v-2h-4v-2h-2v2h-4v8h4v4h-4v2h4v2h2v-2h4l-0-8h-4zM14 16h-2v-4h2v4zM18 22h-2v-4h2v4z"></path>
</symbol>
<symbol id="icon-clock" viewBox="0 0 32 32">
<path d="M20.586 23.414l-6.586-6.586v-8.828h4v7.172l5.414 5.414zM16 0c-8.837 0-16 7.163-16 16s7.163 16 16 16 16-7.163 16-16-7.163-16-16-16zM16 28c-6.627 0-12-5.373-12-12s5.373-12 12-12c6.627 0 12 5.373 12 12s-5.373 12-12 12z"></path>
</symbol>
<symbol id="icon-calendar" viewBox="0 0 32 32">
<path d="M10 12h4v4h-4zM16 12h4v4h-4zM22 12h4v4h-4zM4 24h4v4h-4zM10 24h4v4h-4zM16 24h4v4h-4zM10 18h4v4h-4zM16 18h4v4h-4zM22 18h4v4h-4zM4 18h4v4h-4zM26 0v2h-4v-2h-14v2h-4v-2h-4v32h30v-32h-4zM28 30h-26v-22h26v22z"></path>
</symbol>
<symbol id="icon-quotes-left" viewBox="0 0 32 32">
<path d="M7.031 14c3.866 0 7 3.134 7 7s-3.134 7-7 7-7-3.134-7-7l-0.031-1c0-7.732 6.268-14 14-14v4c-2.671 0-5.182 1.040-7.071 2.929-0.364 0.364-0.695 0.751-0.995 1.157 0.357-0.056 0.724-0.086 1.097-0.086zM25.031 14c3.866 0 7 3.134 7 7s-3.134 7-7 7-7-3.134-7-7l-0.031-1c0-7.732 6.268-14 14-14v4c-2.671 0-5.182 1.040-7.071 2.929-0.364 0.364-0.695 0.751-0.995 1.157 0.358-0.056 0.724-0.086 1.097-0.086z"></path>
</symbol>
<symbol id="icon-quotes-right" viewBox="0 0 32 32">
<path d="M25 20c-3.866 0-7-3.134-7-7s3.134-7 7-7 7 3.134 7 7l0.031 1c0 7.732-6.268 14-14 14v-4c2.671 0 5.182-1.040 7.071-2.929 0.364-0.364 0.695-0.75 0.995-1.157-0.357 0.056-0.724 0.086-1.097 0.086zM7 20c-3.866 0-7-3.134-7-7s3.134-7 7-7 7 3.134 7 7l0.031 1c0 7.732-6.268 14-14 14v-4c2.671 0 5.182-1.040 7.071-2.929 0.364-0.364 0.695-0.75 0.995-1.157-0.357 0.056-0.724 0.086-1.097 0.086z"></path>
</symbol>
<symbol id="icon-fb" viewBox="0 0 32 32">
<path d="M29 0h-26c-1.65 0-3 1.35-3 3v26c0 1.65 1.35 3 3 3h13v-14h-4v-4h4v-2c0-3.306 2.694-6 6-6h4v4h-4c-1.1 0-2 0.9-2 2v2h6l-1 4h-5v14h9c1.65 0 3-1.35 3-3v-26c0-1.65-1.35-3-3-3z"></path>
</symbol>
<symbol id="icon-ig" viewBox="0 0 32 32">
<path d="M16 2.881c4.275 0 4.781 0.019 6.462 0.094 1.563 0.069 2.406 0.331 2.969 0.55 0.744 0.288 1.281 0.638 1.837 1.194 0.563 0.563 0.906 1.094 1.2 1.838 0.219 0.563 0.481 1.412 0.55 2.969 0.075 1.688 0.094 2.194 0.094 6.463s-0.019 4.781-0.094 6.463c-0.069 1.563-0.331 2.406-0.55 2.969-0.288 0.744-0.637 1.281-1.194 1.837-0.563 0.563-1.094 0.906-1.837 1.2-0.563 0.219-1.413 0.481-2.969 0.55-1.688 0.075-2.194 0.094-6.463 0.094s-4.781-0.019-6.463-0.094c-1.563-0.069-2.406-0.331-2.969-0.55-0.744-0.288-1.281-0.637-1.838-1.194-0.563-0.563-0.906-1.094-1.2-1.837-0.219-0.563-0.481-1.413-0.55-2.969-0.075-1.688-0.094-2.194-0.094-6.463s0.019-4.781 0.094-6.463c0.069-1.563 0.331-2.406 0.55-2.969 0.288-0.744 0.638-1.281 1.194-1.838 0.563-0.563 1.094-0.906 1.838-1.2 0.563-0.219 1.412-0.481 2.969-0.55 1.681-0.075 2.188-0.094 6.463-0.094zM16 0c-4.344 0-4.887 0.019-6.594 0.094-1.7 0.075-2.869 0.35-3.881 0.744-1.056 0.412-1.95 0.956-2.837 1.85-0.894 0.888-1.438 1.781-1.85 2.831-0.394 1.019-0.669 2.181-0.744 3.881-0.075 1.713-0.094 2.256-0.094 6.6s0.019 4.887 0.094 6.594c0.075 1.7 0.35 2.869 0.744 3.881 0.413 1.056 0.956 1.95 1.85 2.837 0.887 0.887 1.781 1.438 2.831 1.844 1.019 0.394 2.181 0.669 3.881 0.744 1.706 0.075 2.25 0.094 6.594 0.094s4.888-0.019 6.594-0.094c1.7-0.075 2.869-0.35 3.881-0.744 1.050-0.406 1.944-0.956 2.831-1.844s1.438-1.781 1.844-2.831c0.394-1.019 0.669-2.181 0.744-3.881 0.075-1.706 0.094-2.25 0.094-6.594s-0.019-4.887-0.094-6.594c-0.075-1.7-0.35-2.869-0.744-3.881-0.394-1.063-0.938-1.956-1.831-2.844-0.887-0.887-1.781-1.438-2.831-1.844-1.019-0.394-2.181-0.669-3.881-0.744-1.712-0.081-2.256-0.1-6.6-0.1v0z"></path>
<path d="M16 7.781c-4.537 0-8.219 3.681-8.219 8.219s3.681 8.219 8.219 8.219 8.219-3.681 8.219-8.219c0-4.537-3.681-8.219-8.219-8.219zM16 21.331c-2.944 0-5.331-2.387-5.331-5.331s2.387-5.331 5.331-5.331c2.944 0 5.331 2.387 5.331 5.331s-2.387 5.331-5.331 5.331z"></path>
<path d="M26.462 7.456c0 1.060-0.859 1.919-1.919 1.919s-1.919-0.859-1.919-1.919c0-1.060 0.859-1.919 1.919-1.919s1.919 0.859 1.919 1.919z"></path>
</symbol>
</defs>
</svg>
