<!-- Generated by IcoMoon.io -->
<svg version="1.1" xmlns="http://www.w3.org/2000/svg" width="112" height="32" viewBox="0 0 112 32">
<title>accenture</title>
<path d="M8.14 25.233c0 1.867-0.767 4.377-3.031 4.377-1.135 0-1.803-0.585-1.803-1.747 0.001-2.194 3.215-2.629 4.835-2.629zM11.387 31.659v-10.373c0-3.363-2.207-4.525-5.299-4.525-3.024 0-5.542 1.285-5.542 4.621h3.312c0-1.441 0.766-2.233 2.23-2.233 1.68 0 2.051 1.219 2.051 2.659v1.439c-3.305 0.091-8.14 0.552-8.14 4.928 0 2.478 1.96 3.824 4.283 3.824 1.593 0 3.061-0.521 3.798-2.021h0.059v1.682h3.247zM21.457 22.083h3.611c0-3.581-1.985-5.323-5.539-5.323-4.368 0-6.671 2.75-6.671 6.971 0 5.080 2.602 8.267 7.801 8.267 1.441 0 2.877-0.242 4.256-0.674v-2.080c-0.798 0.274-1.624 0.365-2.444 0.365-3.864 0-6.002-2.815-6.002-6.485 0-1.743 0.642-3.976 2.786-3.976 1.774 0 2.202 1.437 2.202 2.934zM34.506 22.083h3.615c0-3.581-1.993-5.323-5.541-5.323-4.375 0-6.671 2.75-6.671 6.971 0 5.080 2.599 8.267 7.802 8.267 1.437 0 2.879-0.242 4.252-0.674v-2.080c-0.793 0.274-1.621 0.365-2.447 0.365-3.854 0-6.002-2.815-6.002-6.485 0-1.743 0.648-3.976 2.788-3.976 1.774 0 2.203 1.437 2.203 2.934zM47.821 21.439h-5.324c0.155-1.47 1.283-2.514 2.74-2.514 1.567 0 2.584 0.955 2.584 2.514zM51.034 23.494v-0.83c0-3.549-1.836-5.904-5.539-5.904-4.342 0-6.246 2.723-6.246 6.854 0 4.799 2.172 8.384 7.342 8.384 1.379 0 2.763-0.151 4.067-0.582v-2.355c-0.858 0.304-1.861 0.547-2.779 0.547-3.303 0-5.482-3.026-5.482-6.115h8.637zM61.099 31.659h3.404v-10.096c0-2.506-1.174-4.802-3.954-4.802-2.081 0-3.546 1.197-4.314 3.058h-0.060v-2.729h-3.403v14.572h3.403v-6.302c0-1.962 0.98-5.416 3.419-5.416 0.349 0 0.734 0.028 0.987 0.278 0.574 0.548 0.518 2.413 0.518 3.119v8.321zM71.56 19.451h4.327v-2.363h-4.327v-4.828l-3.382 1.376v3.452h-2.85v2.363h2.85v8.535c0 3.032 1.484 4.012 4.462 4.012 0.922 0 1.863-0.088 2.776-0.242v-2.391c-0.512 0.126-1.029 0.243-1.558 0.243-2.117 0-2.298-1.56-2.298-3.276v-6.88zM85.714 31.659h3.397v-14.571h-3.397v6.306c0 1.962-0.98 5.417-3.433 5.417-0.332 0-0.736-0.024-0.98-0.271-0.584-0.553-0.518-2.421-0.518-3.121v-8.332h-3.392v10.106c0 2.511 1.153 4.805 3.944 4.805 2.056 0 3.553-1.227 4.321-3.057h0.058v2.717zM94.651 25.266c0-3.428 1.284-4.955 4.769-4.955v-3.552c-2.443 0-3.582 1.011-4.711 3.024h-0.058v-2.696h-3.403v14.572h3.403v-6.393zM108.676 21.439h-5.326c0.154-1.47 1.285-2.514 2.75-2.514 1.566 0 2.576 0.955 2.576 2.514zM111.888 23.494v-0.83c0-3.549-1.834-5.904-5.54-5.904-4.344 0-6.242 2.723-6.242 6.854 0 4.799 2.173 8.384 7.34 8.384 1.379 0 2.758-0.151 4.073-0.582v-2.355c-0.856 0.304-1.866 0.547-2.778 0.547-3.314 0-5.486-3.026-5.486-6.115h8.632z"></path>
<path d="M65.324 0.001v2.396s6.783 2.629 7.754 3.007c-0.971 0.372-7.754 2.988-7.754 2.988v2.392l10.565-4.292v-2.196l-10.565-4.294z"></path>
</svg>
