<!-- Generated by IcoMoon.io -->
<svg version="1.1" xmlns="http://www.w3.org/2000/svg" width="38" height="32" viewBox="0 0 38 32">
<title>hummingbird</title>
<path d="M3.638 1.273c-0.501 0.403-1.023 1.085-1.197 1.544-0.174 0.466-0.195 1.176-0.042 1.677 0.216 0.723 1.016 1.69 2.031 2.442 0.675 0.494 0.675 0.543 0.007 0.202-0.501-0.257-0.835-0.466-1.043-0.654-0.25-0.23-0.243-0.139 0.014 0.271 0.612 0.946 1.391 1.357 3.374 1.774 0.925 0.195 1.621 0.445 1.969 0.703 0.125 0.097 0.25 0.16 0.264 0.139 0.097-0.097-0.612-1.134-1.050-1.544-0.89-0.835-1.683-1.391-3.005-2.129-1.113-0.619-1.579-0.974-1.871-1.419-0.612-0.932-0.438-1.837 0.55-2.873 0.23-0.237 0.403-0.431 0.39-0.431-0.014 0.007-0.188 0.139-0.39 0.299z"></path>
<path d="M10.205 6.087c-0.424 0.118-0.765 0.348-0.995 0.675-0.195 0.278-0.376 0.814-0.376 1.092l0.007 0.181 0.097-0.209 0.090-0.209 0.014 0.209 0.007 0.209 0.090-0.243c0.264-0.696 0.424-0.918 0.786-1.106 0.237-0.118 0.786-0.090 1.127 0.063 0.348 0.16 0.515 0.174 0.849 0.063 0.355-0.118 0.39-0.181 0.202-0.376-0.369-0.39-1.197-0.543-1.899-0.348z"></path>
<path d="M13.774 6.358c-1.273 0.445-2.066 0.918-2.817 1.67-0.577 0.577-0.883 1.127-1.043 1.85-0.139 0.64-0.348 1.447-0.41 1.635-0.111 0.285 0.264-0.334 0.424-0.717l0.167-0.397-0.035 0.334c-0.056 0.48-0.41 1.266-0.807 1.795-0.327 0.431-1.085 1.12-1.447 1.308-0.299 0.16-0.097 0.16 0.313 0.007 0.87-0.32 1.363-0.64 1.969-1.245 0.675-0.675 0.89-1.016 1.148-1.767 0.223-0.661 0.216-0.89-0.007-0.431l-0.167 0.348 0.035-0.647c0.063-1.085 0.39-1.837 1.113-2.56 0.397-0.39 0.744-0.605 1.704-1.050 0.904-0.417 0.842-0.48-0.139-0.132z"></path>
<path d="M11.416 9.92c0 0.077 0.021 0.097 0.042 0.042 0.021-0.049 0.014-0.111-0.007-0.132-0.021-0.028-0.042 0.014-0.035 0.090z"></path>
<path d="M7.722 11.694c-0.257 0.271-0.515 0.48-0.584 0.48-0.118 0-0.104-0.035 0.090-0.223 0.397-0.39 0.397-0.529 0-0.188-0.209 0.174-0.612 0.494-0.897 0.703-0.689 0.515-0.988 0.807-1.517 1.51-0.925 1.238-1.405 2.637-1.405 4.063 0 1.19 0.306 2.101 1.078 3.283 0.953 1.433 1.92 2.4 3.339 3.311 0.633 0.41 1.843 1.057 1.892 1.016 0.021-0.021-0.014-0.209-0.077-0.41-0.083-0.285-0.153-0.397-0.334-0.501-0.125-0.077-0.598-0.376-1.043-0.675-2.261-1.489-3.485-2.901-4.035-4.654-0.139-0.452-0.16-0.661-0.153-1.565 0-0.96 0.014-1.092 0.195-1.6 0.543-1.558 1.141-2.372 2.56-3.492 0.598-0.473 1.085-0.995 1.28-1.363 0.056-0.104 0.090-0.188 0.083-0.181-0.014 0-0.223 0.223-0.473 0.487z"></path>
<path d="M13.878 12.87c-0.111 0.028-0.153 0.056-0.083 0.063 0.167 0.007 0.153 0.111-0.16 1.294-0.153 0.57-0.278 1.064-0.278 1.092 0 0.035 0.077 0.056 0.167 0.056 0.132 0 0.181-0.049 0.216-0.23 0.118-0.536 0.717-1.343 0.877-1.183 0.035 0.035-0.021 0.334-0.111 0.675-0.125 0.466-0.153 0.647-0.097 0.717 0.118 0.139 0.243 0.111 0.487-0.104l0.216-0.195 0.209 0.202c0.167 0.174 0.237 0.202 0.445 0.167 0.237-0.042 0.765-0.376 0.703-0.438-0.021-0.021-0.174 0.035-0.348 0.118-0.313 0.153-0.327 0.153-0.466 0.028-0.237-0.216-0.153-0.39 0.264-0.522 0.48-0.16 0.723-0.383 0.696-0.654-0.063-0.598-1.176-0.104-1.398 0.619-0.070 0.237-0.348 0.584-0.473 0.591-0.021 0 0.035-0.271 0.132-0.605 0.188-0.661 0.167-0.807-0.146-0.842-0.125-0.014-0.257 0.049-0.459 0.23l-0.271 0.25 0.090-0.403c0.056-0.223 0.125-0.494 0.167-0.598 0.153-0.397 0.090-0.445-0.376-0.327zM16.348 13.941c0 0.139-0.271 0.417-0.501 0.515-0.271 0.111-0.257-0.049 0.021-0.369 0.223-0.25 0.48-0.327 0.48-0.146z"></path>
<path d="M11.478 13.155c-0.042 0.16-0.063 0.299-0.042 0.32s0.132-0.056 0.243-0.181c0.139-0.153 0.264-0.216 0.417-0.216 0.125 0 0.216 0.035 0.216 0.083 0 0.083-0.292 1.183-0.452 1.69-0.049 0.153-0.153 0.313-0.237 0.355-0.285 0.146-0.237 0.167 0.369 0.167 0.39 0 0.591-0.028 0.563-0.070-0.021-0.042-0.104-0.070-0.181-0.070s-0.132-0.049-0.132-0.118c0-0.090 0.271-1.141 0.48-1.83 0.035-0.118 0.111-0.181 0.243-0.195 0.237-0.028 0.39 0.090 0.39 0.313 0 0.216 0.111 0.153 0.16-0.097 0.021-0.111 0.063-0.25 0.083-0.32 0.049-0.111-0.028-0.118-1.002-0.118h-1.043l-0.077 0.285z"></path>
<path d="M28.508 16.049c-0.202 0.028-0.271 0.16-0.090 0.16 0.146 0 0.139 0.035-0.174 1.217s-0.306 1.224 0.216 1.231c0.501 0.007 1.037-0.424 1.183-0.96 0.188-0.668-0.327-1.016-0.821-0.563-0.153 0.139-0.16 0.139-0.16 0.007 0-0.070 0.063-0.355 0.139-0.619s0.139-0.494 0.139-0.501c0-0.021-0.167-0.014-0.431 0.028zM29.322 17.322c0.118 0.383-0.39 1.176-0.765 1.203-0.195 0.014-0.209 0-0.188-0.23 0.007-0.132 0.104-0.417 0.209-0.626 0.257-0.515 0.633-0.689 0.744-0.348z"></path>
<path d="M34.678 16.070c-0.202 0.056-0.202 0.056-0.049 0.104 0.090 0.028 0.146 0.090 0.125 0.146-0.021 0.049-0.070 0.216-0.111 0.376-0.070 0.257-0.097 0.285-0.243 0.25-0.508-0.125-1.217 0.612-1.217 1.266 0 0.167 0.042 0.313 0.111 0.362 0.16 0.139 0.494 0.111 0.675-0.056 0.202-0.195 0.243-0.188 0.271 0 0.014 0.090 0.070 0.167 0.132 0.181 0.132 0.021 0.591-0.383 0.522-0.459-0.028-0.028-0.083 0.007-0.118 0.077-0.090 0.16-0.292 0.16-0.243-0.007 0.083-0.264 0.515-1.871 0.563-2.087 0.049-0.243 0.007-0.264-0.417-0.153zM34.442 17.162c0.028 0.41-0.16 0.932-0.41 1.155-0.077 0.070-0.216 0.118-0.306 0.104-0.139-0.021-0.16-0.056-0.146-0.32 0.014-0.32 0.285-0.863 0.494-0.981 0.188-0.111 0.362-0.090 0.369 0.042z"></path>
<path d="M11.603 16.188c0.195 0.042 0.202 0.257 0.021 0.863-0.070 0.243-0.195 0.675-0.278 0.946-0.097 0.334-0.188 0.508-0.25 0.508-0.056 0-0.104 0.028-0.104 0.070s0.209 0.070 0.494 0.070c0.306 0 0.473-0.028 0.445-0.070-0.021-0.042-0.090-0.070-0.146-0.070-0.125 0-0.125-0.125 0.021-0.668l0.118-0.445h0.508c0.584 0 0.577-0.007 0.383 0.626-0.083 0.25-0.174 0.41-0.278 0.459-0.292 0.146-0.243 0.167 0.32 0.167 0.334 0 0.57-0.028 0.57-0.070s-0.063-0.070-0.139-0.070c-0.181 0-0.174-0.083 0.042-0.897 0.299-1.127 0.376-1.336 0.543-1.398 0.097-0.042-0.035-0.056-0.41-0.056-0.306 0-0.48 0.021-0.39 0.035 0.146 0.028 0.16 0.056 0.125 0.327-0.028 0.16-0.077 0.376-0.111 0.48-0.070 0.181-0.090 0.188-0.591 0.188h-0.522l0.111-0.369c0.146-0.494 0.202-0.591 0.383-0.626 0.090-0.014-0.104-0.028-0.431-0.028s-0.522 0.014-0.431 0.028z"></path>
<path d="M22.957 16.306c0 0.202 0.167 0.278 0.306 0.139s0.063-0.306-0.139-0.306c-0.132 0-0.167 0.035-0.167 0.167z"></path>
<path d="M30.748 16.306c0 0.202 0.077 0.271 0.243 0.209 0.167-0.070 0.104-0.334-0.083-0.362-0.132-0.021-0.16 0.007-0.16 0.153z"></path>
<path d="M14.553 16.981c-0.257 0.056-0.376 0.132-0.202 0.132 0.146 0 0.146-0.007-0.021 0.626-0.077 0.285-0.139 0.605-0.139 0.71 0 0.167 0.028 0.195 0.209 0.195 0.146 0 0.278-0.077 0.487-0.299l0.292-0.292-0.014 0.209c-0.021 0.348-0.007 0.383 0.167 0.383 0.167 0 0.577-0.397 0.494-0.48-0.028-0.021-0.104 0.035-0.174 0.132-0.216 0.285-0.23 0.111-0.042-0.577 0.216-0.786 0.216-0.744 0.049-0.744-0.090 0-0.195 0.139-0.369 0.501-0.243 0.508-0.57 0.96-0.689 0.96-0.097 0-0.077-0.195 0.083-0.821 0.077-0.313 0.132-0.598 0.118-0.626-0.014-0.035-0.125-0.035-0.25-0.007z"></path>
<path d="M16.744 16.974c-0.278 0.049-0.424 0.139-0.237 0.139 0.16 0 0.146 0.132-0.056 0.828-0.209 0.717-0.209 0.703-0.014 0.703 0.125 0 0.174-0.070 0.271-0.41 0.132-0.438 0.508-1.002 0.703-1.037 0.16-0.035 0.153 0.063-0.049 0.814l-0.174 0.633h0.167c0.125 0 0.174-0.049 0.209-0.23 0.111-0.529 0.696-1.357 0.849-1.203 0.021 0.021-0.028 0.32-0.111 0.668s-0.132 0.661-0.111 0.696c0.083 0.132 0.362 0.070 0.557-0.139 0.111-0.111 0.174-0.23 0.146-0.257s-0.111 0.021-0.181 0.118c-0.209 0.278-0.243 0.111-0.077-0.431 0.174-0.591 0.181-0.772 0.049-0.883-0.125-0.104-0.306-0.035-0.577 0.223l-0.23 0.216v-0.181c0-0.216-0.146-0.355-0.32-0.292-0.077 0.028-0.25 0.16-0.403 0.299-0.278 0.264-0.278 0.271-0.139-0.202 0.021-0.077 0.028-0.132 0.014-0.132-0.014 0.007-0.139 0.035-0.285 0.063z"></path>
<path d="M19.687 16.988c-0.271 0.063-0.292 0.083-0.16 0.132s0.139 0.077 0.083 0.355c-0.042 0.167-0.118 0.431-0.174 0.598-0.139 0.417-0.125 0.57 0.042 0.57 0.090 0 0.153-0.063 0.181-0.195 0.146-0.57 0.605-1.266 0.842-1.266 0.118 0 0.118 0.007-0.083 0.73-0.209 0.758-0.209 0.744-0.028 0.717 0.111-0.014 0.188-0.132 0.306-0.452 0.216-0.598 0.626-1.12 0.772-0.974 0.021 0.014-0.028 0.285-0.104 0.591-0.202 0.765-0.195 0.849 0.049 0.849 0.209 0 0.501-0.243 0.501-0.417 0-0.063-0.063-0.035-0.174 0.070-0.216 0.202-0.216 0.146-0.035-0.584 0.167-0.668 0.167-0.647 0-0.737-0.174-0.090-0.376 0-0.64 0.306l-0.188 0.216 0.035-0.223c0.035-0.174 0.014-0.23-0.104-0.292-0.181-0.104-0.383-0.014-0.654 0.299l-0.195 0.216 0.042-0.299c0.028-0.16 0.035-0.292 0.021-0.285-0.007 0.007-0.16 0.042-0.334 0.077z"></path>
<path d="M22.922 16.96c-0.348 0.035-0.438 0.090-0.271 0.153l0.146 0.056-0.167 0.64c-0.097 0.348-0.153 0.682-0.132 0.737 0.056 0.153 0.348 0.118 0.515-0.063 0.195-0.202 0.202-0.32 0.014-0.153-0.077 0.070-0.16 0.111-0.181 0.090s0.049-0.341 0.146-0.71c0.104-0.369 0.174-0.696 0.16-0.723s-0.111-0.042-0.23-0.028z"></path>
<path d="M24.383 16.96c-0.452 0.070-0.48 0.083-0.348 0.181 0.125 0.090 0.097 0.264-0.223 1.377-0.028 0.097 0.007 0.125 0.132 0.125 0.146 0 0.188-0.049 0.257-0.299 0.188-0.626 0.717-1.308 0.883-1.141 0.021 0.021-0.028 0.306-0.111 0.633-0.090 0.32-0.139 0.64-0.118 0.696 0.070 0.174 0.369 0.132 0.529-0.070 0.202-0.257 0.181-0.362-0.028-0.167-0.153 0.146-0.174 0.146-0.174 0.035 0-0.063 0.070-0.376 0.153-0.682 0.146-0.543 0.146-0.557 0.021-0.647-0.181-0.132-0.376-0.063-0.647 0.223-0.278 0.292-0.306 0.292-0.216 0.028 0.090-0.257 0.070-0.327-0.111-0.292z"></path>
<path d="M26.643 16.981c-0.445 0.181-0.626 0.626-0.369 0.911 0.104 0.118 0.104 0.132-0.014 0.264-0.063 0.070-0.104 0.181-0.083 0.23 0.021 0.063-0.049 0.16-0.167 0.25-0.23 0.167-0.264 0.417-0.090 0.591 0.383 0.383 1.35 0.111 1.35-0.376 0-0.223-0.139-0.362-0.508-0.515-0.257-0.104-0.334-0.306-0.104-0.264 0.327 0.056 0.821-0.376 0.821-0.717 0-0.056 0.035-0.104 0.070-0.104 0.174 0 0.042-0.195-0.153-0.237-0.125-0.021-0.306-0.056-0.403-0.077-0.097-0.014-0.25 0-0.348 0.042zM27.103 17.217c0.063 0.264-0.174 0.696-0.39 0.696-0.188 0-0.257-0.181-0.181-0.487 0.097-0.376 0.494-0.522 0.57-0.209zM26.977 18.95c0.021 0.153-0.014 0.202-0.23 0.292-0.209 0.083-0.278 0.090-0.438 0.014-0.25-0.125-0.299-0.48-0.083-0.633 0.139-0.097 0.181-0.097 0.445 0.014 0.223 0.097 0.292 0.167 0.306 0.313z"></path>
<path d="M30.678 16.96c-0.257 0.028-0.473 0.153-0.257 0.153 0.153 0 0.146 0.104-0.035 0.8-0.125 0.473-0.132 0.598-0.063 0.689 0.049 0.056 0.139 0.083 0.202 0.063 0.188-0.063 0.431-0.313 0.431-0.431 0-0.083-0.042-0.063-0.139 0.063-0.070 0.097-0.153 0.153-0.174 0.125-0.028-0.021 0.042-0.362 0.139-0.751 0.104-0.383 0.181-0.71 0.167-0.717s-0.139-0.007-0.271 0.007z"></path>
<path d="M31.965 16.953c-0.23 0.035-0.41 0.16-0.23 0.16 0.188 0 0.202 0.104 0.063 0.57-0.292 0.967-0.292 0.96-0.104 0.96 0.125 0 0.174-0.049 0.209-0.195 0.070-0.285 0.369-0.932 0.494-1.071 0.077-0.083 0.167-0.104 0.306-0.077 0.23 0.042 0.341-0.118 0.202-0.292-0.118-0.146-0.174-0.132-0.459 0.118l-0.257 0.23 0.042-0.23c0.028-0.118 0.021-0.216-0.007-0.216-0.028 0.007-0.139 0.028-0.257 0.042z"></path>
<path d="M15.812 19.527c-0.16 0.146-0.369 0.522-0.369 0.682 0 0.070-0.070 0.104-0.209 0.104s-0.209 0.035-0.209 0.104c0 0.056 0.063 0.104 0.139 0.104s0.139 0.028 0.139 0.070c0 0.216-0.376 1.802-0.459 1.927-0.125 0.195-0.237 0.209-0.237 0.021 0-0.090-0.049-0.139-0.139-0.139-0.209 0-0.181 0.264 0.035 0.362 0.39 0.174 0.772-0.383 0.974-1.405 0.16-0.849 0.153-0.835 0.39-0.835 0.132 0 0.202-0.035 0.202-0.104 0-0.063-0.070-0.104-0.181-0.104-0.167 0-0.174-0.021-0.132-0.195 0.077-0.32 0.202-0.536 0.334-0.557 0.070-0.014 0.118 0 0.111 0.035-0.042 0.23 0.181 0.334 0.257 0.125 0.111-0.278-0.383-0.424-0.647-0.195z"></path>
<path d="M11.478 19.548c0 0.035 0.063 0.070 0.139 0.070 0.181 0 0.174 0.083-0.042 0.897-0.264 0.988-0.369 1.273-0.501 1.37-0.097 0.077 0.042 0.090 0.856 0.097h0.981l0.090-0.264c0.056-0.139 0.111-0.299 0.125-0.348 0.070-0.174-0.118-0.077-0.216 0.118-0.125 0.23-0.417 0.355-0.856 0.355-0.216 0-0.313-0.035-0.348-0.111-0.021-0.063 0.083-0.543 0.23-1.064 0.223-0.772 0.299-0.96 0.431-1.016 0.271-0.118 0.167-0.174-0.369-0.174-0.299 0-0.522 0.028-0.522 0.070z"></path>
<path d="M14.17 19.527c-0.028 0.021-0.049 0.118-0.049 0.209 0 0.125 0.042 0.16 0.167 0.16 0.090 0 0.188-0.049 0.209-0.111 0.077-0.195-0.188-0.397-0.327-0.257z"></path>
<path d="M13.878 20.383c-0.202 0.049-0.202 0.056-0.049 0.104 0.188 0.063 0.188 0.014 0.007 0.591-0.257 0.849-0.083 1.21 0.362 0.765 0.118-0.118 0.202-0.23 0.181-0.25s-0.104 0.028-0.188 0.111c-0.083 0.083-0.167 0.139-0.181 0.118-0.035-0.035 0.090-0.563 0.278-1.183 0.104-0.32 0.104-0.327-0.049-0.32-0.083 0.007-0.243 0.035-0.362 0.063z"></path>
<path d="M17.050 20.438c-0.313 0.174-0.633 0.626-0.682 0.974-0.035 0.237-0.007 0.306 0.139 0.459 0.104 0.104 0.257 0.181 0.369 0.181 0.209 0 0.793-0.313 0.793-0.417s-0.063-0.083-0.257 0.070c-0.216 0.167-0.459 0.181-0.612 0.028-0.202-0.202-0.104-0.376 0.299-0.508 0.487-0.167 0.723-0.39 0.696-0.668-0.021-0.181-0.049-0.209-0.264-0.23-0.139-0.007-0.348 0.035-0.48 0.111zM17.53 20.619c0 0.174-0.243 0.397-0.536 0.487-0.181 0.056-0.195 0.028-0.083-0.188 0.23-0.438 0.619-0.626 0.619-0.299z"></path>
<path d="M10.365 25.83c0 0.25 0.042 0.334 0.25 0.543 0.515 0.494 0.828 1.273 0.779 1.948-0.090 1.231-1.44 2.56-2.887 2.845-0.723 0.146-1.363-0.021-2.247-0.577l-0.243-0.153 0.16 0.223c0.25 0.348 0.647 0.64 1.016 0.751 1.969 0.591 4.696-1.398 4.703-3.423 0-0.348-0.202-1.009-0.403-1.343-0.167-0.264-0.981-1.113-1.071-1.113-0.028 0-0.056 0.132-0.056 0.299z"></path>
</svg>
