<!-- Generated by IcoMoon.io -->
<svg version="1.1" xmlns="http://www.w3.org/2000/svg" width="28" height="32" viewBox="0 0 28 32">
<title>logo-no-words-sm</title>
<path d="M27.466 9.637l-0.063-0.515-0.518 0.013c-2.751 0.081-5.282 0.96-7.386 2.412l0.046-0.030-0.525 0.357 0.013-0.739c0.003-0.059 0.003-0.118 0.003-0.177 0-4.141-1.834-8.026-5.037-10.661l-0.365-0.298-0.361 0.299c-3.017 2.494-4.949 6.209-5.030 10.378v0.014l-0.013 0.554-0.479-0.279c-1.972-1.155-4.342-1.837-6.872-1.837-0.004 0-0.009 0-0.013 0h0.001c-0.079 0-0.151 0-0.233 0.003l-0.472 0.029-0.059 0.469c-0.065 0.487-0.102 1.049-0.102 1.62 0 0.011 0 0.022 0 0.033v-0.002c0 5.66 3.55 10.832 8.833 12.863l0.161 0.059c1.3 0.5 2.803 0.807 4.373 0.846h0.017l0.282 0.010v0.010l0.525-0.016c1.537-0.046 2.993-0.336 4.349-0.831l-0.096 0.031 0.154-0.053c5.362-2.008 8.965-7.199 8.965-12.918 0-0.002 0-0.004 0-0.006 0-0.577-0.035-1.146-0.104-1.705l0.007 0.067zM13.493 23.596l-0.020 0.325-0.325-0.013c-1.419-0.071-2.749-0.367-3.983-0.853l0.085 0.030-0.108-0.043c-4.789-1.89-8.004-6.615-8.004-11.76q0-0.345 0.020-0.689l0.016-0.325 0.328 0.016c2.671 0.132 5.098 1.079 7.064 2.594l-0.029-0.022c0.164 0.125 0.325 0.257 0.479 0.389 2.282 1.926 3.863 4.619 4.342 7.678l0.009 0.071c0.026 0.174 0.049 0.348 0.069 0.532 0.048 0.41 0.075 0.884 0.075 1.365 0 0.006 0 0.011 0 0.017v-0.001q0 0.349-0.020 0.689zM14.422 17.972l-0.033 0.082-0.308 0.82-0.308-0.82-0.053-0.132c-0.075-0.197-0.158-0.39-0.239-0.58l-0.089-0.2c-0.114-0.253-0.237-0.495-0.357-0.722l-0.063-0.114c-0.111-0.2-0.226-0.4-0.348-0.597-0.042-0.066-0.082-0.135-0.125-0.201-0.121-0.19-0.249-0.377-0.381-0.564l-0.082-0.118c-0.151-0.21-0.318-0.426-0.495-0.64l-0.135-0.158c-0.138-0.164-0.279-0.325-0.426-0.479l-0.151-0.164c-0.213-0.223-0.407-0.413-0.588-0.58l-0.036-0.034c-0.18-0.164-0.374-0.331-0.594-0.512l-0.187-0.154-0.013-0.141c-0.026-0.325-0.040-0.663-0.040-1.004 0.005-3.656 1.556-6.949 4.033-9.262l0.007-0.007 0.223-0.207 0.227 0.207c2.484 2.32 4.033 5.614 4.037 9.269v0.001c0 0.004 0 0.009 0 0.014 0 0.668-0.051 1.324-0.15 1.964l0.009-0.071-0.017 0.112-0.079 0.075-0.066 0.069c-0.138 0.138-0.273 0.272-0.4 0.413l-0.082 0.082q-0.226 0.251-0.443 0.512l-0.112 0.141c-0.108 0.132-0.213 0.266-0.335 0.427l-0.103 0.138c-0.125 0.174-0.249 0.348-0.364 0.525l-0.020 0.030c-0.121 0.187-0.239 0.377-0.351 0.571l-0.095 0.167c-0.085 0.148-0.164 0.299-0.242 0.449l-0.085 0.161c-0.102 0.2-0.197 0.404-0.298 0.633l-0.017 0.039q-0.117 0.282-0.226 0.563zM18.32 23.085l-0.121 0.046c-0.926 0.355-2.002 0.612-3.12 0.724l-0.053 0.004-0.341 0.036-0.020-0.343c-0.010-0.217-0.013-0.43-0.013-0.643 0-0.016 0-0.034 0-0.053 0-0.432 0.024-0.859 0.070-1.279l-0.005 0.052c0.030-0.312 0.069-0.62 0.121-0.923 0.059-0.338 0.135-0.676 0.22-1.001 1.363-5.070 5.672-8.834 10.936-9.37l0.054-0.004 0.341-0.033 0.020 0.341c0.009 0.217 0.016 0.43 0.016 0.643 0 5.188-3.255 9.932-8.105 11.803z"></path>
<path d="M8.102 4.955h-6.983l1.352 2.884c0.446 0.049 0.899 0.115 1.352 0.203l-0.912-1.948h4.755c0.131-0.382 0.276-0.763 0.436-1.14zM15.16 26.369l-1.378 2.947-1.378-2.947c-0.453-0.040-0.899-0.098-1.342-0.18l2.72 5.811 2.72-5.811c-0.443 0.082-0.892 0.141-1.342 0.18zM19.177 4.955c0.163 0.377 0.308 0.761 0.436 1.14h5.037l-0.983 2.102c0.463-0.115 0.929-0.207 1.388-0.275l1.388-2.966z"></path>
</svg>
