<!-- Generated by IcoMoon.io -->
<svg version="1.1" xmlns="http://www.w3.org/2000/svg" width="31" height="32" viewBox="0 0 31 32">
<title>logo-words-circular</title>
<path d="M24.228 12.76l-0.038-0.316-0.318 0.008c-1.686 0.050-3.236 0.588-4.525 1.478l0.028-0.018-0.322 0.219 0.008-0.452c0.002-0.036 0.002-0.072 0.002-0.108 0-2.537-1.124-4.918-3.086-6.532l-0.223-0.183-0.221 0.183c-1.849 1.528-3.032 3.804-3.082 6.359v0.008l-0.008 0.34-0.294-0.171c-1.272-0.736-2.732-1.126-4.218-1.126-0.048 0-0.092 0-0.143 0.002l-0.289 0.018-0.036 0.288c-0.040 0.298-0.062 0.642-0.062 0.992 0 0.007 0 0.013 0 0.020v-0.001c0 3.468 2.175 6.636 5.412 7.881l0.099 0.036c0.797 0.306 1.718 0.494 2.679 0.518h0.011l0.173 0.006v0.006l0.322-0.010c0.942-0.028 1.834-0.206 2.664-0.509l-0.059 0.019 0.094-0.032c3.285-1.23 5.493-4.411 5.493-7.915 0-0.355-0.022-0.705-0.064-1.048l0.004 0.041zM15.667 21.313l-0.012 0.199-0.199-0.008c-0.87-0.043-1.684-0.225-2.44-0.523l0.052 0.018-0.066-0.026c-2.933-1.158-4.904-4.053-4.904-7.206q0-0.211 0.012-0.422l0.010-0.199 0.201 0.010c1.566 0.076 3.058 0.621 4.31 1.576 0.101 0.076 0.199 0.157 0.294 0.237 1.398 1.18 2.367 2.831 2.66 4.705l0.006 0.044c0.016 0.107 0.030 0.213 0.043 0.326 0.029 0.251 0.046 0.541 0.046 0.835 0 0.004 0 0.008 0 0.012v-0.001q-0.001 0.214-0.012 0.422zM16.236 17.867l-0.020 0.050-0.189 0.502-0.189-0.502-0.032-0.080c-0.046-0.121-0.096-0.239-0.147-0.356l-0.054-0.123c-0.070-0.155-0.145-0.303-0.219-0.442l-0.038-0.070c-0.068-0.123-0.139-0.245-0.213-0.366-0.026-0.040-0.050-0.082-0.076-0.123-0.075-0.117-0.153-0.231-0.233-0.346l-0.050-0.072c-0.092-0.128-0.195-0.261-0.303-0.392l-0.083-0.096c-0.084-0.101-0.171-0.199-0.261-0.294l-0.092-0.101c-0.131-0.137-0.249-0.253-0.36-0.356l-0.022-0.020c-0.11-0.101-0.229-0.203-0.364-0.314l-0.048-0.040-0.066-0.054-0.008-0.086c-0.016-0.199-0.024-0.406-0.024-0.615 0-2.149 0.903-4.218 2.475-5.679l0.137-0.127 0.139 0.127c1.572 1.462 2.473 3.53 2.473 5.679 0 0.002 0 0.005 0 0.007 0 0.41-0.031 0.812-0.092 1.205l0.006-0.044-0.011 0.068-0.048 0.046-0.040 0.043c-0.084 0.085-0.167 0.167-0.245 0.253l-0.050 0.050q-0.139 0.154-0.272 0.314l-0.068 0.086c-0.066 0.081-0.131 0.163-0.205 0.261l-0.062 0.084c-0.076 0.107-0.153 0.213-0.223 0.322l-0.012 0.018c-0.075 0.114-0.147 0.231-0.215 0.35l-0.058 0.103c-0.052 0.090-0.101 0.183-0.149 0.275l-0.052 0.098c-0.062 0.123-0.121 0.247-0.183 0.388l-0.011 0.024q-0.072 0.171-0.138 0.343zM18.625 20.999l-0.075 0.028c-0.567 0.217-1.226 0.375-1.912 0.444l-0.033 0.003-0.209 0.022-0.012-0.211c-0.006-0.133-0.008-0.263-0.008-0.394 0-0.010 0-0.021 0-0.032 0-0.265 0.015-0.526 0.043-0.784l-0.003 0.032c0.018-0.191 0.042-0.38 0.075-0.565 0.036-0.207 0.082-0.414 0.135-0.613 0.392-1.468 1.162-2.721 2.201-3.691l0.004-0.004c1.236-1.156 2.845-1.884 4.527-2.049l0.209-0.020 0.012 0.209c0.006 0.133 0.010 0.263 0.010 0.394 0 3.178-1.994 6.085-4.966 7.231z"></path>
<path d="M12.364 9.891h-4.278l0.828 1.767c0.273 0.030 0.551 0.070 0.828 0.125l-0.559-1.194h2.913c0.080-0.233 0.169-0.466 0.268-0.697zM16.688 23.011l-0.845 1.805-0.845-1.805c-0.278-0.024-0.551-0.060-0.822-0.111l1.667 3.56 1.667-3.56c-0.271 0.050-0.546 0.086-0.822 0.111zM19.15 9.891c0.101 0.231 0.189 0.466 0.267 0.697h3.086l-0.603 1.289c0.284-0.070 0.569-0.127 0.85-0.169l0.85-1.817z"></path>
<path d="M15.844 3.863c6.73 0 12.206 5.476 12.206 12.206s-5.476 12.206-12.206 12.206-12.206-5.476-12.206-12.206 5.476-12.206 12.206-12.206zM15.844 3.156c-7.131 0-12.913 5.782-12.913 12.913s5.782 12.914 12.913 12.914 12.913-5.782 12.913-12.913-5.782-12.913-12.913-12.913z"></path>
<path d="M0.443 11.414l2.251 0.535-0.107 0.451-0.958-0.227-0.229 0.964 0.958 0.227-0.107 0.452-2.251-0.534 0.107-0.452 0.925 0.22 0.229-0.964-0.926-0.22z"></path>
<path d="M1.39 9.055l1.269 0.663q0.208 0.109 0.375 0.058t0.27-0.247q0.104-0.2 0.051-0.366t-0.262-0.275l-1.269-0.663 0.217-0.414 1.266 0.662q0.261 0.137 0.383 0.344c0.072 0.118 0.114 0.261 0.114 0.414 0 0.011 0 0.021-0.001 0.032v-0.002q-0.008 0.237-0.129 0.469-0.12 0.229-0.308 0.368c-0.118 0.088-0.265 0.145-0.424 0.153h-0.002q-0.238 0.014-0.499-0.123l-1.266-0.662z"></path>
<path d="M5.16 7.32q-0.19 0.092-0.382 0.074t-0.353-0.154l0.327-0.375q0.114 0.086 0.236 0.072t0.227-0.134q0.107-0.123 0.109-0.244c0.002-0.081-0.029-0.149-0.093-0.204q-0.077-0.068-0.169-0.064c-0.067 0.004-0.129 0.022-0.185 0.051l0.002-0.001c-0.093 0.049-0.17 0.096-0.244 0.146l0.009-0.006q-0.199 0.127-0.34 0.191c-0.077 0.035-0.166 0.056-0.261 0.056-0.016 0-0.032-0.001-0.047-0.002h0.002q-0.165-0.010-0.33-0.154-0.155-0.135-0.202-0.313t0.013-0.371 0.218-0.373q0.235-0.27 0.513-0.324t0.528 0.133l-0.335 0.385c-0.045-0.036-0.103-0.058-0.166-0.058-0.017 0-0.035 0.002-0.051 0.005h0.002q-0.121 0.020-0.223 0.138-0.089 0.103-0.090 0.209t0.099 0.194c0.037 0.034 0.087 0.056 0.142 0.056 0.005 0 0.010 0 0.015-0.001h-0.001c0.065-0.005 0.124-0.023 0.178-0.051l-0.003 0.001q0.088-0.044 0.235-0.136 0.198-0.126 0.342-0.19c0.078-0.035 0.17-0.056 0.266-0.056 0.016 0 0.032 0.001 0.047 0.002h-0.002q0.167 0.010 0.33 0.151c0.090 0.078 0.158 0.179 0.195 0.295l0.001 0.005q0.057 0.177 0.006 0.379t-0.218 0.394q-0.16 0.182-0.349 0.273z"></path>
<path d="M7.33 2.42l1.34 1.886-0.378 0.269-0.57-0.802-0.808 0.574 0.57 0.802-0.378 0.269-1.341-1.886 0.378-0.269 0.551 0.775 0.808-0.574-0.551-0.775z"></path>
<path d="M12.956 2.626l-0.708-0.756-0.213 0.051 0.212 0.877-0.451 0.109-0.543-2.249 0.845-0.204q0.261-0.063 0.467-0.016t0.336 0.182c0.084 0.088 0.146 0.199 0.175 0.323l0.001 0.005c0.013 0.050 0.021 0.108 0.021 0.168 0 0.095-0.019 0.186-0.055 0.269l0.002-0.004q-0.086 0.21-0.324 0.339l0.758 0.782zM11.953 1.582l0.377-0.091q0.184-0.044 0.252-0.155t0.031-0.268q-0.037-0.154-0.148-0.218t-0.295-0.019l-0.377 0.091z"></path>
<path d="M15.377 0.393l0.011 0.58 0.779-0.013 0.006 0.368-0.779 0.014 0.011 0.613 0.878-0.015 0.007 0.378-1.342 0.023-0.040-2.317 1.342-0.023 0.006 0.378z"></path>
<path d="M19.774 0.475l-0.072 0.368-0.605-0.118-0.372 1.903-0.455-0.089 0.372-1.903-0.605-0.118 0.072-0.368z"></path>
<path d="M21.762 3.657l-0.099-1.031-0.2-0.089-0.367 0.823-0.424-0.189 0.942-2.112 0.793 0.353q0.245 0.109 0.379 0.272t0.155 0.349c0.003 0.022 0.004 0.049 0.004 0.075 0 0.106-0.024 0.206-0.066 0.296l0.002-0.004c-0.061 0.138-0.161 0.248-0.286 0.321l-0.003 0.002q-0.196 0.114-0.463 0.071l0.124 1.082zM21.604 2.219l0.355 0.158q0.173 0.077 0.294 0.032t0.188-0.194q0.065-0.146 0.016-0.263t-0.222-0.195l-0.354-0.158z"></path>
<path d="M25.038 3.363l-0.346 0.466 0.625 0.465-0.219 0.295-0.625-0.465-0.366 0.492 0.706 0.524-0.226 0.303-1.078-0.8 1.382-1.86 1.077 0.801-0.225 0.304z"></path>
<path d="M26.954 7.239l-0.597-0.702-0.435 0.169-0.316-0.371 2.304-0.867 0.35 0.412-1.227 2.135-0.318-0.374zM27.155 6.903l0.521-0.882-0.954 0.372z"></path>
<path d="M30.544 9.545l-0.334 0.17-0.28-0.549-1.728 0.88-0.211-0.414 1.728-0.88-0.28-0.549 0.334-0.17z"></path>
<path d="M29.12 12.256q0.032-0.208 0.156-0.356t0.328-0.203l0.122 0.482q-0.136 0.045-0.194 0.154t-0.019 0.263c0.026 0.105 0.073 0.181 0.138 0.228 0.042 0.031 0.094 0.050 0.151 0.050 0.025 0 0.049-0.004 0.072-0.010h-0.002q0.1-0.025 0.148-0.103c0.032-0.051 0.054-0.111 0.063-0.176v-0.002c0.010-0.081 0.017-0.175 0.018-0.271v-0.002q0.009-0.235 0.037-0.387c0.021-0.109 0.066-0.204 0.131-0.284l-0.001 0.001q0.102-0.13 0.314-0.184 0.199-0.050 0.372 0.011t0.298 0.222 0.183 0.391q0.088 0.347-0.025 0.607t-0.41 0.359l-0.126-0.495c0.075-0.023 0.135-0.076 0.166-0.145l0.001-0.002q0.052-0.111 0.014-0.262-0.034-0.132-0.121-0.193t-0.216-0.029c-0.057 0.013-0.105 0.049-0.134 0.096l-0.001 0.001c-0.029 0.050-0.050 0.108-0.059 0.17v0.002q-0.014 0.098-0.021 0.271-0.009 0.235-0.038 0.389c-0.022 0.11-0.068 0.207-0.133 0.288l0.001-0.001q-0.103 0.132-0.312 0.185c-0.049 0.013-0.106 0.021-0.164 0.021-0.069 0-0.136-0.011-0.198-0.031l0.005 0.001q-0.178-0.054-0.315-0.211t-0.2-0.404q-0.060-0.234-0.027-0.443z"></path>
<path d="M3.183 21.153l-2.202 0.708-0.142-0.442 0.937-0.301-0.303-0.944-0.937 0.301-0.142-0.442 2.202-0.708 0.142 0.442-0.905 0.291 0.303 0.943 0.906-0.291z"></path>
<path d="M3.995 22.777l-1.221 0.749q-0.2 0.123-0.242 0.293t0.075 0.359q0.118 0.192 0.288 0.232t0.371-0.084l1.221-0.749 0.245 0.398-1.218 0.747q-0.252 0.154-0.492 0.152c-0.164 0-0.316-0.049-0.443-0.133l0.003 0.002q-0.2-0.128-0.336-0.352-0.136-0.22-0.158-0.454c-0.002-0.024-0.004-0.051-0.004-0.078 0-0.134 0.034-0.26 0.093-0.37l-0.002 0.004q0.11-0.211 0.361-0.365l1.217-0.747z"></path>
<path d="M4.196 26.841c-0.050-0.131-0.065-0.26-0.043-0.386s0.083-0.239 0.183-0.34l0.347 0.356q-0.095 0.107-0.091 0.23t0.115 0.237q0.114 0.116 0.234 0.128c0.009 0.001 0.018 0.002 0.028 0.002 0.072 0 0.136-0.030 0.182-0.077v0c0.049-0.048 0.075-0.102 0.077-0.163 0-0.004 0-0.008 0-0.013 0-0.062-0.013-0.122-0.036-0.176l0.001 0.003c-0.043-0.1-0.083-0.18-0.128-0.258l0.007 0.013q-0.11-0.208-0.162-0.354c-0.023-0.063-0.036-0.137-0.036-0.213 0-0.034 0.003-0.068 0.008-0.101v0.004q0.023-0.164 0.18-0.317 0.147-0.143 0.328-0.176t0.369 0.043 0.354 0.247q0.25 0.257 0.281 0.538t-0.175 0.516l-0.356-0.365c0.045-0.047 0.072-0.111 0.072-0.182 0-0.010-0.001-0.020-0.002-0.029v0.001q-0.011-0.122-0.119-0.234-0.095-0.097-0.201-0.107t-0.201 0.083c-0.041 0.038-0.067 0.091-0.067 0.151v0c0 0 0 0.001 0 0.001 0 0.064 0.013 0.125 0.036 0.181l-0.001-0.003c0.042 0.1 0.081 0.181 0.124 0.26l-0.007-0.014q0.11 0.208 0.162 0.356c0.023 0.064 0.036 0.138 0.036 0.215 0 0.035-0.003 0.069-0.008 0.103v-0.004q-0.023 0.166-0.177 0.316c-0.084 0.083-0.19 0.143-0.309 0.171l-0.004 0.001q-0.181 0.042-0.378-0.025t-0.375-0.25q-0.169-0.173-0.245-0.37z"></path>
<path d="M9.283 28.029l-1.254 1.944-0.39-0.252 0.534-0.827-0.833-0.537-0.534 0.827-0.39-0.252 1.255-1.944 0.39 0.252-0.516 0.799 0.832 0.537 0.516-0.799z"></path>
<path d="M12.577 31.657l-0.293-0.994-0.213-0.050-0.204 0.879-0.452-0.105 0.524-2.254 0.846 0.197q0.262 0.061 0.424 0.196t0.218 0.313c0.019 0.062 0.030 0.132 0.030 0.206 0 0.214-0.093 0.406-0.241 0.537l-0.001 0.001q-0.171 0.149-0.442 0.158l0.327 1.039zM12.149 30.274l0.378 0.088c0.123 0.028 0.221 0.020 0.295-0.025s0.123-0.121 0.148-0.226c0.024-0.103 0.012-0.191-0.035-0.261s-0.132-0.121-0.255-0.15l-0.378-0.088z"></path>
<path d="M15.323 30.041l-0.014 0.58 0.779 0.018-0.008 0.368-0.779-0.018-0.014 0.613 0.878 0.021-0.009 0.378-1.342-0.031 0.053-2.316 1.342 0.031-0.009 0.378z"></path>
<path d="M19.025 29.328l0.064 0.369-0.607 0.106 0.331 1.91-0.457 0.079-0.332-1.91-0.607 0.105-0.064-0.369z"></path>
<path d="M22.161 30.69l-0.812-0.643-0.203 0.082 0.339 0.835-0.43 0.175-0.87-2.144 0.805-0.326q0.249-0.101 0.46-0.084c0.141 0.011 0.26 0.054 0.359 0.13s0.175 0.177 0.221 0.293l0.002 0.005c0.033 0.078 0.053 0.169 0.053 0.264 0 0.060-0.008 0.117-0.022 0.173l0.001-0.005q-0.053 0.22-0.27 0.383l0.866 0.661zM21.016 29.806l0.36-0.146q0.175-0.071 0.227-0.19t-0.009-0.27q-0.060-0.147-0.179-0.194c-0.079-0.031-0.177-0.023-0.294 0.025l-0.36 0.146z"></path>
<path d="M23.469 27.791l0.323 0.482 0.647-0.434 0.205 0.306-0.647 0.434 0.342 0.509 0.73-0.49 0.21 0.314-1.115 0.748-1.291-1.924 1.115-0.748 0.211 0.313z"></path>
<path d="M27.331 26.454l-0.638 0.665 0.213 0.415-0.337 0.352-1.096-2.205 0.374-0.39 2.248 1.004-0.34 0.354zM26.976 26.287l-0.93-0.428 0.467 0.912z"></path>
<path d="M27.932 22.377l0.321 0.194-0.319 0.528 1.659 1.004-0.24 0.397-1.659-1.004-0.319 0.527-0.321-0.194z"></path>
<path d="M30.685 21.688q-0.142 0.156-0.326 0.211t-0.386-0.012l0.164-0.469q0.138 0.038 0.246-0.021t0.16-0.209q0.053-0.154 0.011-0.267t-0.162-0.155c-0.064-0.023-0.125-0.021-0.18 0.004-0.059 0.028-0.109 0.067-0.15 0.114v0.001c-0.055 0.064-0.109 0.135-0.16 0.209l-0.006 0.009c-0.079 0.113-0.16 0.212-0.246 0.305l0.002-0.002c-0.072 0.074-0.16 0.13-0.26 0.163l-0.005 0.001q-0.157 0.053-0.363-0.020-0.194-0.068-0.304-0.215t-0.126-0.349 0.063-0.428q0.118-0.338 0.356-0.492t0.54-0.073l-0.168 0.482c-0.023-0.007-0.049-0.011-0.077-0.011-0.053 0-0.102 0.016-0.144 0.043l0.001-0.001q-0.105 0.063-0.156 0.21-0.045 0.128-0.006 0.228t0.164 0.143c0.022 0.009 0.048 0.014 0.075 0.014 0.033 0 0.064-0.008 0.092-0.021l-0.001 0.001c0.056-0.028 0.104-0.066 0.144-0.111v-0.001c0.056-0.064 0.111-0.133 0.162-0.206l0.006-0.008q0.137-0.191 0.246-0.304c0.073-0.074 0.163-0.131 0.264-0.165l0.005-0.001q0.159-0.053 0.362 0.018c0.118 0.041 0.218 0.112 0.293 0.203l0.001 0.001q0.118 0.143 0.147 0.349t-0.056 0.447q-0.079 0.229-0.221 0.385z"></path>
</svg>
