<!-- Generated by IcoMoon.io -->
<svg version="1.1" xmlns="http://www.w3.org/2000/svg" width="114" height="32" viewBox="0 0 114 32">
<title>logo-words-right</title>
<path d="M27.465 9.638l-0.062-0.515-0.519 0.013c-2.751 0.081-5.282 0.96-7.386 2.412l0.046-0.030-0.525 0.358 0.013-0.738c0.003-0.059 0.003-0.118 0.003-0.177 0-4.142-1.834-8.026-5.037-10.661l-0.364-0.299-0.361 0.299c-3.018 2.494-4.949 6.21-5.030 10.379l-0 0.014-0.013 0.554-0.479-0.279c-2.077-1.201-4.459-1.838-6.884-1.838-0.079 0-0.151 0-0.233 0.003l-0.473 0.029-0.059 0.47c-0.065 0.487-0.102 1.050-0.102 1.621 0 0.010 0 0.020 0 0.030v-0.002c0 5.661 3.551 10.833 8.834 12.863l0.161 0.059c1.3 0.5 2.803 0.807 4.373 0.847l0.017 0 0.282 0.010v0.010l0.525-0.016c1.537-0.046 2.993-0.336 4.349-0.833l-0.096 0.031 0.154-0.053c5.362-2.009 8.965-7.199 8.965-12.918-0-0.579-0.036-1.15-0.105-1.711l0.007 0.067zM13.493 23.597l-0.019 0.325-0.325-0.013c-1.419-0.071-2.749-0.367-3.983-0.853l0.085 0.029-0.108-0.043c-4.789-1.892-8.004-6.616-8.004-11.762q0-0.344 0.019-0.689l0.017-0.325 0.327 0.016c2.671 0.132 5.099 1.079 7.065 2.595l-0.029-0.022c0.164 0.125 0.325 0.256 0.479 0.387 2.282 1.926 3.863 4.62 4.342 7.68l0.009 0.071c0.026 0.173 0.049 0.348 0.069 0.532 0.048 0.41 0.075 0.885 0.075 1.366 0 0.005 0 0.011 0 0.016v-0.001q-0 0.349-0.020 0.69zM14.422 17.973l-0.032 0.082-0.308 0.82-0.308-0.82-0.052-0.131c-0.075-0.197-0.157-0.391-0.239-0.581l-0.089-0.2c-0.115-0.253-0.236-0.495-0.358-0.722l-0.062-0.116c-0.112-0.2-0.227-0.4-0.348-0.597-0.043-0.066-0.082-0.135-0.125-0.2-0.121-0.19-0.249-0.377-0.381-0.564l-0.082-0.118c-0.152-0.209-0.32-0.426-0.497-0.639l-0.135-0.158c-0.138-0.164-0.279-0.325-0.427-0.479l-0.151-0.164c-0.213-0.223-0.407-0.414-0.587-0.581l-0.036-0.033c-0.181-0.164-0.374-0.331-0.594-0.512l-0.079-0.066-0.108-0.088-0.013-0.141c-0.026-0.325-0.039-0.663-0.039-1.004 0.005-3.656 1.555-6.95 4.031-9.263l0.007-0.007 0.223-0.207 0.227 0.207c2.566 2.386 4.036 5.762 4.036 9.271 0 0.004 0 0.009 0 0.013 0 0.668-0.051 1.325-0.15 1.965l0.009-0.071-0.017 0.112-0.079 0.075-0.066 0.069c-0.138 0.138-0.272 0.272-0.4 0.413l-0.082 0.082q-0.227 0.25-0.443 0.512l-0.112 0.141c-0.108 0.131-0.213 0.266-0.335 0.427l-0.102 0.138c-0.125 0.173-0.249 0.348-0.364 0.525l-0.019 0.029c-0.121 0.187-0.239 0.377-0.351 0.571l-0.095 0.167c-0.085 0.148-0.164 0.299-0.243 0.45l-0.086 0.161c-0.102 0.2-0.197 0.405-0.298 0.633l-0.017 0.039q-0.118 0.28-0.227 0.561zM18.319 23.085l-0.122 0.046c-0.926 0.354-2.001 0.612-3.119 0.724l-0.053 0.004-0.341 0.036-0.019-0.344c-0.010-0.217-0.013-0.43-0.013-0.643-0-0.016-0-0.034-0-0.053 0-0.432 0.024-0.859 0.070-1.279l-0.005 0.052c0.030-0.312 0.069-0.62 0.122-0.922 0.059-0.338 0.135-0.676 0.22-1.002 0.639-2.395 1.897-4.441 3.593-6.024l0.007-0.007c2.018-1.888 4.642-3.075 7.39-3.344l0.341-0.033 0.019 0.341c0.010 0.217 0.016 0.43 0.016 0.643 0.001 5.189-3.255 9.933-8.105 11.803z"></path>
<path d="M8.102 4.955h-6.983l1.352 2.885c0.446 0.049 0.899 0.116 1.352 0.203l-0.912-1.95h4.755c0.131-0.381 0.276-0.761 0.437-1.139zM15.16 26.369l-1.378 2.947-1.378-2.947c-0.453-0.040-0.899-0.098-1.342-0.18l2.72 5.811 2.72-5.811c-0.443 0.082-0.892 0.141-1.342 0.18zM19.177 4.955c0.164 0.377 0.308 0.761 0.436 1.139h5.037l-0.984 2.103c0.462-0.116 0.929-0.207 1.387-0.275l1.388-2.967z"></path>
<path d="M49.817 8.648v12.857h-1.678v-5.829h-6.549v5.829h-1.678v-12.857h1.678v5.644h6.549v-5.644z"></path>
<path d="M63.546 8.648v8.135q0 1.714 0.84 2.545t2.333 0.83q1.476 0 2.315-0.83t0.839-2.545v-8.135h1.679v8.117q0 1.605-0.646 2.702t-1.743 1.633q-1.098 0.536-2.463 0.535t-2.463-0.535-1.734-1.633-0.636-2.702v-8.117z"></path>
<path d="M85.383 21.182q-1.006-0.452-1.577-1.255t-0.59-1.854h1.789q0.092 0.904 0.747 1.522t1.91 0.618q1.198 0 1.891-0.6t0.692-1.541q0-0.738-0.406-1.199t-1.016-0.7q-0.609-0.239-1.642-0.516-1.273-0.332-2.038-0.664t-1.31-1.042-0.544-1.909q0-1.051 0.535-1.864t1.503-1.254q0.968-0.443 2.223-0.443 1.808 0 2.961 0.904t1.301 2.398h-1.844q-0.093-0.739-0.775-1.301t-1.806-0.562q-1.052 0-1.716 0.545t-0.664 1.522q0 0.701 0.397 1.144c0.264 0.292 0.591 0.521 0.96 0.667l0.017 0.006q0.582 0.231 1.633 0.526 1.273 0.349 2.048 0.691t1.328 1.051q0.553 0.71 0.553 1.928 0 0.941-0.498 1.771t-1.476 1.347-2.306 0.516q-1.273 0-2.278-0.452z"></path>
<path d="M113.547 8.648v12.857h-1.679v-5.829h-6.549v5.829h-1.678v-12.857h1.678v5.644h6.549v-5.644z"></path>
<path d="M59.462 26.706l-0.572-0.982h-0.38v0.982h-0.314v-2.404h0.776c0.182 0 0.335 0.031 0.461 0.093 0.118 0.055 0.213 0.141 0.279 0.248l0.002 0.003c0.059 0.104 0.093 0.228 0.093 0.361 0 0.165-0.054 0.318-0.145 0.441l0.001-0.002c-0.095 0.127-0.238 0.21-0.429 0.252l0.604 1.007zM58.51 25.471h0.462c0.171 0 0.298-0.042 0.383-0.126s0.128-0.196 0.128-0.336-0.042-0.253-0.126-0.331-0.212-0.117-0.385-0.117h-0.462z"></path>
<path d="M63.709 24.557v0.804h0.876v0.259h-0.876v0.828h0.979v0.259h-1.293v-2.408h1.293v0.259z"></path>
<path d="M69.746 24.302v0.255h-0.655v2.149h-0.314v-2.149h-0.658v-0.255z"></path>
<path d="M74.5 26.706l-0.573-0.982h-0.379v0.982h-0.314v-2.404h0.776q0.273 0 0.461 0.093c0.118 0.055 0.213 0.141 0.279 0.248l0.002 0.003c0.059 0.1 0.093 0.221 0.093 0.349 0 0.005-0 0.009-0 0.014v-0.001c0 0.004 0 0.008 0 0.013 0 0.161-0.054 0.309-0.144 0.427l0.001-0.002c-0.095 0.127-0.239 0.21-0.429 0.252l0.604 1.007zM73.548 25.471h0.462c0.171 0 0.298-0.042 0.383-0.126s0.128-0.196 0.128-0.336-0.042-0.253-0.126-0.331-0.212-0.117-0.385-0.117h-0.462z"></path>
<path d="M78.748 24.557v0.804h0.876v0.259h-0.876v0.828h0.98v0.259h-1.294v-2.408h1.293v0.259z"></path>
<path d="M84.726 26.171h-1.048l-0.193 0.534h-0.332l0.869-2.39h0.362l0.866 2.39h-0.331zM84.636 25.916l-0.435-1.214-0.435 1.214z"></path>
<path d="M90.211 24.302v0.255h-0.655v2.149h-0.314v-2.149h-0.658v-0.255z"></path>
<path d="M94.036 26.645c-0.12-0.052-0.219-0.132-0.293-0.232l-0.001-0.002c-0.069-0.096-0.111-0.217-0.111-0.347v0h0.335c0.011 0.113 0.062 0.212 0.14 0.284l0 0q0.122 0.116 0.357 0.116c0.149 0 0.267-0.039 0.354-0.112 0.079-0.067 0.129-0.167 0.129-0.278 0-0.004-0-0.007-0-0.011v0.001q0-0.138-0.076-0.224c-0.051-0.057-0.115-0.102-0.186-0.13l-0.003-0.001c-0.079-0.031-0.181-0.064-0.286-0.092l-0.021-0.005c-0.149-0.037-0.276-0.079-0.398-0.131l0.017 0.006c-0.099-0.044-0.182-0.111-0.243-0.193l-0.001-0.002c-0.068-0.089-0.102-0.208-0.102-0.357-0-0.003-0-0.008-0-0.012 0-0.125 0.037-0.242 0.101-0.339l-0.001 0.002c0.070-0.103 0.165-0.183 0.277-0.233l0.004-0.002c0.116-0.053 0.252-0.083 0.396-0.083 0.007 0 0.014 0 0.021 0l-0.001-0q0.338 0 0.553 0.169c0.137 0.106 0.228 0.266 0.242 0.447l0 0.002h-0.345q-0.018-0.138-0.145-0.243c-0.085-0.070-0.197-0.105-0.338-0.105-0.131 0-0.238 0.034-0.321 0.102s-0.124 0.163-0.124 0.285c-0 0.004-0 0.008-0 0.012 0 0.077 0.028 0.148 0.075 0.202l-0-0c0.049 0.055 0.111 0.097 0.18 0.124l0.003 0.001c0.078 0.031 0.179 0.065 0.283 0.093l0.022 0.005c0.152 0.040 0.279 0.084 0.402 0.137l-0.019-0.007c0.1 0.045 0.184 0.112 0.247 0.195l0.001 0.002c0.069 0.088 0.103 0.208 0.103 0.36 0 0 0 0.001 0 0.001 0 0.122-0.035 0.236-0.095 0.332l0.002-0.003c-0.067 0.108-0.161 0.194-0.272 0.25l-0.004 0.002q-0.183 0.096-0.431 0.096c-0.005 0-0.012 0-0.018 0-0.147 0-0.287-0.031-0.414-0.087l0.007 0.003z"></path>
</svg>
