<!-- Generated by IcoMoon.io -->
<svg version="1.1" xmlns="http://www.w3.org/2000/svg" width="53" height="32" viewBox="0 0 53 32">
<title>logo-main</title>
<path d="M32.654 4.25l-0.028-0.227-0.229 0.006c-1.213 0.036-2.33 0.423-3.258 1.064l0.020-0.013-0.231 0.158 0.006-0.325c0.001-0.026 0.001-0.052 0.001-0.078 0-0.003 0-0.006 0-0.009 0-1.886-0.861-3.572-2.211-4.685l-0.010-0.008-0.161-0.132-0.159 0.132c-1.331 1.1-2.183 2.739-2.218 4.577l-0 0.006-0.006 0.245-0.211-0.123c-0.87-0.509-1.915-0.81-3.031-0.81-0.002 0-0.004 0-0.005 0h0c-0.035 0-0.066 0-0.103 0.001l-0.208 0.013-0.026 0.208c-0.029 0.214-0.045 0.462-0.045 0.714 0 0.005 0 0.010 0 0.015v-0.001c0 2.496 1.566 4.777 3.896 5.673l0.071 0.026c0.574 0.22 1.237 0.356 1.93 0.373l0.008 0 0.125 0.004v0.004l0.231-0.007c0.678-0.021 1.319-0.148 1.917-0.367l-0.042 0.014 0.068-0.023c2.365-0.886 3.954-3.175 3.954-5.698-0-0.256-0.016-0.507-0.047-0.755l0.003 0.030zM26.492 10.407l-0.009 0.143-0.143-0.006c-0.626-0.031-1.212-0.162-1.757-0.376l0.037 0.013-0.048-0.019c-2.111-0.834-3.53-2.917-3.53-5.187q0-0.152 0.009-0.304l0.007-0.143 0.145 0.007c1.178 0.058 2.249 0.476 3.116 1.144l-0.013-0.010c0.072 0.055 0.143 0.113 0.212 0.171 1.007 0.849 1.704 2.038 1.915 3.387l0.004 0.031c0.012 0.077 0.022 0.153 0.030 0.235 0.021 0.181 0.033 0.39 0.033 0.602 0 0.003 0 0.005 0 0.008v-0q0 0.154-0.009 0.304zM26.901 7.926l-0.015 0.036-0.136 0.362-0.136-0.362-0.023-0.058c-0.033-0.086-0.069-0.173-0.105-0.256l-0.039-0.088c-0.050-0.112-0.104-0.219-0.158-0.318l-0.027-0.051c-0.049-0.088-0.1-0.177-0.153-0.263-0.019-0.029-0.036-0.059-0.055-0.088-0.054-0.084-0.11-0.166-0.168-0.249l-0.036-0.052c-0.067-0.093-0.14-0.188-0.218-0.282l-0.059-0.069c-0.061-0.072-0.123-0.143-0.188-0.211l-0.067-0.072c-0.094-0.098-0.18-0.182-0.259-0.256l-0.016-0.014c-0.080-0.072-0.165-0.146-0.262-0.226l-0.035-0.029-0.048-0.039-0.006-0.062c-0.012-0.143-0.017-0.292-0.017-0.443 0.002-1.613 0.686-3.065 1.778-4.085l0.003-0.003 0.098-0.091 0.1 0.091c1.095 1.023 1.779 2.475 1.781 4.087v0c0 0.002 0 0.003 0 0.005 0 0.295-0.023 0.585-0.066 0.867l0.004-0.032-0.007 0.049-0.035 0.033-0.029 0.030c-0.061 0.061-0.12 0.12-0.176 0.182l-0.036 0.036q-0.1 0.111-0.195 0.226l-0.049 0.062c-0.048 0.058-0.094 0.117-0.148 0.188l-0.045 0.061c-0.055 0.077-0.11 0.153-0.161 0.231l-0.009 0.013c-0.053 0.082-0.105 0.166-0.156 0.252l-0.042 0.074c-0.038 0.065-0.072 0.132-0.107 0.198l-0.038 0.071c-0.045 0.088-0.086 0.178-0.131 0.279l-0.007 0.017q-0.051 0.124-0.099 0.248zM28.621 10.181l-0.054 0.020c-0.408 0.156-0.883 0.27-1.376 0.319l-0.023 0.002-0.151 0.016-0.008-0.152c-0.005-0.095-0.006-0.19-0.006-0.284-0-0.007-0-0.015-0-0.023 0-0.191 0.011-0.379 0.031-0.564l-0.002 0.023c0.013-0.138 0.030-0.273 0.054-0.407 0.026-0.149 0.059-0.298 0.097-0.441 0.601-2.236 2.502-3.896 4.823-4.133l0.024-0.002 0.151-0.014 0.009 0.15c0.004 0.095 0.007 0.19 0.007 0.284 0 2.289-1.436 4.382-3.575 5.206z"></path>
<path d="M24.114 2.185h-3.080l0.596 1.272c0.197 0.022 0.396 0.050 0.596 0.090l-0.402-0.86h2.097c0.058-0.168 0.122-0.335 0.192-0.502zM27.227 11.63l-0.608 1.299-0.608-1.299c-0.2-0.017-0.397-0.043-0.592-0.080l1.199 2.563 1.2-2.563c-0.195 0.036-0.394 0.062-0.592 0.079zM28.999 2.186c0.072 0.166 0.136 0.336 0.192 0.502h2.221l-0.434 0.927c0.204-0.051 0.41-0.091 0.612-0.121l0.612-1.308z"></path>
<path d="M7.162 18.927v9.296h-1.214v-4.214h-4.735v4.214h-1.213v-9.296h1.213v4.082h4.735v-4.082z"></path>
<path d="M17.088 18.927v5.881q0 1.24 0.607 1.84t1.687 0.6q1.067 0 1.674-0.6t0.607-1.84v-5.881h1.214v5.868q0 1.16-0.467 1.954t-1.26 1.181-1.781 0.387-1.78-0.387q-0.794-0.387-1.254-1.181t-0.46-1.954v-5.868z"></path>
<path d="M32.876 27.989q-0.727-0.327-1.14-0.907t-0.427-1.34h1.294q0.066 0.654 0.54 1.101t1.381 0.447q0.866 0 1.366-0.434t0.5-1.113q0-0.533-0.294-0.867c-0.197-0.221-0.443-0.394-0.721-0.502l-0.013-0.004q-0.44-0.173-1.187-0.373-0.92-0.24-1.474-0.48t-0.947-0.753-0.393-1.38q0-0.761 0.387-1.347t1.087-0.907 1.607-0.32q1.307 0 2.141 0.653t0.94 1.734h-1.334q-0.067-0.534-0.56-0.94t-1.307-0.407q-0.761 0-1.24 0.394t-0.48 1.1q0 0.507 0.287 0.827c0.191 0.211 0.427 0.377 0.694 0.482l0.013 0.004q0.421 0.167 1.18 0.381 0.92 0.253 1.481 0.5t0.96 0.761 0.4 1.394q0 0.68-0.36 1.28t-1.067 0.974-1.667 0.373q-0.921-0.001-1.647-0.328z"></path>
<path d="M53.238 18.927v9.296h-1.214v-4.214h-4.735v4.214h-1.214v-9.296h1.213v4.082h4.735v-4.082z"></path>
<path d="M14.135 31.983l-0.414-0.71h-0.274v0.71h-0.227v-1.738h0.561c0.131 0 0.242 0.022 0.333 0.067 0.085 0.040 0.154 0.103 0.202 0.18l0.001 0.002c0.042 0.072 0.068 0.159 0.068 0.252 0 0.003-0 0.007-0 0.010v-0c0 0.002 0 0.005 0 0.008 0 0.117-0.039 0.224-0.105 0.31l0.001-0.001c-0.069 0.092-0.173 0.152-0.31 0.182l0.437 0.728zM13.447 31.090h0.334c0.123 0 0.215-0.030 0.277-0.091s0.093-0.142 0.093-0.243-0.030-0.183-0.091-0.239-0.153-0.085-0.278-0.085h-0.334z"></path>
<path d="M17.206 30.429v0.581h0.634v0.187h-0.634v0.598h0.709v0.187h-0.936v-1.74h0.935v0.187z"></path>
<path d="M21.571 30.245v0.184h-0.474v1.553h-0.227v-1.553h-0.476v-0.184z"></path>
<path d="M25.008 31.983l-0.413-0.71h-0.275v0.71h-0.227v-1.738h0.561q0.197 0 0.333 0.067c0.085 0.040 0.154 0.102 0.202 0.18l0.001 0.002c0.042 0.072 0.068 0.159 0.068 0.252 0 0.003-0 0.007-0 0.010v-0c0 0.002 0 0.005 0 0.008 0 0.117-0.039 0.224-0.105 0.31l0.001-0.001c-0.069 0.092-0.173 0.152-0.311 0.182l0.437 0.728zM24.32 31.090h0.334c0.123 0 0.215-0.030 0.277-0.091s0.093-0.142 0.093-0.243-0.030-0.183-0.091-0.239-0.153-0.085-0.278-0.085h-0.334z"></path>
<path d="M28.079 30.429v0.581h0.634v0.187h-0.634v0.598h0.709v0.187h-0.935v-1.74h0.935v0.187z"></path>
<path d="M32.401 31.596h-0.758l-0.14 0.386h-0.239l0.628-1.728h0.262l0.626 1.728h-0.239zM32.336 31.412l-0.314-0.878-0.315 0.878z"></path>
<path d="M36.367 30.245v0.184h-0.474v1.553h-0.227v-1.553h-0.476v-0.184z"></path>
<path d="M39.132 31.939c-0.087-0.038-0.159-0.095-0.212-0.168l-0.001-0.001c-0.050-0.070-0.080-0.157-0.080-0.251 0 0 0-0 0-0v0h0.242c0.008 0.082 0.045 0.154 0.101 0.206l0 0q0.088 0.083 0.258 0.084 0.162 0 0.256-0.081c0.057-0.049 0.093-0.121 0.093-0.201 0-0.002-0-0.005-0-0.007v0c0-0.003 0-0.007 0-0.011 0-0.058-0.021-0.111-0.055-0.152l0 0c-0.037-0.041-0.083-0.073-0.135-0.094l-0.002-0.001c-0.057-0.022-0.131-0.046-0.206-0.066l-0.016-0.003c-0.108-0.026-0.2-0.057-0.288-0.094l0.013 0.005c-0.072-0.032-0.131-0.080-0.176-0.14l-0.001-0.001q-0.074-0.096-0.074-0.258c-0-0.002-0-0.005-0-0.008 0-0.091 0.027-0.175 0.073-0.245l-0.001 0.002c0.050-0.074 0.119-0.133 0.2-0.169l0.003-0.001c0.084-0.038 0.183-0.060 0.286-0.060 0.005 0 0.010 0 0.015 0h-0.001q0.244 0 0.4 0.122c0.099 0.077 0.165 0.192 0.176 0.323l0 0.002h-0.249q-0.013-0.1-0.105-0.176c-0.062-0.051-0.143-0.076-0.244-0.076-0.095 0-0.173 0.024-0.232 0.073s-0.090 0.118-0.090 0.206c-0 0.003-0 0.006-0 0.009 0 0.056 0.020 0.107 0.054 0.146l-0-0c0.036 0.039 0.080 0.070 0.13 0.090l0.002 0.001c0.056 0.022 0.13 0.047 0.205 0.067l0.016 0.004c0.11 0.029 0.202 0.061 0.291 0.099l-0.014-0.005c0.072 0.033 0.133 0.081 0.179 0.141l0.001 0.001q0.075 0.095 0.075 0.26c0 0 0 0.001 0 0.001 0 0.088-0.025 0.17-0.068 0.24l0.001-0.002c-0.049 0.078-0.116 0.14-0.196 0.181l-0.003 0.001c-0.086 0.044-0.187 0.069-0.294 0.069-0.006 0-0.012-0-0.018-0l0.001 0c-0.004 0-0.008 0-0.012 0-0.107 0-0.209-0.023-0.301-0.064l0.005 0.002z"></path>
</svg>
