<!-- Generated by IcoMoon.io -->
<svg version="1.1" xmlns="http://www.w3.org/2000/svg" width="32" height="32" viewBox="0 0 32 32">
<title>oasia</title>
<path d="M0.005 18.064c0 0.757 1.147 1.408 1.147 1.408l4.56 2.512 0.005-2.432c0-1.264-0.741-1.664-0.741-1.664l-3.44-1.904c-1.52-0.832-1.536-1.248-1.536-1.259l0.005 3.339z"></path>
<path d="M4.363 10.016l-0.005 2.427c0 1.333 0.64 1.611 0.64 1.611l3.536 1.957c1.536 0.843 1.536 1.259 1.536 1.259v-3.339c0-0.811-1.152-1.413-1.152-1.413l-4.555-2.501z"></path>
<path d="M3.968 10.016l-3.589 3.744c0 0-0.379 0.357-0.379 1.157v3.147c0 0 0.101-0.603 0.421-0.949l3.093-3.125c0 0 0.453-0.379 0.453-1.621v-2.352z"></path>
<path d="M6.112 21.984l3.595-3.749c0 0 0.373-0.357 0.373-1.147v-3.147c0 0-0.091 0.597-0.485 1.008l-3.024 3.061c0 0-0.453 0.379-0.453 1.621l-0.005 2.352z"></path>
<path d="M13.931 14.485c-0.875 0-1.467 0.709-1.467 1.76 0 1.056 0.592 1.76 1.467 1.76 0.891 0 1.467-0.693 1.467-1.76 0.005-1.067-0.571-1.76-1.467-1.76zM13.931 18.64c-1.413 0-2.331-0.917-2.331-2.336 0-1.408 1.003-2.464 2.331-2.464 1.397 0 2.336 0.949 2.336 2.357 0.005 1.392-1.003 2.443-2.336 2.443zM19.317 14.469c-0.8 0-1.616 0.592-1.616 1.733 0 1.093 0.48 1.744 1.285 1.744 0.496 0 0.907-0.251 1.243-0.768 0.016-0.293 0.027-0.763 0.027-1.104 0-0.533-0.011-1.179-0.027-1.429-0.277-0.128-0.544-0.176-0.912-0.176zM18.677 18.64c-0.912 0-1.835-0.795-1.835-2.309 0-1.445 1.067-2.496 2.539-2.496 0.384 0 0.693 0.048 1.061 0.165l0.709-0.229-0.005 0.064c-0.064 0.896-0.075 1.339-0.075 2.309 0 0.96 0 1.36 0.037 2.347v0.048h-0.784l-0.005-0.037-0.075-0.624c-0.347 0.491-0.896 0.763-1.568 0.763zM23.52 18.64c-0.693 0-1.189-0.112-1.653-0.363l-0.032-0.021 0.016-0.037 0.213-0.549 0.016-0.048 0.043 0.021c0.453 0.229 0.928 0.352 1.381 0.352 0.587 0 0.939-0.224 0.939-0.608 0-0.304-0.128-0.507-0.816-0.784l-0.603-0.245c-0.715-0.293-1.045-0.699-1.045-1.269 0-0.763 0.72-1.253 1.835-1.253 0.501 0 0.869 0.059 1.296 0.213l0.043 0.016-0.016 0.043-0.181 0.571-0.016 0.048-0.048-0.021c-0.304-0.128-0.672-0.197-1.067-0.197-0.683 0-1.029 0.171-1.029 0.517 0 0.203 0.075 0.416 0.64 0.635l0.608 0.24c0.88 0.341 1.221 0.736 1.221 1.408-0.005 0.784-0.72 1.333-1.744 1.333zM26.448 12.96c-0.4 0-0.576-0.272-0.576-0.539 0-0.245 0.181-0.512 0.576-0.512s0.571 0.256 0.571 0.512c0 0.267-0.176 0.539-0.571 0.539zM26.891 18.539h-0.901v-0.048c0.037-0.859 0.037-1.387 0.037-2.251 0-0.928 0-1.312-0.037-2.245v-0.048h0.901v0.048c-0.037 0.917-0.037 1.307-0.037 2.245 0 0.869 0 1.392 0.037 2.251v0.048zM30.165 14.469c-0.8 0-1.616 0.592-1.616 1.733 0 1.093 0.48 1.744 1.285 1.744 0.496 0 0.907-0.251 1.237-0.768 0.021-0.293 0.027-0.763 0.027-1.104 0-0.533-0.011-1.179-0.027-1.429-0.277-0.128-0.539-0.176-0.907-0.176zM29.525 18.64c-0.912 0-1.835-0.795-1.835-2.309 0-1.445 1.067-2.496 2.539-2.496 0.384 0 0.693 0.048 1.061 0.165l0.709-0.229-0.005 0.064c-0.064 0.896-0.075 1.339-0.075 2.309 0 0.96 0 1.36 0.037 2.347v0.048h-0.779l-0.005-0.037-0.075-0.624c-0.352 0.491-0.907 0.763-1.573 0.763z"></path>
</svg>
