<!-- Generated by IcoMoon.io -->
<svg version="1.1" xmlns="http://www.w3.org/2000/svg" width="32" height="32" viewBox="0 0 32 32">
<title>raffles</title>
<path d="M12.584 0.033c0.254-0.055 0.507 0.049 0.721 0.178 0.356 0.217 0.65 0.521 0.92 0.835 0.578 0.697 0.959 1.534 1.245 2.387 0.148 0.453 0.264 0.916 0.342 1.386 0.044 0.268 0.088 0.537 0.101 0.809 0.002 0 0.005-0.001 0.006-0.001 0.005-0.015 0.016-0.045 0.022-0.060 0.023-0.029 0.036-0.075 0.003-0.103 0.005-0.109 0.028-0.215 0.037-0.324 0.128-0.916 0.381-1.814 0.762-2.657 0.188-0.42 0.415-0.824 0.686-1.196 0.215-0.294 0.466-0.56 0.737-0.803 0.228-0.192 0.479-0.371 0.771-0.445 0.183-0.044 0.4-0.027 0.538 0.115 0.121 0.138 0.177 0.317 0.237 0.486 0.095 0.298 0.169 0.603 0.244 0.907 0.189-0.003 0.388-0.013 0.563 0.070 0.188 0.089 0.205 0.393 0.029 0.504-0.118 0.090-0.287 0.075-0.403-0.010-0.129-0.094-0.202-0.243-0.265-0.385-0.131 0.016-0.262 0.038-0.392 0.061h-0.002c-0.037-0.009-0.073-0.017-0.109-0.025 0.003 0.048 0.005 0.099 0.037 0.139 0.003 0.004 0.007 0.012 0.010 0.016 0.019 0.191 0.033 0.382 0.062 0.571 0.154-0.003 0.32-0.007 0.451 0.086 0.178 0.107 0.213 0.408 0.040 0.534-0.135 0.079-0.317 0.042-0.432-0.057-0.115-0.089-0.166-0.23-0.206-0.364-0.179 0.011-0.355 0.048-0.532 0.077-0.002 0.005-0.007 0.015-0.009 0.020 0.018 0.19 0.030 0.38 0.063 0.568 0.137 0.003 0.288-0.014 0.411 0.059 0.18 0.108 0.208 0.401 0.041 0.533-0.112 0.081-0.272 0.071-0.389 0.006-0.145-0.092-0.196-0.27-0.226-0.43-0.205 0.007-0.407 0.043-0.61 0.069 0.018 0.157 0.018 0.316 0.057 0.47 0.195-0.011 0.408 0.020 0.559 0.156 0.125 0.111 0.13 0.332 0.005 0.444-0.134 0.131-0.375 0.122-0.505-0.010-0.12-0.111-0.153-0.278-0.203-0.427-0.382 0.105-0.713 0.348-0.967 0.647-0.3 0.349-0.522 0.757-0.697 1.181-0.097 0.249-0.193 0.5-0.247 0.762 0.576-0.541 1.301-0.919 2.072-1.091 0.403-0.093 0.818-0.128 1.232-0.119 0.128-0.296 0.262-0.589 0.399-0.881 0.152-0.318 0.307-0.636 0.506-0.929 0.311-0.476 0.642-0.945 1.049-1.345 0.208-0.198 0.439-0.382 0.713-0.479 0.136-0.049 0.285-0.059 0.428-0.038 0.183 0.045 0.289 0.222 0.36 0.382 0.168 0.397 0.229 0.826 0.349 1.237 0.209-0.012 0.458-0.017 0.608 0.158 0.162 0.174 0.045 0.511-0.194 0.534-0.028-0.030-0.076-0.031-0.104-0.001-0.13-0.016-0.216-0.13-0.28-0.234-0.052-0.086-0.090-0.178-0.128-0.27-0.183 0.031-0.366 0.062-0.552 0.075 0.009 0.219-0.013 0.437-0.018 0.656 0.009 0.007 0.027 0.021 0.036 0.028 0.027 0.030 0.068 0.025 0.102 0.012 0.207 0.006 0.428 0.209 0.371 0.432-0.048 0.185-0.288 0.237-0.445 0.168-0.173-0.086-0.236-0.293-0.239-0.473-0.094-0.018-0.19-0.010-0.284-0.008-0.115 0.015-0.232 0.005-0.348 0.008-0.021 0.199-0.055 0.397-0.069 0.597 0.159 0.009 0.338 0.030 0.453 0.154 0.149 0.143 0.115 0.441-0.085 0.521-0.126 0.067-0.285 0.022-0.377-0.080-0.113-0.115-0.154-0.28-0.164-0.436-0.191 0.009-0.382 0.023-0.573 0.029 0-0.030-0.054-0.037-0.053-0.003-0.037 0.161-0.065 0.323-0.106 0.482 0.159 0.094 0.314 0.214 0.4 0.383 0.046 0.087 0.046 0.199-0.012 0.281-0.067 0.1-0.191 0.147-0.307 0.146-0.17-0.014-0.267-0.187-0.285-0.341-0.010-0.132-0.004-0.265 0.019-0.395-0.324-0.149-0.682-0.227-1.039-0.227-0.184 0.413-0.366 0.827-0.538 1.246 0.376-0.040 0.756-0.020 1.13 0.030 0.325 0.048 0.647 0.13 0.947 0.267 0.058 0.024 0.11 0.062 0.171 0.076 0.645-0.583 1.291-1.172 2.007-1.669 0.36-0.249 0.758-0.442 1.179-0.563 0.209-0.056 0.43-0.099 0.646-0.061 0.159 0.023 0.31 0.122 0.376 0.271 0.078 0.158 0.067 0.339 0.058 0.509-0.033 0.336-0.072 0.671-0.064 1.009 0.179 0.049 0.372 0.112 0.491 0.264 0.113 0.139 0.088 0.366-0.055 0.475-0.121 0.085-0.31 0.087-0.409-0.034-0.128-0.153-0.144-0.36-0.17-0.55-0.049-0.011-0.097-0.022-0.146-0.033-0.080-0.020-0.159-0.041-0.238-0.062-0.036-0.011-0.071-0.022-0.106-0.034-0.071 0.186-0.159 0.364-0.241 0.546 0.124 0.061 0.269 0.123 0.325 0.261 0.049 0.112 0.068 0.257-0.010 0.361-0.064 0.088-0.181 0.112-0.284 0.109-0.122-0.026-0.229-0.104-0.283-0.217-0.038-0.133-0.008-0.27 0.026-0.4-0.214-0.061-0.43-0.113-0.642-0.178-0.092 0.185-0.195 0.365-0.276 0.555 0.128 0.074 0.274 0.162 0.314 0.316 0.036 0.143-0.012 0.33-0.158 0.393-0.162 0.075-0.368-0.025-0.427-0.189-0.061-0.144-0.005-0.299 0.035-0.44-0.204-0.077-0.413-0.141-0.62-0.209-0.084 0.13-0.172 0.258-0.267 0.381 0.119 0.129 0.235 0.287 0.22 0.473 0.003 0.161-0.135 0.31-0.296 0.318-0.015-0.033-0.063-0.029-0.079 0.001-0.117-0.008-0.239-0.081-0.27-0.2-0.036-0.174 0.043-0.344 0.133-0.488 0.019-0.040 0.064-0.074 0.065-0.12-0.233-0.229-0.505-0.418-0.789-0.578-0.534 0.513-1.060 1.036-1.62 1.522 0.769 0.264 1.463 0.709 2.089 1.222 0.324-0.201 0.654-0.393 0.976-0.597 0.771-0.47 1.536-0.98 2.408-1.246 0.255-0.078 0.521-0.132 0.788-0.136 0.185 0.006 0.382 0.036 0.534 0.149 0.114 0.084 0.184 0.221 0.194 0.362 0.013 0.232-0.023 0.462-0.064 0.689-0.054 0.274-0.131 0.543-0.186 0.816 0.132 0.069 0.273 0.136 0.369 0.254 0.096 0.116 0.121 0.29 0.051 0.425-0.042 0.090-0.148 0.148-0.247 0.132-0.121-0.030-0.23-0.115-0.28-0.23-0.066-0.143-0.060-0.304-0.059-0.457-0.192-0.077-0.383-0.159-0.569-0.25-0.149 0.172-0.294 0.349-0.43 0.531 0.104 0.080 0.221 0.159 0.267 0.288 0.083 0.185-0.049 0.42-0.243 0.462-0.161 0.021-0.34-0.078-0.382-0.24-0.038-0.154 0.028-0.305 0.092-0.442-0.186-0.117-0.389-0.206-0.589-0.297-0.155 0.199-0.317 0.392-0.465 0.597 0.114 0.072 0.234 0.155 0.276 0.291 0.060 0.148 0.016 0.35-0.136 0.423-0.152 0.083-0.364 0.013-0.435-0.145-0.088-0.164-0.025-0.356 0.046-0.514-0.213-0.104-0.434-0.189-0.647-0.292-0.115 0.12-0.233 0.236-0.348 0.357 0.097 0.154 0.178 0.331 0.158 0.518-0.031 0.139-0.14 0.256-0.275 0.299-0.084 0.020-0.179 0.010-0.245-0.050-0.105-0.088-0.134-0.236-0.113-0.366 0.049-0.155 0.154-0.281 0.259-0.4-0.153-0.201-0.33-0.382-0.519-0.549-0.061-0.052-0.115-0.114-0.184-0.155-0.53 0.293-1.057 0.598-1.615 0.837 0.199 0.144 0.407 0.278 0.596 0.437 0.399 0.334 0.765 0.714 1.047 1.152 0.435-0.131 0.862-0.288 1.297-0.422 0.412-0.133 0.826-0.258 1.244-0.373 0.353-0.093 0.707-0.186 1.068-0.241 0.245-0.040 0.495-0.071 0.743-0.038 0.217 0.026 0.443 0.070 0.624 0.2 0.146 0.099 0.23 0.277 0.224 0.453 0.008 0.185-0.054 0.363-0.119 0.533-0.112 0.283-0.26 0.55-0.37 0.832 0.109 0.070 0.215 0.15 0.29 0.256 0.070 0.097 0.084 0.227 0.054 0.341-0.033 0.129-0.161 0.224-0.294 0.217-0.126 0.004-0.234-0.090-0.283-0.201-0.060-0.173-0.013-0.361 0.043-0.528-0.207-0.136-0.422-0.259-0.64-0.376-0.183 0.155-0.364 0.314-0.531 0.485 0.114 0.085 0.239 0.19 0.253 0.342 0.038 0.166-0.069 0.348-0.234 0.393-0.177 0.040-0.379-0.081-0.413-0.262-0.031-0.161 0.035-0.316 0.121-0.448-0.203-0.121-0.41-0.237-0.621-0.341-0.182 0.153-0.369 0.301-0.538 0.468 0.029 0.070 0.104 0.112 0.138 0.182 0.119 0.167 0.065 0.447-0.133 0.526-0.193 0.079-0.409-0.087-0.432-0.283 0.032-0.036 0.029-0.088 0.002-0.125 0.016-0.112 0.083-0.206 0.146-0.296-0.175-0.119-0.362-0.22-0.547-0.322-0.161 0.114-0.331 0.212-0.499 0.314 0.047 0.17 0.083 0.349 0.046 0.524-0.052 0.172-0.243 0.293-0.421 0.257-0.181-0.037-0.299-0.243-0.243-0.419 0.056-0.2 0.251-0.31 0.405-0.43-0.107-0.351-0.287-0.675-0.463-0.996-0.49 0.144-0.983 0.279-1.482 0.389-0.479 0.102-0.964 0.197-1.454 0.224-0.148-0.031-0.299-0.010-0.449-0.018-0.078-0.004-0.156 0.005-0.232 0.017-0.298-0.019-0.598-0.086-0.864-0.227-0.134-0.071-0.249-0.172-0.354-0.281-0.056 0.323-0.222 0.621-0.445 0.859-0.129 0.139-0.262 0.277-0.405 0.403-0.007 0.007-0.022 0.021-0.030 0.028-0.011 0.266-0.004 0.533 0 0.799 0.009-0.003 0.027-0.008 0.035-0.011 0.009 0.049 0.016 0.097 0.022 0.147 0.044 0.157 0.119 0.309 0.236 0.424 0.146-0.171 0.368-0.249 0.584-0.28 0.168-0.020 0.348-0.008 0.498 0.077 0.146 0.082 0.208 0.286 0.135 0.436-0.038 0.086-0.122 0.14-0.206 0.174-0.215 0.072-0.448 0.053-0.665 0.001-0.114-0.027-0.218-0.084-0.318-0.143-0.156 0.265-0.2 0.575-0.249 0.873-0.025 0.142-0.026 0.288-0.048 0.431-0.024 0.088-0.034 0.18-0.029 0.271 0.014 0.314-0.005 0.628 0 0.941 0.005 0.292-0.005 0.584 0.005 0.877 0.006 0.235-0.027 0.473 0.011 0.707 0.003 0.054-0.042 0.090-0.078 0.122-0.049-0.041-0.084-0.1-0.078-0.166 0.001-0.869 0.003-1.739-0.001-2.609-0.011-0.266-0.045-0.531-0.089-0.793-0.046-0.226-0.092-0.458-0.216-0.657-0.203 0.146-0.46 0.191-0.705 0.193-0.161-0.011-0.346-0.037-0.451-0.174-0.066-0.076-0.064-0.184-0.049-0.277 0.029-0.12 0.13-0.212 0.245-0.249 0.231-0.080 0.487-0.044 0.71 0.045 0.11 0.043 0.205 0.116 0.289 0.199 0.161-0.18 0.256-0.418 0.254-0.66-0.002-0.24 0.004-0.481-0.002-0.721-0.055-0.071-0.13-0.124-0.192-0.189-0.098-0.103-0.197-0.205-0.291-0.311-0.18-0.222-0.314-0.485-0.363-0.768-0.251 0.293-0.63 0.436-1.004 0.488-0.079 0.008-0.161 0.034-0.239 0.019-0.033-0.019-0.073-0.021-0.102 0.005-0.012 0.003-0.037 0.007-0.049 0.010-0.101-0.038-0.211-0.036-0.313-0.001-0.068 0.004-0.138 0.003-0.204-0.011-0.063-0.036-0.134-0.046-0.202-0.015l-0.004 0.001c-0.924-0.1-1.827-0.336-2.717-0.597-0.178 0.318-0.347 0.643-0.467 0.988 0.123 0.101 0.263 0.188 0.356 0.32 0.087 0.124 0.089 0.31-0.012 0.426-0.067 0.084-0.178 0.13-0.285 0.114-0.129-0.018-0.248-0.103-0.302-0.223-0.007-0.022-0.014-0.043-0.021-0.064-0.026-0.168 0.011-0.336 0.057-0.497-0.169-0.102-0.339-0.203-0.501-0.316-0.185 0.105-0.375 0.202-0.548 0.327 0.085 0.107 0.165 0.234 0.154 0.376 0.002 0.209-0.224 0.404-0.429 0.327-0.143-0.048-0.209-0.211-0.202-0.351 0.012-0.146 0.115-0.259 0.213-0.358-0.185-0.159-0.367-0.321-0.557-0.475-0.203 0.118-0.415 0.22-0.614 0.345 0.080 0.126 0.146 0.273 0.122 0.426-0.019 0.193-0.234 0.327-0.417 0.284-0.107-0.032-0.195-0.122-0.227-0.229-0.021-0.11-0.012-0.233 0.057-0.325 0.046-0.070 0.115-0.118 0.177-0.171 0-0.007 0.001-0.020 0.001-0.027-0.165-0.16-0.336-0.313-0.509-0.463-0.033 0.002-0.059 0.024-0.088 0.037-0.19 0.105-0.379 0.213-0.559 0.333 0.050 0.178 0.112 0.38 0.026 0.557-0.067 0.145-0.255 0.22-0.4 0.147-0.163-0.071-0.217-0.286-0.154-0.442 0.062-0.154 0.201-0.258 0.337-0.345-0.137-0.347-0.327-0.67-0.439-1.026-0.059-0.2-0.085-0.427 0.016-0.617 0.098-0.172 0.286-0.267 0.47-0.317 0.245-0.062 0.501-0.088 0.752-0.060 0.094 0.007 0.187 0.025 0.281 0.033l0.012 0.009c0.282 0.036 0.558 0.109 0.834 0.175 0.323 0.086 0.646 0.175 0.965 0.275 0.012 0.003 0.035 0.010 0.047 0.013 0.594 0.179 1.178 0.386 1.769 0.572 0.388-0.588 0.906-1.084 1.488-1.478 0.054-0.035 0.109-0.070 0.159-0.111-0.559-0.241-1.090-0.542-1.619-0.842-0.252 0.216-0.496 0.444-0.7 0.708 0.123 0.146 0.276 0.306 0.263 0.511 0.002 0.095-0.041 0.186-0.109 0.249-0.081 0.082-0.218 0.084-0.315 0.031-0.116-0.066-0.211-0.184-0.215-0.323-0.004-0.17 0.075-0.328 0.161-0.47-0.114-0.121-0.232-0.237-0.349-0.356-0.212 0.104-0.433 0.189-0.646 0.291 0.068 0.146 0.113 0.313 0.066 0.473-0.040 0.118-0.149 0.197-0.266 0.227l-0.012-0.016c-0.011-0.026-0.050-0.026-0.061 0.001l-0.012 0.016c-0.070-0.026-0.147-0.049-0.193-0.111-0.111-0.141-0.083-0.354 0.029-0.485 0.052-0.065 0.126-0.104 0.192-0.151-0.002-0.025-0.019-0.045-0.033-0.064-0.138-0.184-0.283-0.362-0.427-0.541-0.199 0.092-0.397 0.187-0.588 0.294 0.068 0.138 0.127 0.292 0.093 0.448-0.052 0.21-0.353 0.324-0.517 0.17-0.117-0.090-0.159-0.252-0.112-0.39 0.054-0.12 0.151-0.211 0.264-0.276-0.008-0.025-0.017-0.050-0.034-0.071-0.124-0.162-0.255-0.32-0.389-0.475-0.185 0.097-0.381 0.17-0.571 0.256 0.005 0.163 0.005 0.336-0.072 0.485-0.055 0.096-0.151 0.17-0.259 0.195-0.078 0.019-0.16-0.017-0.214-0.073-0.109-0.125-0.103-0.321-0.008-0.452 0.094-0.134 0.243-0.212 0.388-0.28-0.099-0.513-0.282-1.021-0.242-1.55 0.019-0.174 0.146-0.323 0.304-0.39 0.207-0.088 0.439-0.094 0.659-0.065 0.479 0.062 0.934 0.241 1.367 0.447 0.391 0.187 0.761 0.414 1.131 0.638 0.464 0.286 0.926 0.575 1.395 0.851 0.022 0.015 0.051 0.020 0.070-0.002 0.619-0.499 1.301-0.937 2.058-1.194-0.56-0.483-1.086-1.007-1.618-1.521-0.293 0.157-0.569 0.351-0.802 0.589 0.13 0.18 0.259 0.402 0.197 0.631-0.051 0.1-0.158 0.158-0.268 0.164-0.015-0.031-0.063-0.034-0.079-0.002-0.178-0.010-0.309-0.19-0.291-0.362 0.007-0.167 0.112-0.309 0.221-0.427-0.094-0.124-0.183-0.253-0.27-0.383-0.205 0.075-0.417 0.13-0.619 0.211 0.043 0.129 0.092 0.27 0.050 0.406-0.048 0.188-0.284 0.313-0.46 0.212-0.137-0.073-0.168-0.251-0.136-0.39 0.045-0.149 0.185-0.238 0.314-0.309-0.087-0.189-0.183-0.373-0.279-0.557-0.211 0.070-0.429 0.117-0.642 0.181 0.046 0.15 0.089 0.337-0.018 0.472-0.109 0.152-0.353 0.197-0.494 0.065-0.128-0.119-0.088-0.321-0.003-0.453 0.073-0.095 0.185-0.147 0.29-0.197-0.083-0.182-0.167-0.364-0.245-0.548-0.159 0.057-0.325 0.091-0.489 0.131-0.019 0.187-0.043 0.388-0.162 0.542-0.102 0.13-0.31 0.129-0.43 0.027-0.125-0.109-0.15-0.312-0.050-0.446 0.117-0.167 0.323-0.232 0.51-0.283-0.015-0.129-0.012-0.259-0.018-0.388-0.011-0.231-0.040-0.46-0.061-0.69l0.007-0.020c0.026-0.044 0.026-0.097 0-0.141-0.012-0.141 0.043-0.294 0.139-0.4 0.116-0.126 0.295-0.158 0.459-0.164 0.429 0.017 0.835 0.182 1.213 0.372 0.342 0.178 0.653 0.41 0.956 0.647 0.469 0.368 0.916 0.762 1.356 1.165 0.049 0.043 0.090 0.097 0.148 0.128 0.603-0.313 1.296-0.41 1.968-0.394 0.092 0 0.184 0.011 0.275 0.019-0.183-0.418-0.355-0.841-0.549-1.255-0.233 0.017-0.465 0.044-0.69 0.107-0.115 0.037-0.229 0.077-0.339 0.128 0.026 0.212 0.061 0.453-0.080 0.634-0.118 0.156-0.372 0.118-0.482-0.027-0.083-0.098-0.065-0.247 0.002-0.349 0.091-0.135 0.22-0.241 0.36-0.324l0.006-0.015c-0.024-0.156-0.071-0.309-0.095-0.466-0.212-0.008-0.423-0.022-0.635-0.033 0.005 0.23-0.117 0.491-0.356 0.551-0.104 0.004-0.213-0.030-0.283-0.109-0.095-0.118-0.1-0.3-0.006-0.42 0.112-0.141 0.304-0.172 0.474-0.178-0.012-0.201-0.039-0.4-0.068-0.599-0.208 0.009-0.415-0.018-0.623-0.010-0.016 0.147-0.041 0.309-0.153 0.416-0.125 0.13-0.357 0.127-0.482 0-0.056-0.060-0.069-0.145-0.066-0.223 0.033-0.117 0.114-0.22 0.227-0.269 0.089-0.049 0.19-0.058 0.288-0.070l0.022-0.005c0.016-0.106 0.013-0.216-0.025-0.317-0.011-0.115-0.017-0.23-0.015-0.346-0.185-0.012-0.367-0.047-0.551-0.072-0.045 0.128-0.105 0.252-0.187 0.361-0.054 0.071-0.13 0.133-0.222 0.142-0.028-0.029-0.076-0.030-0.105-0.001-0.141-0.015-0.233-0.147-0.264-0.276-0.013-0.137 0.052-0.279 0.177-0.342 0.153-0.098 0.34-0.075 0.512-0.076 0.102-0.388 0.173-0.784 0.313-1.161 0.074-0.178 0.171-0.386 0.369-0.45 0.19-0.041 0.391-0.005 0.565 0.078 0.317 0.146 0.569 0.395 0.804 0.646 0.32 0.358 0.596 0.752 0.857 1.154 0.243 0.365 0.427 0.765 0.611 1.161 0.095 0.208 0.189 0.417 0.28 0.626 0.152 0 0.304-0.003 0.455 0.005 0.792 0.053 1.577 0.292 2.242 0.73 0.219 0.138 0.415 0.307 0.612 0.473-0.129-0.481-0.308-0.951-0.558-1.382-0.151-0.261-0.329-0.509-0.545-0.72-0.227-0.226-0.507-0.403-0.818-0.485-0.044 0.152-0.082 0.319-0.203 0.431-0.142 0.136-0.397 0.133-0.527-0.018-0.094-0.115-0.092-0.302 0.018-0.407 0.147-0.152 0.373-0.178 0.574-0.171 0.025-0.156 0.046-0.313 0.050-0.471-0.2-0.025-0.4-0.060-0.602-0.069-0.038 0.15-0.077 0.318-0.208 0.416-0.092 0.070-0.211 0.069-0.32 0.059-0.063-0.031-0.128-0.068-0.16-0.134-0.085-0.152-0.036-0.371 0.121-0.457 0.121-0.066 0.265-0.050 0.398-0.053 0.034-0.195 0.054-0.393 0.065-0.591-0.034-0.003-0.067-0.005-0.101-0.008l-0.013-0.010c-0.145-0.011-0.286-0.057-0.433-0.053-0.034 0.153-0.107 0.309-0.245 0.393-0.096 0.068-0.223 0.081-0.335 0.051-0.205-0.078-0.21-0.383-0.064-0.519 0.133-0.128 0.328-0.137 0.502-0.128 0.031-0.229 0.055-0.458 0.073-0.688-0.156-0.027-0.311-0.054-0.468-0.073-0.070 0.172-0.169 0.355-0.348 0.431-0.157 0.071-0.364-0.008-0.424-0.171-0.044-0.137 0.004-0.32 0.148-0.375 0.17-0.072 0.363-0.078 0.544-0.053 0.111-0.403 0.189-0.819 0.359-1.203 0.062-0.149 0.178-0.286 0.343-0.322zM12.543 0.355c-0.136 0.099-0.209 0.257-0.269 0.41-0.087 0.237-0.146 0.483-0.221 0.724l-0.011 0.013c-0.004 0.022-0.009 0.043-0.013 0.065 0.144 0.022 0.288 0.041 0.432 0.063 0.031-0.178 0.059-0.369 0.176-0.514 0.081-0.097 0.216-0.111 0.334-0.103 0.039 0.011 0.080 0.018 0.118 0.035 0.099 0.056 0.154 0.169 0.164 0.28-0.040 0.008-0.041 0.102-0.002 0.11-0.014 0.133-0.092 0.256-0.208 0.322-0.122 0.075-0.27 0.086-0.41 0.076-0.020 0.226-0.046 0.451-0.086 0.675 0.171 0.019 0.342 0.044 0.513 0.063 0.003-0.18 0.024-0.381 0.151-0.52 0.165-0.196 0.533-0.11 0.599 0.138 0.023 0.148 0.017 0.317-0.091 0.432-0.12 0.148-0.323 0.176-0.502 0.176-0.001 0.187-0.028 0.372-0.033 0.559 0.196 0.011 0.388 0.046 0.582 0.069 0.012-0.146 0.027-0.297 0.092-0.432 0.037-0.087 0.126-0.146 0.22-0.15 0.098-0.004 0.204-0.006 0.292 0.046 0.077 0.046 0.13 0.132 0.132 0.223 0.020 0.183-0.081 0.371-0.245 0.455-0.098 0.053-0.212 0.046-0.32 0.042-0.021 0.158-0.039 0.317-0.068 0.473 0.261 0.058 0.505 0.178 0.717 0.34 0.273 0.204 0.492 0.472 0.675 0.758 0.24 0.38 0.424 0.795 0.549 1.227 0.007 0.013 0.022 0.040 0.029 0.054-0.002-0.004-0.005-0.013-0.007-0.018-0.037-1.229-0.326-2.444-0.788-3.582-0.286-0.73-0.706-1.414-1.263-1.969-0.244-0.229-0.508-0.454-0.831-0.562-0.13-0.041-0.288-0.061-0.406 0.024zM18.765 0.381c-0.353 0.164-0.638 0.44-0.9 0.722-0.277 0.309-0.514 0.653-0.716 1.016-0.188 0.336-0.331 0.693-0.467 1.052-0.191 0.51-0.347 1.034-0.46 1.567-0.119 0.57-0.199 1.15-0.205 1.733 0.078-0.292 0.189-0.574 0.319-0.846 0.192-0.391 0.432-0.766 0.755-1.062 0.248-0.233 0.555-0.408 0.888-0.483-0.017-0.062-0.026-0.125-0.035-0.188 0.046 0.003 0.033-0.092-0.010-0.081-0.010-0.067-0.018-0.135-0.023-0.202-0.095 0-0.195 0.013-0.285-0.025-0.215-0.083-0.346-0.351-0.26-0.569 0.038-0.098 0.138-0.16 0.241-0.169 0.105-0.007 0.229-0.021 0.312 0.058 0.095 0.085 0.112 0.217 0.14 0.334 0.007 0.061 0.013 0.123 0.016 0.185 0.199-0.020 0.395-0.057 0.595-0.069-0.029-0.187-0.032-0.377-0.046-0.566-0.179 0.021-0.381-0.026-0.501-0.169-0.134-0.164-0.144-0.432 0.008-0.587 0.138-0.105 0.358-0.128 0.488 0.002 0.14 0.142 0.157 0.351 0.17 0.539 0.168-0.025 0.338-0.041 0.506-0.066-0.013-0.093-0.034-0.184-0.042-0.278 0.030-0.060 0.021-0.128 0.014-0.192-0.007 0.011-0.022 0.032-0.029 0.042-0.014-0.081-0.020-0.162-0.024-0.244-0.144 0.007-0.297-0.002-0.422-0.081-0.137-0.080-0.209-0.243-0.206-0.397 0.009-0.123 0.059-0.258 0.177-0.314 0.121-0.046 0.268-0.048 0.382 0.019 0.141 0.101 0.179 0.284 0.216 0.444 0.007 0.042 0.016 0.084 0.028 0.125 0.025-0.005 0.051-0.011 0.077-0.017 0.119-0.015 0.237-0.031 0.355-0.049-0.115-0.308-0.169-0.636-0.309-0.935-0.064-0.133-0.154-0.273-0.302-0.32-0.151-0.039-0.308 0.008-0.445 0.071zM12.749 1.244c-0.087 0.116-0.095 0.267-0.098 0.406 0.078 0.007 0.157 0.019 0.235 0.002 0.118-0.018 0.22-0.111 0.249-0.227 0.030-0.1 0.007-0.232-0.090-0.288-0.108-0.051-0.231 0.019-0.296 0.107zM18.737 1.193c-0.073 0.131-0.035 0.316 0.089 0.403 0.107 0.078 0.249 0.067 0.374 0.053-0.015-0.158-0.019-0.339-0.148-0.452-0.080-0.086-0.245-0.118-0.315-0.004zM11.492 1.72c-0.084 0.015-0.184 0.059-0.206 0.15-0.025 0.115 0.106 0.198 0.208 0.179 0.172-0.026 0.273-0.19 0.338-0.336-0.113-0.003-0.229-0.014-0.341 0.007zM20.014 1.712c0.057 0.135 0.143 0.278 0.289 0.326 0.097 0.039 0.235-0.010 0.259-0.12 0.012-0.076-0.047-0.143-0.114-0.17-0.137-0.060-0.29-0.039-0.435-0.037zM13.318 2.181c-0.061 0.128-0.069 0.272-0.084 0.41h0.013l-0.006 0.027c0.079 0.003 0.158 0.003 0.237-0.009l-0.034-0.018c0.149-0.005 0.266-0.129 0.285-0.272 0.012-0.103-0.041-0.209-0.13-0.261-0.107-0.032-0.234 0.020-0.282 0.123zM18.245 2.058c-0.091 0.051-0.143 0.162-0.131 0.264 0.019 0.094 0.075 0.184 0.159 0.234 0.105 0.047 0.224 0.038 0.336 0.033-0.008-0.135-0.021-0.275-0.077-0.401-0.048-0.106-0.175-0.165-0.286-0.131zM9.159 2.507c-0.202 0.319-0.243 0.703-0.356 1.057 0.167 0.010 0.33 0.043 0.497 0.055 0.008-0.158 0.029-0.321 0.103-0.464 0.118-0.22 0.458-0.214 0.616-0.043 0.094 0.088 0.107 0.225 0.092 0.346-0.026 0.091-0.069 0.179-0.143 0.241-0.13 0.114-0.311 0.135-0.477 0.125-0.002 0.215-0.003 0.431 0 0.646 0.201-0.005 0.403-0.006 0.604-0.007-0.009-0.121-0.031-0.243-0.018-0.365 0.020-0.112 0.078-0.225 0.178-0.285 0.103-0.065 0.239-0.064 0.35-0.019 0.127 0.063 0.185 0.209 0.191 0.345 0.005 0.131-0.033 0.272-0.128 0.366-0.097 0.094-0.239 0.11-0.367 0.121 0.007 0.039 0.017 0.078 0.027 0.116-0.002 0.159 0.032 0.317 0.028 0.476 0.206-0.005 0.411 0.021 0.617 0.024-0.027-0.172-0.036-0.365 0.065-0.516 0.074-0.113 0.22-0.177 0.352-0.14 0.155 0.050 0.285 0.197 0.293 0.364 0.016 0.239-0.193 0.466-0.433 0.471 0.007-0.048-0.115-0.033-0.073 0.004 0.012 0.136 0.052 0.266 0.075 0.4 0.22-0.082 0.448-0.139 0.68-0.173-0.002 0.044 0.093 0.032 0.085-0.010 0.078-0.012 0.158-0.021 0.237-0.024-0.31-0.687-0.656-1.359-1.056-1.999-0.238-0.365-0.492-0.726-0.816-1.020-0.207-0.184-0.463-0.338-0.746-0.356-0.196-0.018-0.377 0.102-0.477 0.264zM21.678 2.434c-0.261 0.17-0.467 0.408-0.657 0.652-0.217 0.28-0.408 0.58-0.587 0.885-0.309 0.534-0.592 1.083-0.841 1.647 0.341 0.022 0.68 0.088 1 0.208 0.030-0.132 0.048-0.267 0.082-0.397-0.065-0.006-0.13-0.008-0.192-0.026-0.177-0.054-0.313-0.224-0.324-0.409s0.128-0.355 0.3-0.407c0.149-0.041 0.311 0.050 0.375 0.187 0.077 0.144 0.059 0.314 0.043 0.471 0.203-0.007 0.406-0.029 0.61-0.025 0-0.011 0.001-0.033 0.002-0.044 0.044-0.013 0.049-0.112 0.009-0.129 0.012-0.141 0.034-0.28 0.041-0.422-0.043-0.004-0.084-0.008-0.127-0.011-0.065-0.019-0.134-0.032-0.19-0.073-0.091-0.062-0.143-0.169-0.161-0.275-0.014-0.126-0.011-0.266 0.068-0.373 0.128-0.183 0.439-0.168 0.563 0.013 0.118 0.158 0.083 0.366 0.055 0.547 0.203 0.025 0.409 0.008 0.614 0.017 0.002-0.215 0.005-0.43 0-0.644-0.145 0.006-0.298-0.004-0.425-0.082-0.217-0.125-0.288-0.472-0.092-0.647 0.107-0.106 0.267-0.122 0.409-0.096 0.074 0.027 0.143 0.072 0.182 0.143 0.082 0.143 0.1 0.313 0.109 0.475 0.166-0.007 0.33-0.044 0.496-0.052-0.013-0.058-0.029-0.116-0.046-0.173-0.081-0.296-0.134-0.609-0.299-0.874-0.084-0.137-0.22-0.251-0.383-0.272-0.226-0.025-0.446 0.070-0.633 0.187zM11.921 2.725c-0.092 0.053-0.113 0.2-0.030 0.271 0.060 0.056 0.155 0.051 0.219 0.005 0.111-0.077 0.163-0.209 0.205-0.333-0.132 0.002-0.277-0.018-0.394 0.057zM19.529 2.669c0.037 0.108 0.080 0.22 0.165 0.3 0.057 0.055 0.146 0.091 0.222 0.052 0.071-0.033 0.103-0.113 0.094-0.188-0.023-0.036-0.039-0.081-0.078-0.103-0.118-0.081-0.268-0.061-0.403-0.061zM13.997 3.090c-0.029 0.114-0.034 0.232-0.041 0.349 0.104 0 0.215-0.002 0.307-0.056 0.138-0.074 0.177-0.285 0.077-0.403-0.106-0.116-0.306-0.027-0.344 0.11zM17.51 2.971c-0.088 0.093-0.074 0.249-0.003 0.348 0.092 0.114 0.254 0.122 0.389 0.117-0.017-0.109-0.020-0.22-0.042-0.329-0.029-0.145-0.225-0.244-0.343-0.136zM9.644 3.141c-0.137 0.123-0.135 0.326-0.148 0.496 0.098 0.002 0.204 0.006 0.292-0.046 0.113-0.061 0.19-0.183 0.194-0.312-0.009-0.155-0.223-0.248-0.338-0.138zM21.871 3.24c-0.022 0.132 0.053 0.268 0.164 0.338 0.091 0.062 0.204 0.061 0.31 0.060-0.006-0.169-0.009-0.362-0.133-0.491-0.105-0.103-0.301-0.044-0.341 0.094zM12.54 3.623c-0.051 0.044-0.037 0.116-0.034 0.176 0.077 0.092 0.225 0.096 0.314 0.019 0.078-0.085 0.104-0.201 0.131-0.309-0.141 0-0.311-0.002-0.411 0.114zM18.892 3.508c0.038 0.129 0.065 0.311 0.217 0.353 0.090 0.031 0.217-0.001 0.237-0.107 0.017-0.11-0.086-0.183-0.174-0.222-0.093-0.017-0.187-0.030-0.281-0.024zM8.241 3.748c-0.135 0.041-0.2 0.228-0.122 0.344 0.077 0.070 0.203 0.043 0.276-0.021 0.1-0.095 0.15-0.228 0.198-0.354-0.118-0.021-0.239-0.010-0.351 0.031zM23.252 3.716c0.044 0.121 0.093 0.248 0.186 0.341 0.058 0.062 0.15 0.090 0.232 0.068 0.049-0.013 0.087-0.062 0.088-0.113 0.012-0.098-0.034-0.208-0.126-0.252-0.119-0.052-0.252-0.064-0.38-0.044zM21.359 3.778c0.001 0.032 0.079 0.033 0.083 0.001-0.022-0.019-0.061-0.019-0.083-0.001zM10.304 3.991c-0.083 0.139-0.031 0.307-0.031 0.459 0.009 0 0.026-0.001 0.035-0.002-0.008 0.048 0.090 0.042 0.077-0.005 0.071-0.012 0.15-0.026 0.201-0.081 0.118-0.122 0.139-0.342 0.017-0.468-0.104-0.055-0.243-0.005-0.298 0.096zM21.192 3.961c-0.063 0.147-0.027 0.341 0.108 0.435 0.081 0.043 0.175 0.048 0.265 0.054 0.010-0.129 0.046-0.262 0.005-0.39-0.028-0.116-0.146-0.204-0.266-0.188-0.052 0.002-0.090 0.046-0.113 0.088zM13.341 4.277c-0.092 0.055-0.199 0.145-0.174 0.266 0.032 0.106 0.179 0.136 0.264 0.074 0.139-0.097 0.197-0.266 0.241-0.422-0.114 0.006-0.232 0.020-0.33 0.083zM18.173 4.194c0.036 0.124 0.077 0.251 0.161 0.351 0.049 0.056 0.115 0.11 0.194 0.103 0.071 0.004 0.135-0.049 0.156-0.115 0.013-0.058-0.022-0.112-0.055-0.156-0.112-0.13-0.289-0.181-0.455-0.183zM21.588 4.343c-0.019 0.021-0.021 0.060-0.002 0.082 0.032-0.001 0.034-0.080 0.002-0.082zM9.177 4.51c0.011 0.030 0.091 0.026 0.103-0.003-0.029-0.019-0.075-0.017-0.103 0.003zM22.535 4.642c0.001 0.091 0.014 0.183 0.047 0.268 0.046 0.108 0.182 0.153 0.288 0.114 0.072-0.036 0.092-0.137 0.043-0.199-0.084-0.124-0.242-0.154-0.379-0.183zM8.926 4.832c-0.045 0.063-0.017 0.155 0.047 0.193 0.085 0.020 0.192 0.014 0.252-0.058 0.075-0.090 0.078-0.213 0.085-0.325-0.138 0.030-0.303 0.060-0.384 0.19zM11.124 4.928c-0.015 0.11 0.001 0.222 0.019 0.33 0.206 0.030 0.42-0.139 0.416-0.351 0.005-0.103-0.081-0.217-0.191-0.206-0.12 0.009-0.217 0.114-0.244 0.227zM20.285 4.931c0.014 0.2 0.215 0.354 0.412 0.329 0.022-0.116 0.039-0.238 0.015-0.354-0.034-0.128-0.172-0.235-0.306-0.197-0.081 0.040-0.133 0.132-0.121 0.222zM10.304 4.759c-0.017 0.064-0.003 0.129 0.006 0.193 0.005-0.062 0.019-0.127 0.002-0.188zM21.525 4.878c-0.019 0.021-0.021 0.059-0.001 0.080 0.032-0.001 0.034-0.079 0.001-0.080zM6.559 5.616c-0.103 0.249-0.031 0.519-0.018 0.776l-0.020-0.028c-0.001 0.087-0.035 0.195 0.029 0.267 0.003 0.063 0.002 0.126 0.002 0.189 0.145-0.029 0.289-0.059 0.431-0.099-0.043-0.17-0.086-0.352-0.037-0.526 0.046-0.162 0.216-0.272 0.381-0.264 0.113 0.010 0.2 0.101 0.241 0.202 0.067 0.161 0.078 0.361-0.023 0.51-0.082 0.087-0.198 0.132-0.307 0.178 0.066 0.183 0.141 0.362 0.208 0.545 0.201-0.067 0.406-0.119 0.607-0.186-0.066-0.143-0.13-0.297-0.117-0.457 0.016-0.217 0.26-0.356 0.461-0.309 0.113 0.036 0.187 0.139 0.228 0.245 0.050 0.141 0.049 0.305-0.025 0.437-0.061 0.105-0.18 0.151-0.282 0.205 0.087 0.182 0.196 0.353 0.27 0.541 0.193-0.080 0.392-0.147 0.588-0.22-0.057-0.113-0.123-0.226-0.139-0.354-0.025-0.147 0.025-0.33 0.172-0.395 0.080-0.040 0.171-0.036 0.257-0.031 0.184 0.053 0.287 0.241 0.298 0.423-0.040-0.001-0.040 0.089 0 0.091-0.005 0.185-0.177 0.288-0.323 0.362 0.063 0.117 0.147 0.222 0.229 0.327 0.231-0.225 0.491-0.42 0.77-0.581-0.168-0.171-0.347-0.329-0.519-0.496-0.263-0.238-0.521-0.483-0.805-0.697-0.378-0.287-0.785-0.538-1.218-0.734-0.289-0.122-0.596-0.238-0.915-0.217-0.181 0.011-0.361 0.119-0.425 0.294zM23.48 5.776c-0.415 0.234-0.802 0.516-1.158 0.832-0.311 0.28-0.621 0.563-0.917 0.86 0.281 0.159 0.539 0.357 0.772 0.58 0.082-0.104 0.157-0.214 0.232-0.323-0.123-0.070-0.275-0.141-0.315-0.29-0.046-0.198 0.015-0.436 0.195-0.549 0.111-0.064 0.256-0.058 0.368 0.002 0.114 0.064 0.165 0.203 0.157 0.329-0.001 0.149-0.081 0.279-0.142 0.41 0.195 0.072 0.391 0.138 0.582 0.218 0.083-0.185 0.186-0.36 0.275-0.542-0.103-0.046-0.211-0.1-0.277-0.194-0.126-0.219-0.068-0.547 0.159-0.677 0.21-0.085 0.503 0.074 0.498 0.315 0.010 0.155-0.052 0.3-0.116 0.437 0.201 0.064 0.404 0.12 0.606 0.183 0.068-0.181 0.146-0.36 0.204-0.544-0.119-0.054-0.258-0.1-0.33-0.218-0.074-0.169-0.057-0.375 0.038-0.532 0.045-0.083 0.131-0.129 0.222-0.145 0.085 0.013 0.173 0.031 0.241 0.088 0.127 0.093 0.156 0.264 0.149 0.412-0.017 0.099-0.034 0.197-0.062 0.294 0.14 0.045 0.287 0.068 0.43 0.104-0.004-0.255 0.017-0.509 0.044-0.763 0.013-0.204 0.006-0.437-0.145-0.593-0.145-0.153-0.377-0.163-0.573-0.136-0.406 0.064-0.78 0.248-1.136 0.445zM21.652 5.389c0.002 0.040 0.005 0.080 0.009 0.12 0.042 0.128 0.121 0.265 0.261 0.302 0.145 0.039 0.246-0.166 0.158-0.274-0.105-0.121-0.278-0.136-0.427-0.148zM9.867 5.457c-0.062 0.032-0.121 0.085-0.135 0.156-0.015 0.108 0.087 0.237 0.204 0.194 0.172-0.060 0.248-0.25 0.266-0.418-0.114 0.007-0.231 0.018-0.335 0.068zM18.934 5.763c-0.682 0.067-1.362 0.257-1.95 0.616-0.343 0.204-0.649 0.464-0.925 0.751 0.087 0.1 0.177 0.198 0.265 0.298 0.242 0.276 0.44 0.601 0.511 0.965 0.054 0.274 0.051 0.577-0.095 0.823-0.143 0.243-0.401 0.38-0.645 0.503 0.155 0.087 0.313 0.172 0.442 0.296 0.179 0.162 0.296 0.389 0.325 0.628-0.039 0.054-0.027 0.121-0.028 0.183 0.002 0.049-0.001 0.102 0.028 0.145-0.019 0.162-0.085 0.316-0.182 0.447-0.16 0.211-0.384 0.36-0.607 0.498 0.003 0.006 0.009 0.017 0.012 0.023 0.126 0.079 0.248 0.164 0.361 0.261 0.211 0.181 0.373 0.429 0.419 0.706-0.042-0.013-0.034 0.067 0.005 0.048 0.020 0.074 0.084 0.127 0.134 0.183 0.184 0.201 0.434 0.328 0.693 0.402 0.359 0.103 0.736 0.112 1.107 0.098 0.505-0.031 1.005-0.119 1.499-0.231 0.441-0.094 0.875-0.216 1.299-0.367-0.16-0.251-0.332-0.496-0.543-0.707-0.331-0.341-0.717-0.629-1.136-0.852-0.224 0.098-0.455 0.178-0.689 0.245-0.278 0.073-0.572 0.124-0.857 0.063-0.176-0.036-0.361-0.106-0.47-0.256-0.084-0.111-0.076-0.271 0.004-0.382 0.093-0.13 0.232-0.219 0.376-0.283 0.227-0.088 0.475-0.041 0.704 0.011 0.3 0.080 0.588 0.203 0.861 0.351 0.027 0.011 0.052 0.040 0.084 0.032 0.576-0.236 1.116-0.548 1.661-0.847-0.271-0.22-0.556-0.425-0.852-0.611-0.383-0.246-0.802-0.432-1.232-0.578-0.285 0.251-0.59 0.489-0.943 0.637-0.15 0.060-0.31 0.115-0.474 0.1-0.109-0.010-0.22-0.074-0.258-0.181-0.064-0.131-0.075-0.291-0.004-0.422 0.099-0.191 0.302-0.3 0.498-0.368 0.192-0.070 0.4-0.066 0.601-0.050 0.181 0.020 0.358 0.058 0.535 0.103 0.571-0.491 1.081-1.048 1.637-1.555-0.598-0.288-1.268-0.422-1.93-0.379l0.029-0.020c-0.080-0.009-0.161-0.005-0.24 0.012l0.035 0.020c-0.029 0.005-0.058 0.011-0.086 0.017-0.143 0.31-0.293 0.624-0.52 0.882-0.132 0.153-0.325 0.258-0.53 0.254-0.154 0.011-0.317-0.065-0.386-0.206-0.053-0.099-0.040-0.216-0.027-0.323 0.030-0.076 0.063-0.151 0.113-0.216 0.116-0.167 0.302-0.267 0.486-0.342 0.23-0.091 0.472-0.14 0.715-0.179 0.197-0.423 0.388-0.849 0.57-1.278-0.134 0.014-0.269 0.010-0.401 0.030zM12.51 5.735c0.184 0.429 0.371 0.857 0.573 1.278 0.352 0.055 0.715 0.131 1.014 0.336 0.161 0.118 0.291 0.294 0.311 0.497-0.042-0.010-0.042 0.077 0.001 0.065-0.004 0.166-0.128 0.318-0.291 0.352-0.083-0.032-0.185-0.035-0.267 0.001-0.047-0.009-0.091-0.024-0.136-0.039-0.177-0.085-0.31-0.239-0.418-0.399-0.148-0.215-0.256-0.454-0.373-0.686-0.74-0.104-1.51 0.024-2.182 0.351 0.24 0.232 0.485 0.459 0.719 0.696 0.293 0.297 0.599 0.581 0.91 0.858 0.387-0.089 0.808-0.184 1.192-0.033 0.2 0.078 0.41 0.208 0.477 0.425 0.034 0.154 0.010 0.338-0.109 0.451-0.129 0.111-0.315 0.086-0.467 0.044-0.436-0.127-0.798-0.416-1.139-0.705-0.37 0.132-0.736 0.281-1.072 0.484-0.351 0.206-0.681 0.446-1.001 0.697 0.164 0.111 0.343 0.198 0.514 0.295 0.377 0.203 0.756 0.407 1.155 0.563 0.412-0.218 0.852-0.42 1.325-0.447 0.215-0.014 0.42 0.079 0.582 0.215 0.091 0.077 0.163 0.185 0.17 0.307-0.001 0.122-0.070 0.236-0.171 0.302-0.218 0.151-0.496 0.185-0.755 0.169-0.401-0.040-0.785-0.177-1.155-0.331-0.334 0.183-0.651 0.401-0.933 0.658-0.294 0.261-0.54 0.57-0.745 0.904 0.091 0.027 0.181 0.057 0.271 0.085 0.433 0.147 0.879 0.246 1.325 0.341 0.402 0.081 0.808 0.143 1.218 0.168 0.38 0.014 0.767 0.001 1.133-0.111 0.304-0.094 0.599-0.269 0.774-0.542 0.028-0.122 0.046-0.248 0.105-0.36 0.141-0.303 0.413-0.515 0.69-0.687 0.002-0.006 0.008-0.018 0.010-0.025-0.256-0.16-0.523-0.335-0.676-0.605-0.131-0.229-0.143-0.505-0.096-0.759 0.035-0.137 0.089-0.272 0.175-0.385 0.146-0.2 0.364-0.331 0.579-0.446-0.257-0.125-0.527-0.276-0.667-0.537-0.123-0.222-0.109-0.485-0.088-0.73 0.049-0.27 0.159-0.529 0.315-0.754 0.137-0.206 0.313-0.383 0.476-0.568-0.197-0.203-0.409-0.393-0.638-0.559-0.35-0.255-0.741-0.45-1.152-0.585-0.48-0.155-0.983-0.231-1.487-0.249zM7.109 6.187c-0.043 0.16 0.018 0.319 0.068 0.47 0.13-0.044 0.269-0.121 0.317-0.258 0.048-0.129-0.007-0.303-0.145-0.347-0.102-0.035-0.212 0.036-0.239 0.136zM24.376 6.453c0.066 0.104 0.18 0.163 0.29 0.206 0.048-0.153 0.125-0.32 0.065-0.481-0.030-0.1-0.146-0.165-0.244-0.123-0.153 0.059-0.188 0.267-0.111 0.398zM10.898 6.234c-0.067 0.091-0.114 0.21-0.073 0.322 0.064 0.065 0.187 0.087 0.246 0.005 0.093-0.126 0.070-0.291 0.066-0.438-0.005-0.016-0.015-0.048-0.021-0.064-0.077 0.052-0.16 0.101-0.218 0.175zM20.569 6.347c0.009-0.091 0.015-0.183 0.004-0.274-0.031 0.089-0.015 0.183-0.004 0.274zM20.722 6.058c-0.015 0.107-0.032 0.215-0.013 0.323 0.010 0.080 0.034 0.167 0.103 0.216 0.092 0.055 0.236-0.015 0.226-0.129-0.009-0.188-0.159-0.327-0.316-0.41zM8.098 6.699c-0.035 0.155 0.059 0.295 0.123 0.428 0.083-0.033 0.166-0.073 0.23-0.136 0.127-0.119 0.114-0.35-0.017-0.461-0.131-0.090-0.31 0.025-0.336 0.168zM23.446 6.512c-0.113 0.056-0.153 0.2-0.138 0.317 0.027 0.156 0.176 0.248 0.314 0.296 0.061-0.103 0.117-0.215 0.134-0.335 0.019-0.162-0.144-0.342-0.31-0.277zM9.202 7.172c0.022 0.133 0.078 0.257 0.135 0.377 0.117-0.065 0.249-0.148 0.283-0.287 0.009-0.104-0.021-0.221-0.104-0.29-0.134-0.087-0.318 0.053-0.314 0.2zM22.363 6.954c-0.102 0.044-0.133 0.167-0.145 0.268 0.013 0.162 0.163 0.256 0.288 0.332 0.056-0.122 0.116-0.246 0.134-0.381 0.006-0.138-0.142-0.263-0.277-0.219zM25.44 7.048c0.015 0.135 0.026 0.277 0.094 0.398 0.065 0.111 0.246 0.131 0.324 0.024 0.053-0.081 0.017-0.189-0.046-0.254-0.099-0.099-0.238-0.144-0.372-0.168zM5.953 7.38c0.013 0.038 0.022 0.080 0.052 0.109 0.037 0.041 0.095 0.045 0.145 0.057 0.055-0.021 0.123-0.034 0.153-0.091 0.075-0.122 0.086-0.27 0.097-0.408-0.186 0.035-0.411 0.122-0.447 0.334zM13.161 7.175c0.104 0.211 0.212 0.422 0.344 0.618 0.101 0.155 0.262 0.275 0.445 0.312 0.083 0.008 0.184 0.022 0.25-0.042 0.076-0.057 0.076-0.166 0.050-0.249-0.044-0.175-0.198-0.293-0.346-0.38-0.229-0.131-0.485-0.208-0.743-0.259zM17.794 7.534c-0.124 0.089-0.213 0.234-0.216 0.388-0.002 0.096 0.081 0.182 0.177 0.187 0.247 0.026 0.474-0.137 0.601-0.338 0.125-0.19 0.229-0.393 0.33-0.597-0.314 0.064-0.633 0.162-0.891 0.36zM15.415 7.933c-0.159 0.252-0.284 0.54-0.272 0.844 0.019 0.106 0.043 0.214 0.099 0.308 0.129 0.228 0.353 0.382 0.58 0.502 0.002-0.728-0.003-1.455-0.004-2.183-0.15 0.163-0.286 0.34-0.403 0.529zM16.028 7.404c-0.002 0.386 0.004 0.772-0.004 1.158 0.012 0.342-0.003 0.684-0.001 1.025 0.245-0.133 0.493-0.302 0.61-0.564 0.113-0.242 0.068-0.524-0.032-0.762-0.137-0.317-0.344-0.6-0.573-0.857zM7.076 7.778c-0.039 0.059-0.055 0.139-0.020 0.204 0.029 0.061 0.098 0.111 0.168 0.094 0.073-0.023 0.129-0.086 0.146-0.16 0.022-0.106-0.001-0.216-0.029-0.318-0.1 0.038-0.206 0.085-0.264 0.18zM24.505 7.598c-0.028 0.113-0.063 0.234-0.018 0.348 0.024 0.086 0.113 0.135 0.198 0.137 0.065-0.038 0.129-0.099 0.12-0.182-0.001-0.162-0.165-0.256-0.3-0.302zM8.268 8.286c-0.053 0.067-0.062 0.183 0.010 0.24 0.071 0.067 0.192 0.051 0.246-0.030 0.095-0.122 0.009-0.275-0.026-0.403-0.087 0.050-0.167 0.113-0.23 0.192zM23.279 8.37c-0.011 0.119 0.123 0.24 0.239 0.186 0.077-0.029 0.113-0.113 0.105-0.191-0.058-0.119-0.164-0.202-0.272-0.272-0.035 0.089-0.073 0.18-0.072 0.277zM9.498 8.737c0.027 0.054 0.055 0.116 0.116 0.139 0.078 0.037 0.188-0.009 0.204-0.096 0.026-0.177-0.066-0.349-0.18-0.477-0.096 0.122-0.162 0.277-0.14 0.435zM22.023 8.755c0.002 0.097 0.115 0.16 0.201 0.122 0.087-0.025 0.123-0.124 0.122-0.207 0.007-0.138-0.062-0.265-0.144-0.371-0.104 0.128-0.194 0.286-0.18 0.456zM5.664 8.697c-0.151 0.057-0.26 0.197-0.287 0.355-0.048-0.005-0.057 0.096-0.009 0.096-0.004 0.143 0.032 0.282 0.063 0.42 0.060 0.243 0.117 0.488 0.156 0.736 0.158-0.072 0.322-0.128 0.48-0.201-0.101-0.106-0.192-0.229-0.218-0.376 0.036-0.020 0.036-0.114-0.003-0.131 0.034-0.211 0.3-0.316 0.487-0.247 0.183 0.073 0.306 0.281 0.278 0.476-0.030 0.147-0.153 0.25-0.276 0.324 0.14 0.179 0.297 0.345 0.432 0.528 0.192-0.099 0.384-0.196 0.578-0.291-0.072-0.101-0.154-0.202-0.181-0.326-0.028-0.183 0.091-0.387 0.275-0.435 0.094-0.021 0.199-0.014 0.282 0.038 0.104 0.060 0.168 0.173 0.183 0.29-0.035 0.070-0.027 0.152 0.002 0.223-0.026 0.141-0.155 0.222-0.272 0.285 0.165 0.185 0.318 0.382 0.461 0.584 0.196-0.099 0.392-0.199 0.593-0.287-0.092-0.104-0.199-0.201-0.251-0.332-0.026-0.121-0.024-0.268 0.074-0.359 0.154-0.139 0.413-0.091 0.541 0.060 0.089 0.117 0.155 0.271 0.112 0.42-0.030 0.109-0.117 0.186-0.198 0.26 0.089 0.116 0.204 0.21 0.304 0.315 0.188-0.254 0.431-0.459 0.668-0.666-0.349-0.212-0.697-0.425-1.040-0.647-0.268-0.175-0.536-0.349-0.818-0.501-0.494-0.269-1.013-0.501-1.563-0.624-0.279-0.052-0.581-0.099-0.853 0.011zM25.28 8.697c-0.836 0.204-1.599 0.627-2.311 1.101-0.35 0.223-0.699 0.448-1.058 0.654 0.068 0.076 0.149 0.139 0.225 0.207 0.159 0.146 0.311 0.299 0.447 0.468 0.094-0.113 0.205-0.21 0.305-0.317-0.091-0.066-0.178-0.15-0.204-0.262-0.040-0.13 0.011-0.268 0.082-0.377 0.11-0.18 0.382-0.244 0.554-0.115 0.114 0.097 0.133 0.271 0.076 0.403-0.055 0.117-0.156 0.203-0.234 0.304 0.203 0.083 0.394 0.194 0.595 0.282 0.136-0.205 0.294-0.396 0.455-0.581-0.087-0.050-0.182-0.101-0.234-0.19-0.056-0.098-0.059-0.217-0.035-0.324 0.018-0.116 0.085-0.227 0.188-0.287 0.121-0.065 0.281-0.063 0.392 0.022 0.104 0.076 0.164 0.205 0.165 0.333-0.013 0.142-0.103 0.26-0.188 0.369 0.193 0.097 0.387 0.194 0.58 0.293 0.137-0.179 0.282-0.351 0.433-0.519-0.117-0.086-0.25-0.182-0.278-0.335-0.025-0.181 0.080-0.364 0.234-0.455 0.131-0.072 0.296-0.041 0.415 0.041 0.085 0.057 0.128 0.163 0.119 0.264-0.007 0.169-0.114 0.311-0.224 0.431 0.158 0.069 0.321 0.13 0.48 0.198 0.034-0.189 0.068-0.379 0.117-0.565 0.050-0.239 0.14-0.484 0.083-0.73-0.041-0.161-0.174-0.287-0.332-0.332-0.276-0.084-0.569-0.036-0.845 0.021zM16.845 8.661c-0.019 0.021-0.020 0.059-0.001 0.080 0.033 0 0.032-0.080 0.001-0.080zM12.522 9.166c0.209 0.173 0.428 0.337 0.67 0.461 0.174 0.085 0.373 0.155 0.568 0.111 0.062-0.010 0.124-0.041 0.159-0.096 0.042-0.14-0.059-0.267-0.152-0.36-0.158-0.142-0.379-0.191-0.586-0.207-0.049-0.007-0.099-0.008-0.147 0.001-0.174 0.005-0.345 0.045-0.512 0.090zM18.173 9.209c-0.083 0.051-0.151 0.125-0.205 0.206-0.042 0.073-0.084 0.172-0.027 0.249 0.053 0.065 0.144 0.076 0.223 0.087 0.225 0.013 0.435-0.088 0.624-0.199 0.187-0.115 0.372-0.24 0.532-0.391-0.219-0.050-0.441-0.101-0.667-0.090-0.166 0.019-0.334 0.056-0.48 0.138zM6.002 9.694c0.044 0.126 0.138 0.225 0.217 0.329 0.112-0.066 0.234-0.165 0.239-0.306-0.016-0.127-0.106-0.258-0.236-0.283-0.136-0.017-0.26 0.13-0.219 0.26zM25.635 9.432c-0.155 0.024-0.268 0.195-0.237 0.347 0.032 0.112 0.132 0.184 0.224 0.246 0.083-0.104 0.177-0.206 0.223-0.333 0.038-0.13-0.079-0.265-0.21-0.26zM7.36 9.847c-0.064 0.162 0.064 0.313 0.139 0.447 0.105-0.047 0.202-0.124 0.26-0.225 0.065-0.158-0.052-0.357-0.221-0.382-0.082 0.022-0.153 0.078-0.179 0.161zM24.076 10.049c0.052 0.113 0.162 0.183 0.262 0.25 0.070-0.107 0.152-0.216 0.161-0.349 0.009-0.122-0.077-0.245-0.201-0.263-0.158 0.033-0.266 0.207-0.222 0.362zM15.272 10.368c-0.118 0.262-0.125 0.576-0.015 0.842 0.11 0.252 0.344 0.414 0.567 0.559 0.006-0.635-0.003-1.271-0.002-1.906-0.221 0.118-0.44 0.273-0.55 0.505zM16.022 9.858c-0.001 0.637 0.005 1.274-0.004 1.911 0.148-0.092 0.294-0.192 0.413-0.321 0.16-0.171 0.241-0.408 0.231-0.641 0.010-0.259-0.090-0.524-0.283-0.699-0.104-0.103-0.233-0.173-0.356-0.25zM8.592 10.271c-0.015 0.17 0.131 0.288 0.231 0.405 0.089-0.061 0.175-0.144 0.197-0.254 0.027-0.129-0.042-0.283-0.174-0.32-0.114-0.048-0.254 0.047-0.255 0.169zM22.814 10.4c0.028 0.115 0.11 0.205 0.202 0.276 0.107-0.112 0.25-0.235 0.234-0.407 0.002-0.126-0.146-0.216-0.259-0.167-0.121 0.042-0.179 0.177-0.178 0.298zM5.114 10.815c-0.046 0.080-0.049 0.214 0.050 0.254 0.084 0.028 0.165-0.032 0.218-0.092 0.102-0.115 0.103-0.28 0.092-0.424-0.133 0.064-0.284 0.126-0.359 0.262zM26.367 10.554c-0.009 0.125-0.007 0.259 0.059 0.371 0.045 0.072 0.114 0.139 0.201 0.152 0.103 0.009 0.168-0.12 0.127-0.207-0.059-0.169-0.234-0.252-0.388-0.315zM15.161 10.938c0.018-0.093 0.015-0.189 0.001-0.283-0.016 0.093-0.022 0.189-0.001 0.283zM6.716 10.925c-0.109 0.082-0.251 0.162-0.276 0.309 0.007 0.084 0.058 0.19 0.155 0.192 0.121 0.016 0.215-0.101 0.224-0.212 0.013-0.108-0.051-0.202-0.104-0.289zM25.125 10.93c-0.040 0.067-0.088 0.134-0.097 0.214-0.012 0.096 0.020 0.204 0.106 0.257 0.057 0.037 0.127 0.024 0.19 0.009 0.053-0.065 0.103-0.15 0.066-0.235-0.058-0.109-0.162-0.184-0.265-0.245zM13.239 11.017c-0.364 0.045-0.711 0.174-1.043 0.324-0.041 0.013 0.001 0.039 0.022 0.040 0.39 0.135 0.802 0.246 1.219 0.206 0.15-0.021 0.327-0.068 0.4-0.216 0.053-0.106-0.028-0.223-0.124-0.268-0.145-0.073-0.313-0.095-0.474-0.087zM18.381 11.028c-0.114 0.018-0.232 0.047-0.319 0.127-0.075 0.057-0.088 0.174-0.037 0.251 0.043 0.067 0.116 0.106 0.188 0.136 0.167 0.064 0.349 0.057 0.525 0.050 0.327-0.027 0.643-0.124 0.952-0.232-0.226-0.103-0.457-0.197-0.696-0.264-0.199-0.052-0.407-0.107-0.613-0.068zM7.748 11.597c-0.001 0.104 0.095 0.193 0.198 0.188 0.097 0.014 0.161-0.084 0.18-0.167 0.015-0.124-0.052-0.238-0.105-0.346-0.134 0.059-0.248 0.176-0.273 0.324zM23.825 11.274c-0.062 0.118-0.132 0.25-0.094 0.387 0.027 0.064 0.081 0.136 0.159 0.125 0.111 0.010 0.226-0.094 0.204-0.209-0.033-0.137-0.143-0.247-0.269-0.303zM9.186 11.836c0.013 0.105 0.13 0.195 0.233 0.146 0.057-0.015 0.074-0.076 0.094-0.124-0.001-0.018-0.002-0.052-0.002-0.070-0.020-0.153-0.116-0.28-0.217-0.391-0.062 0.137-0.133 0.285-0.108 0.439zM22.535 11.412c-0.105 0.122-0.216 0.269-0.197 0.44-0.004 0.061 0.041 0.118 0.099 0.134 0.093 0.036 0.199-0.039 0.216-0.133 0.034-0.154-0.033-0.31-0.101-0.446-0.004 0.001-0.013 0.004-0.017 0.005zM15.251 12.613c-0.134 0.246-0.11 0.543-0.042 0.805 0.111 0.357 0.348 0.657 0.618 0.909 0.004-0.752 0-1.505-0.003-2.257-0.217 0.149-0.446 0.305-0.573 0.543zM16.018 12.068c-0.002 0.754 0.002 1.508-0.004 2.262 0.272-0.252 0.514-0.554 0.62-0.915 0.077-0.265 0.093-0.57-0.049-0.818-0.127-0.233-0.355-0.383-0.567-0.53zM5.3 12.307c-0.154 0.117-0.184 0.329-0.164 0.51 0.041 0.361 0.188 0.699 0.342 1.024 0.188-0.113 0.385-0.212 0.566-0.337-0.103-0.103-0.22-0.209-0.254-0.357-0.018-0.062 0.004-0.125 0.011-0.187 0.031-0.072 0.066-0.146 0.13-0.194 0.115-0.089 0.29-0.096 0.408-0.009 0.159 0.116 0.246 0.338 0.176 0.527-0.029 0.096-0.098 0.173-0.17 0.24 0.181 0.155 0.363 0.309 0.525 0.485 0.189-0.123 0.388-0.229 0.584-0.34-0.094-0.094-0.199-0.187-0.242-0.317-0.044-0.114-0.037-0.254 0.045-0.35 0.116-0.133 0.338-0.177 0.484-0.068 0.137 0.098 0.233 0.265 0.213 0.438-0.001 0.13-0.087 0.24-0.189 0.312 0.177 0.162 0.373 0.302 0.544 0.471 0.162-0.119 0.339-0.215 0.515-0.312-0.082-0.076-0.169-0.15-0.23-0.246-0.125-0.188-0.025-0.49 0.197-0.55 0.114-0.021 0.243-0.014 0.335 0.064 0.221 0.175 0.225 0.552 0.011 0.736 0.124 0.092 0.259 0.168 0.391 0.247 0.099-0.332 0.242-0.652 0.422-0.948-0.162-0.057-0.328-0.102-0.491-0.157-0.615-0.189-1.215-0.424-1.833-0.602-0.503-0.141-1.018-0.26-1.542-0.27-0.27 0.004-0.559 0.029-0.786 0.19zM24.383 12.341c-0.408 0.106-0.805 0.248-1.203 0.384-0.427 0.147-0.858 0.283-1.288 0.421 0.189 0.293 0.317 0.62 0.43 0.949 0.128-0.084 0.262-0.158 0.387-0.248-0.213-0.177-0.214-0.543-0.006-0.724 0.095-0.088 0.236-0.101 0.358-0.075 0.128 0.036 0.207 0.155 0.239 0.279 0.004 0.084 0.007 0.173-0.036 0.248-0.062 0.105-0.152 0.191-0.246 0.267 0.176 0.095 0.353 0.193 0.514 0.312 0.175-0.164 0.364-0.312 0.547-0.467-0.056-0.055-0.122-0.103-0.155-0.176-0.024-0.046-0.028-0.099-0.035-0.149 0.040 0.010 0.040-0.077 0-0.068 0.016-0.189 0.155-0.369 0.341-0.418 0.128-0.016 0.269 0.024 0.355 0.124 0.098 0.11 0.090 0.282 0.022 0.405-0.049 0.106-0.143 0.179-0.22 0.264 0.198 0.11 0.395 0.221 0.589 0.338 0.159-0.177 0.344-0.327 0.52-0.485-0.069-0.064-0.134-0.137-0.165-0.228-0.085-0.23 0.047-0.517 0.283-0.591 0.119-0.025 0.257 0.004 0.339 0.1s0.124 0.229 0.099 0.353c-0.042 0.14-0.146 0.251-0.253 0.346 0.183 0.124 0.38 0.227 0.571 0.338 0.092-0.207 0.186-0.413 0.253-0.629 0.059-0.197 0.112-0.404 0.081-0.611-0.013-0.131-0.088-0.256-0.203-0.323-0.217-0.135-0.481-0.156-0.73-0.161-0.471 0.007-0.935 0.103-1.389 0.224zM6.042 12.832c-0.090 0.075-0.119 0.218-0.063 0.322 0.059 0.090 0.141 0.162 0.217 0.237 0.085-0.073 0.193-0.154 0.195-0.277 0-0.116-0.048-0.239-0.146-0.306-0.062-0.045-0.146-0.016-0.203 0.024zM25.581 12.819c-0.086 0.070-0.128 0.187-0.124 0.296-0.004 0.124 0.111 0.199 0.188 0.278 0.067-0.068 0.139-0.131 0.198-0.205 0.073-0.094 0.061-0.237-0.008-0.329-0.062-0.067-0.177-0.103-0.253-0.040zM7.485 12.977c-0.089 0.042-0.122 0.152-0.123 0.243 0.048 0.14 0.162 0.241 0.265 0.342 0.107-0.085 0.193-0.217 0.159-0.359-0.017-0.139-0.156-0.272-0.301-0.226zM24.225 12.982c-0.126 0.051-0.189 0.199-0.172 0.328 0.016 0.103 0.087 0.185 0.162 0.253 0.097-0.095 0.207-0.188 0.26-0.316 0.017-0.079-0.007-0.168-0.060-0.229-0.044-0.057-0.128-0.058-0.19-0.035zM8.701 13.331c0.016 0.172 0.161 0.287 0.275 0.399 0.073-0.063 0.145-0.137 0.17-0.233 0.034-0.127-0.033-0.264-0.137-0.338-0.125-0.067-0.308 0.022-0.308 0.172zM22.833 13.163c-0.083 0.056-0.134 0.154-0.146 0.252-0.002 0.129 0.086 0.236 0.177 0.317 0.123-0.112 0.256-0.233 0.287-0.405-0.015-0.077-0.067-0.137-0.131-0.18-0.062-0.006-0.132-0.023-0.187 0.015zM5.396 14.114c-0.107 0.077-0.213 0.165-0.271 0.286-0.044 0.096 0.012 0.242 0.126 0.251 0.095 0.007 0.166-0.081 0.192-0.163 0.036-0.126 0.019-0.264-0.026-0.386-0.005 0.003-0.015 0.009-0.021 0.013zM26.429 14.098c-0.046 0.136-0.077 0.29-0.012 0.425 0.031 0.082 0.118 0.149 0.208 0.122 0.109-0.042 0.135-0.191 0.075-0.282-0.068-0.109-0.171-0.189-0.272-0.265zM6.614 14.47c-0.047 0.071-0.037 0.172 0.015 0.238 0.054 0.063 0.15 0.078 0.222 0.037 0.087-0.035 0.127-0.129 0.138-0.216-0.018-0.106-0.069-0.21-0.152-0.279-0.087 0.058-0.169 0.13-0.223 0.221zM24.992 14.258c-0.080 0.089-0.153 0.207-0.123 0.332 0.025 0.135 0.208 0.234 0.323 0.139 0.089-0.071 0.087-0.217 0.014-0.299-0.060-0.068-0.124-0.137-0.204-0.182zM21.911 14.62c-0.075 0.121-0.020 0.296 0.117 0.344 0.112 0.009 0.204-0.076 0.222-0.184 0.010-0.005 0.029-0.014 0.039-0.019-0.005-0.080 0.040-0.191-0.039-0.244-0.010-0.052-0.024-0.103-0.039-0.154-0.105 0.079-0.226 0.146-0.3 0.258zM9.629 14.361c-0.034 0.157-0.079 0.328-0.011 0.482 0.033 0.087 0.142 0.149 0.229 0.102 0.122-0.053 0.154-0.223 0.082-0.33-0.075-0.111-0.196-0.177-0.301-0.254zM8.062 14.697c-0.016 0.114 0.091 0.224 0.206 0.21 0.107-0.003 0.172-0.115 0.179-0.21-0.017-0.12-0.097-0.22-0.178-0.306-0.089 0.085-0.191 0.177-0.207 0.307zM23.413 14.634c-0.046 0.125 0.059 0.299 0.203 0.271 0.097-0.007 0.162-0.097 0.174-0.188-0.024-0.13-0.107-0.25-0.217-0.321-0.070 0.065-0.127 0.147-0.159 0.238zM15.92 15.719c-0.059 0.14-0.143 0.269-0.245 0.382 0.145 0.244 0.207 0.527 0.244 0.805 0.053-0.276 0.104-0.561 0.253-0.804-0.102-0.115-0.185-0.245-0.252-0.383zM14.497 15.995c-0.004 0.144 0.142 0.233 0.27 0.249 0.229 0.022 0.458-0.052 0.654-0.168-0.172-0.188-0.447-0.269-0.696-0.224-0.093 0.013-0.179 0.060-0.228 0.142zM16.804 15.861c-0.115 0.026-0.223 0.077-0.315 0.152-0.021 0.020-0.056 0.035-0.053 0.069 0.194 0.117 0.426 0.183 0.654 0.16 0.1-0.022 0.215-0.072 0.248-0.178 0.020-0.067-0.021-0.139-0.083-0.166-0.139-0.069-0.303-0.071-0.452-0.037zM1.623 30.136c0.252 0 0.503 0.001 0.755-0.001 0 0.057 0 0.115 0 0.172-0.078-0.001-0.156-0.001-0.235 0 0 0.207-0.001 0.413 0 0.62 0.288 0 0.576 0 0.864 0 0.003-0.207 0-0.414 0.002-0.62-0.077-0.001-0.154 0-0.231 0.001-0.007-0.057-0.009-0.115-0.003-0.172 0.251 0 0.503 0 0.754 0 0 0.057 0 0.114-0.001 0.172-0.072-0.001-0.145-0.001-0.217 0 0 0.49-0.001 0.981 0.001 1.471 0.072-0.004 0.144-0.006 0.216-0.006 0.001 0.056 0.001 0.113 0.001 0.17-0.251-0.002-0.501 0-0.752 0-0.002-0.054-0.006-0.107-0.010-0.16 0.080-0.010 0.16-0.009 0.24-0.009 0.001-0.224 0.002-0.447 0-0.671-0.288 0-0.576 0.001-0.863 0-0.002 0.225-0.001 0.45 0 0.675 0.078 0 0.156-0.003 0.233-0.005 0 0.056 0 0.113 0.001 0.17-0.153-0.002-0.307-0.001-0.46 0-0.089 0-0.178-0.008-0.265 0.011-0.058-0.039-0.019-0.123-0.026-0.182 0.072 0.004 0.143 0.006 0.215 0.006 0.001-0.49 0-0.98 0-1.47-0.073 0-0.145 0-0.218 0.001 0-0.058 0-0.115-0.001-0.171zM19.001 30.135c0.459 0 0.917 0 1.376 0 0.014 0.156 0.025 0.313 0.037 0.469-0.041 0-0.081 0-0.122 0.002-0.005-0.085-0.006-0.186-0.078-0.245-0.078-0.064-0.184-0.052-0.277-0.057-0.14 0-0.28-0.003-0.419 0.001l-0.025 0.002c-0.009 0.212-0.009 0.425 0 0.637 0.006 0.001 0.019 0.002 0.025 0.002 0.115-0.002 0.239 0.019 0.343-0.041 0.068-0.056 0.038-0.152 0.051-0.227 0.025-0.040 0.081-0.015 0.12-0.023 0.002 0.239 0.002 0.478 0 0.717-0.041-0.001-0.082-0.001-0.122-0.001-0.012-0.077 0.025-0.178-0.041-0.235-0.108-0.053-0.235-0.035-0.351-0.031l-0.025 0.005c-0.007 0.214-0.011 0.429-0.002 0.643l0.025 0.012c0.045 0.016 0.095 0.010 0.142 0.011 0.179-0.010 0.358 0.009 0.537-0.012 0.060-0.008 0.119-0.043 0.146-0.099 0.045-0.088 0.036-0.189 0.039-0.284l0.013 0.007c0.025 0.013 0.051 0.027 0.076 0.041 0.018 0.172-0.026 0.349 0.027 0.517-0.144-0.006-0.288-0.003-0.432-0.003-0.050 0-0.1-0.001-0.149 0-0.305-0.001-0.61 0-0.915 0 0-0.056 0-0.113 0-0.169 0.073 0 0.145 0 0.218 0 0.001-0.489-0.001-0.978 0.001-1.467-0.073-0.001-0.146-0.001-0.219-0.001-0.001-0.056-0.001-0.113-0.001-0.168z"></path>
<path d="M12.749 1.244c0.065-0.088 0.187-0.159 0.296-0.107 0.097 0.056 0.12 0.188 0.090 0.288-0.029 0.116-0.131 0.209-0.249 0.227-0.078 0.018-0.157 0.005-0.235-0.002 0.003-0.14 0.011-0.29 0.098-0.406zM18.737 1.193c0.070-0.114 0.235-0.082 0.315 0.004 0.128 0.113 0.133 0.294 0.148 0.452-0.125 0.014-0.267 0.025-0.374-0.053-0.125-0.087-0.162-0.272-0.089-0.403zM13.318 2.181c0.048-0.103 0.175-0.155 0.282-0.123 0.089 0.052 0.142 0.159 0.13 0.261-0.020 0.143-0.137 0.267-0.285 0.272-0.066 0.002-0.131 0.002-0.197 0h-0.013c0.014-0.139 0.022-0.283 0.084-0.41zM19.529 2.669c0.135 0 0.285-0.020 0.403 0.061 0.039 0.022 0.055 0.067 0.078 0.103 0.009 0.075-0.023 0.155-0.094 0.188-0.075 0.039-0.165 0.002-0.222-0.052-0.084-0.080-0.127-0.192-0.165-0.3zM13.997 3.090c0.037-0.137 0.238-0.226 0.344-0.11 0.099 0.118 0.060 0.329-0.077 0.403-0.093 0.053-0.203 0.056-0.307 0.056 0.007-0.117 0.012-0.235 0.041-0.349zM21.871 3.24c0.040-0.138 0.236-0.197 0.341-0.094 0.125 0.129 0.128 0.323 0.133 0.491-0.106 0.002-0.219 0.002-0.31-0.060-0.111-0.070-0.187-0.205-0.164-0.338zM18.892 3.508c0.094-0.006 0.188 0.007 0.281 0.024 0.088 0.039 0.191 0.112 0.174 0.222-0.020 0.106-0.147 0.138-0.237 0.107-0.152-0.042-0.179-0.224-0.217-0.353zM8.241 3.748c0.112-0.040 0.234-0.051 0.351-0.031-0.047 0.126-0.098 0.259-0.198 0.354-0.072 0.063-0.199 0.091-0.276 0.021-0.078-0.116-0.013-0.303 0.122-0.344zM10.304 3.991c0.055-0.101 0.195-0.152 0.298-0.096 0.122 0.126 0.101 0.346-0.017 0.468-0.052 0.055-0.13 0.069-0.201 0.081-0.026 0.002-0.051 0.003-0.077 0.005-0.008 0.001-0.026 0.002-0.035 0.002 0-0.152-0.052-0.32 0.031-0.459zM11.124 4.928c0.027-0.113 0.123-0.218 0.244-0.227 0.11-0.011 0.196 0.103 0.191 0.206 0.004 0.212-0.21 0.381-0.416 0.351-0.018-0.109-0.034-0.22-0.019-0.33zM20.722 6.058c0.157 0.082 0.307 0.221 0.316 0.41 0.010 0.115-0.134 0.184-0.226 0.129-0.069-0.049-0.092-0.136-0.103-0.216-0.019-0.107-0.002-0.216 0.013-0.323zM23.446 6.512c0.166-0.064 0.33 0.116 0.31 0.277-0.017 0.12-0.073 0.232-0.134 0.335-0.138-0.048-0.287-0.14-0.314-0.296-0.015-0.117 0.025-0.261 0.138-0.317zM9.202 7.172c-0.004-0.147 0.18-0.287 0.314-0.2 0.083 0.069 0.113 0.186 0.104 0.29-0.034 0.139-0.166 0.222-0.283 0.287-0.057-0.121-0.114-0.245-0.135-0.377zM22.363 6.954c0.135-0.044 0.283 0.080 0.277 0.219-0.018 0.135-0.078 0.258-0.134 0.381-0.125-0.076-0.276-0.17-0.288-0.332 0.012-0.101 0.042-0.223 0.145-0.268zM5.953 7.38c0.036-0.212 0.261-0.299 0.447-0.334-0.011 0.139-0.022 0.287-0.097 0.408-0.030 0.057-0.098 0.070-0.153 0.091-0.050-0.012-0.108-0.016-0.145-0.057-0.030-0.029-0.039-0.071-0.052-0.109zM7.076 7.778c0.058-0.095 0.164-0.142 0.264-0.18 0.028 0.103 0.051 0.212 0.029 0.318-0.017 0.074-0.073 0.137-0.146 0.16-0.069 0.016-0.139-0.033-0.168-0.094-0.035-0.065-0.019-0.145 0.020-0.204zM24.505 7.598c0.136 0.046 0.299 0.139 0.3 0.302 0.009 0.083-0.055 0.144-0.12 0.182-0.085-0.002-0.175-0.050-0.198-0.137-0.046-0.114-0.010-0.235 0.018-0.348zM22.023 8.755c-0.014-0.171 0.076-0.328 0.18-0.456 0.081 0.106 0.15 0.233 0.144 0.371 0 0.083-0.036 0.182-0.122 0.207-0.086 0.038-0.199-0.025-0.201-0.122zM6.002 9.694c-0.041-0.131 0.084-0.277 0.219-0.26 0.131 0.026 0.221 0.157 0.236 0.283-0.005 0.141-0.127 0.24-0.239 0.306-0.079-0.105-0.173-0.203-0.217-0.329zM7.36 9.847c0.026-0.082 0.097-0.139 0.179-0.161 0.169 0.025 0.286 0.224 0.221 0.382-0.058 0.101-0.155 0.178-0.26 0.225-0.076-0.133-0.203-0.284-0.139-0.447zM24.076 10.049c-0.044-0.155 0.065-0.329 0.222-0.362 0.124 0.019 0.209 0.142 0.201 0.263-0.009 0.132-0.091 0.242-0.161 0.349-0.1-0.066-0.21-0.136-0.262-0.25zM8.592 10.271c0.001-0.123 0.14-0.217 0.255-0.169 0.132 0.038 0.201 0.192 0.174 0.32-0.022 0.11-0.108 0.193-0.197 0.254-0.1-0.117-0.246-0.235-0.231-0.405zM22.814 10.4c-0.002-0.121 0.056-0.255 0.178-0.298 0.113-0.049 0.261 0.041 0.259 0.167 0.016 0.171-0.128 0.294-0.234 0.407-0.092-0.071-0.174-0.161-0.202-0.276zM5.114 10.815c0.075-0.136 0.226-0.198 0.359-0.262 0.011 0.144 0.010 0.31-0.092 0.424-0.053 0.059-0.134 0.12-0.218 0.092-0.099-0.041-0.096-0.174-0.050-0.254zM25.125 10.93c0.104 0.061 0.208 0.137 0.265 0.245 0.037 0.085-0.014 0.171-0.066 0.235-0.062 0.015-0.133 0.028-0.19-0.009-0.086-0.053-0.118-0.161-0.106-0.257 0.009-0.080 0.056-0.147 0.097-0.214zM7.748 11.597c0.025-0.148 0.139-0.265 0.273-0.324 0.053 0.108 0.119 0.221 0.105 0.346-0.019 0.082-0.083 0.18-0.18 0.167-0.103 0.004-0.199-0.085-0.198-0.188zM23.825 11.274c0.127 0.056 0.236 0.166 0.269 0.303 0.022 0.115-0.093 0.218-0.204 0.209-0.079 0.011-0.133-0.061-0.159-0.125-0.038-0.137 0.032-0.269 0.094-0.387zM9.186 11.836c-0.026-0.154 0.046-0.302 0.108-0.439 0.101 0.111 0.197 0.238 0.217 0.391 0.001 0.018 0.002 0.052 0.002 0.070-0.020 0.048-0.037 0.109-0.094 0.124-0.103 0.049-0.22-0.041-0.233-0.146zM6.042 12.832c0.057-0.040 0.141-0.068 0.203-0.024 0.098 0.067 0.146 0.19 0.146 0.306-0.002 0.123-0.11 0.204-0.195 0.277-0.076-0.075-0.158-0.147-0.217-0.237-0.056-0.103-0.027-0.247 0.063-0.322zM8.701 13.331c0-0.15 0.182-0.239 0.308-0.172 0.104 0.074 0.171 0.211 0.137 0.338-0.024 0.096-0.096 0.17-0.17 0.233-0.114-0.113-0.259-0.228-0.275-0.399zM22.833 13.163c0.055-0.038 0.125-0.021 0.187-0.015 0.064 0.042 0.116 0.102 0.131 0.18-0.031 0.171-0.165 0.293-0.287 0.405-0.091-0.082-0.178-0.189-0.177-0.317 0.013-0.098 0.063-0.196 0.146-0.252zM26.429 14.098c0.101 0.076 0.204 0.156 0.272 0.265 0.059 0.092 0.033 0.241-0.075 0.282-0.090 0.027-0.178-0.040-0.208-0.122-0.065-0.135-0.034-0.29 0.012-0.425zM6.614 14.47c0.054-0.091 0.136-0.162 0.223-0.221 0.083 0.069 0.135 0.173 0.152 0.279-0.011 0.087-0.050 0.181-0.138 0.216-0.072 0.042-0.168 0.026-0.222-0.037-0.052-0.066-0.062-0.166-0.015-0.238zM24.992 14.258l0.010-0.010c0.080 0.044 0.144 0.113 0.204 0.182 0.073 0.082 0.075 0.228-0.014 0.299-0.115 0.095-0.297-0.004-0.323-0.139-0.029-0.125 0.043-0.243 0.123-0.332zM21.911 14.62c0.074-0.112 0.195-0.179 0.3-0.258 0.016 0.050 0.029 0.101 0.039 0.154 0.010 0.087 0.015 0.177 0 0.264-0.018 0.107-0.109 0.193-0.222 0.184-0.137-0.047-0.193-0.222-0.117-0.344zM23.413 14.634c0.032-0.090 0.090-0.172 0.159-0.238 0.11 0.071 0.193 0.191 0.217 0.321-0.012 0.091-0.076 0.181-0.174 0.188-0.144 0.028-0.249-0.146-0.203-0.271zM15.92 15.719c0.067 0.138 0.15 0.268 0.252 0.383-0.149 0.243-0.2 0.528-0.253 0.804-0.037-0.278-0.099-0.561-0.244-0.805 0.102-0.113 0.186-0.242 0.245-0.382zM14.497 15.995c0.048-0.082 0.135-0.13 0.228-0.142 0.249-0.044 0.524 0.036 0.696 0.224-0.196 0.115-0.424 0.19-0.654 0.168-0.128-0.016-0.273-0.105-0.27-0.249zM14.507 31.198c0.043-0.097 0.141-0.153 0.231-0.199 0.123 0.183 0.258 0.357 0.387 0.536-0.076 0.086-0.156 0.193-0.282 0.2-0.086-0.007-0.176-0.043-0.226-0.115-0.094-0.116-0.16-0.273-0.11-0.421z"></path>
<path d="M13.252 1.436c-0.040-0.009-0.038-0.103 0.002-0.11 0.004 0.036 0.004 0.074-0.002 0.11zM13.248 2.592c0.065 0.002 0.131 0.002 0.197 0l0.034 0.018c-0.078 0.012-0.158 0.011-0.237 0.009zM21.359 3.778c0.022-0.018 0.061-0.018 0.083 0.001-0.003 0.032-0.082 0.031-0.083-0.001zM20.857 5.415c0-0.034 0.053-0.027 0.053 0.003-0.013-0.001-0.040-0.002-0.053-0.003zM11.354 22.901c0.060-0.015 0.121-0.024 0.183-0.023 0.271 0.003 0.541 0.002 0.812 0.001 0.059-0.001 0.115 0.014 0.169 0.037-0.387-0.026-0.776-0.002-1.164-0.015z"></path>
<path d="M11.492 1.72c0.112-0.021 0.227-0.011 0.341-0.007-0.065 0.146-0.166 0.311-0.338 0.336-0.102 0.019-0.233-0.065-0.208-0.179 0.022-0.091 0.121-0.135 0.206-0.15zM20.014 1.712c0.145-0.002 0.298-0.023 0.435 0.037 0.067 0.027 0.126 0.093 0.114 0.17-0.024 0.109-0.161 0.159-0.259 0.12-0.146-0.049-0.233-0.192-0.289-0.326zM13.341 4.277c0.098-0.063 0.216-0.077 0.33-0.083-0.043 0.156-0.102 0.326-0.241 0.422-0.084 0.062-0.232 0.032-0.264-0.074-0.025-0.12 0.082-0.211 0.174-0.266zM8.926 4.832c0.081-0.13 0.245-0.159 0.384-0.19-0.007 0.111-0.010 0.235-0.085 0.325-0.060 0.072-0.167 0.078-0.252 0.058-0.064-0.038-0.092-0.13-0.047-0.193zM9.867 5.457c0.104-0.050 0.221-0.061 0.335-0.068-0.018 0.168-0.093 0.358-0.266 0.418-0.117 0.043-0.219-0.086-0.204-0.194 0.014-0.071 0.073-0.124 0.135-0.156zM25.44 7.048c0.135 0.024 0.273 0.069 0.372 0.168 0.063 0.065 0.1 0.173 0.046 0.254-0.078 0.107-0.259 0.087-0.324-0.024-0.068-0.121-0.079-0.263-0.094-0.398zM26.367 10.554c0.153 0.064 0.329 0.146 0.388 0.315 0.041 0.087-0.024 0.216-0.127 0.207-0.087-0.013-0.156-0.079-0.201-0.152-0.066-0.111-0.068-0.246-0.059-0.371zM6.716 10.925c0.053 0.087 0.118 0.181 0.104 0.289-0.009 0.112-0.103 0.228-0.224 0.212-0.097-0.002-0.149-0.108-0.155-0.192 0.025-0.147 0.166-0.227 0.276-0.309zM22.535 11.412c0.004-0.001 0.013-0.004 0.017-0.005 0.068 0.135 0.136 0.292 0.101 0.446-0.017 0.094-0.123 0.169-0.216 0.133-0.058-0.016-0.103-0.073-0.099-0.134-0.019-0.171 0.092-0.318 0.197-0.44zM25.581 12.819c0.077-0.063 0.192-0.028 0.253 0.040 0.069 0.092 0.081 0.235 0.008 0.329-0.060 0.074-0.131 0.138-0.198 0.205-0.077-0.079-0.192-0.154-0.188-0.278-0.004-0.109 0.038-0.226 0.124-0.296z"></path>
<path d="M19.378 1.762c0.036 0.008 0.072 0.016 0.109 0.025-0.019 0.003-0.057 0.009-0.077 0.012 0.002 0.034 0.003 0.068 0.005 0.102-0.032-0.040-0.034-0.091-0.037-0.139zM5.368 9.148c-0.048 0-0.039-0.102 0.009-0.096-0.004 0.032-0.006 0.064-0.009 0.096zM15.161 10.938c-0.021-0.093-0.015-0.189 0.001-0.283 0.014 0.094 0.018 0.189-0.001 0.283zM23.439 27.517l0.021 0.021c0.008 0.057 0.009 0.116 0.011 0.175 1.067 0.004 2.133-0.001 3.2 0.003 0.121 0.001 0.246-0.017 0.362 0.027-1.2 0.007-2.4-0.001-3.599 0.004 0.001-0.076-0.002-0.153 0.006-0.229z"></path>
<path d="M18.245 2.058c0.111-0.034 0.238 0.025 0.286 0.131 0.056 0.125 0.069 0.265 0.077 0.401-0.112 0.005-0.231 0.014-0.336-0.033-0.084-0.050-0.139-0.14-0.159-0.234-0.012-0.102 0.040-0.213 0.131-0.264zM21.192 3.961c0.022-0.043 0.060-0.087 0.113-0.088 0.12-0.016 0.237 0.072 0.266 0.188 0.041 0.127 0.005 0.261-0.005 0.39-0.090-0.006-0.185-0.010-0.265-0.054-0.136-0.094-0.172-0.288-0.108-0.435zM25.635 9.432c0.131-0.004 0.248 0.13 0.21 0.26-0.046 0.127-0.14 0.229-0.223 0.333-0.092-0.063-0.191-0.134-0.224-0.246-0.030-0.152 0.082-0.323 0.237-0.347zM24.225 12.982c0.062-0.023 0.146-0.022 0.19 0.035 0.052 0.061 0.076 0.15 0.060 0.229-0.053 0.128-0.163 0.221-0.26 0.316-0.074-0.068-0.146-0.15-0.162-0.253-0.017-0.129 0.046-0.277 0.172-0.328zM16.804 15.861c0.148-0.034 0.313-0.032 0.452 0.037 0.062 0.027 0.102 0.099 0.083 0.166-0.033 0.106-0.148 0.156-0.248 0.178-0.227 0.023-0.46-0.043-0.654-0.16-0.003-0.034 0.032-0.050 0.053-0.069 0.091-0.074 0.2-0.126 0.315-0.152z"></path>
<path d="M19.239 2.080c0.007-0.011 0.022-0.032 0.029-0.042 0.007 0.064 0.016 0.132-0.014 0.192-0.006-0.050-0.010-0.1-0.014-0.15zM7.905 10.179c-0.029-0.071-0.037-0.153-0.002-0.223 0.011 0.074 0.014 0.149 0.002 0.223zM5.441 31.087c-0.019-0.031-0.029-0.073-0.001-0.102 0.022 0.026 0.021 0.074 0.001 0.102z"></path>
<path d="M11.921 2.725c0.117-0.075 0.262-0.055 0.394-0.057-0.041 0.124-0.094 0.256-0.205 0.333-0.064 0.046-0.159 0.051-0.219-0.005-0.082-0.071-0.062-0.218 0.030-0.271zM23.252 3.716c0.128-0.019 0.261-0.007 0.38 0.044 0.091 0.044 0.138 0.154 0.126 0.252-0.001 0.051-0.038 0.1-0.088 0.113-0.082 0.021-0.174-0.007-0.232-0.068-0.093-0.093-0.142-0.22-0.186-0.341zM22.535 4.642c0.136 0.029 0.294 0.059 0.379 0.183 0.049 0.063 0.029 0.163-0.043 0.199-0.106 0.039-0.242-0.006-0.288-0.114-0.034-0.085-0.046-0.177-0.047-0.268zM10.898 6.234c0.058-0.075 0.141-0.123 0.218-0.175 0.005 0.016 0.016 0.048 0.021 0.064 0.004 0.147 0.027 0.312-0.066 0.438-0.059 0.082-0.183 0.061-0.246-0.005-0.042-0.112 0.005-0.231 0.073-0.322z"></path>
<path d="M17.51 2.971c0.118-0.107 0.315-0.009 0.343 0.136 0.022 0.108 0.025 0.219 0.042 0.329-0.135 0.005-0.297-0.003-0.389-0.117-0.071-0.099-0.085-0.255 0.003-0.348zM9.644 3.141c0.115-0.109 0.328-0.016 0.338 0.138-0.004 0.129-0.081 0.251-0.194 0.312-0.088 0.052-0.194 0.048-0.292 0.046 0.013-0.17 0.011-0.372 0.148-0.496zM24.376 6.453c-0.077-0.131-0.041-0.339 0.111-0.398 0.099-0.042 0.215 0.023 0.244 0.123 0.060 0.161-0.017 0.328-0.065 0.481-0.111-0.043-0.225-0.101-0.29-0.206zM8.098 6.699c0.026-0.143 0.205-0.258 0.336-0.168 0.13 0.11 0.144 0.342 0.017 0.461-0.065 0.063-0.147 0.103-0.23 0.136-0.064-0.134-0.157-0.274-0.123-0.428zM9.498 8.737c-0.021-0.158 0.044-0.313 0.14-0.435 0.114 0.129 0.206 0.3 0.18 0.477-0.016 0.088-0.126 0.133-0.204 0.096-0.061-0.022-0.089-0.085-0.116-0.139zM7.485 12.977c0.145-0.046 0.285 0.087 0.301 0.226 0.033 0.142-0.053 0.274-0.159 0.359-0.103-0.1-0.217-0.202-0.265-0.342 0.002-0.091 0.034-0.201 0.123-0.243z"></path>
<path d="M12.54 3.623c0.1-0.116 0.27-0.115 0.411-0.114-0.027 0.108-0.053 0.225-0.131 0.309-0.089 0.077-0.236 0.073-0.314-0.019-0.003-0.059-0.017-0.131 0.034-0.176zM18.173 4.194c0.167 0.003 0.343 0.053 0.455 0.183 0.033 0.044 0.069 0.098 0.055 0.156-0.021 0.066-0.085 0.119-0.156 0.115-0.079 0.007-0.146-0.046-0.194-0.103-0.084-0.1-0.125-0.227-0.161-0.351zM20.285 4.931c-0.012-0.090 0.040-0.182 0.121-0.222 0.134-0.038 0.273 0.069 0.306 0.197 0.024 0.117 0.007 0.238-0.015 0.354-0.197 0.025-0.398-0.13-0.412-0.329zM21.652 5.389c0.149 0.012 0.323 0.027 0.427 0.148 0.089 0.107-0.013 0.313-0.158 0.274-0.14-0.037-0.219-0.174-0.261-0.302-0.004-0.040-0.007-0.080-0.009-0.12zM8.268 8.286c0.062-0.079 0.143-0.142 0.23-0.192 0.035 0.128 0.121 0.281 0.026 0.403-0.054 0.080-0.175 0.097-0.246 0.030-0.072-0.058-0.063-0.173-0.010-0.24zM23.279 8.37c0-0.097 0.037-0.189 0.072-0.277 0.108 0.070 0.215 0.153 0.272 0.272 0.008 0.078-0.028 0.163-0.105 0.191-0.116 0.054-0.251-0.067-0.239-0.186zM8.062 14.697c0.016-0.13 0.118-0.222 0.207-0.307 0.081 0.086 0.161 0.186 0.178 0.306-0.007 0.096-0.072 0.207-0.179 0.21-0.115 0.015-0.222-0.096-0.206-0.21z"></path>
<path d="M17.934 3.812c0.044-0.011 0.056 0.084 0.010 0.081-0.005-0.027-0.008-0.054-0.010-0.081zM9.305 4.158c0.038 0.101 0.041 0.211 0.025 0.317l-0.022 0.005c0.005-0.108-0.007-0.215-0.003-0.322zM6.521 6.364l0.020 0.028c0.006 0.079 0.006 0.159 0.009 0.239-0.065-0.073-0.030-0.18-0.029-0.267zM14.409 7.911c-0.042 0.012-0.043-0.075-0.001-0.065 0.004 0.021 0.004 0.043 0.001 0.065zM16.845 8.661c0.031 0.001 0.032 0.081-0.001 0.080-0.019-0.021-0.018-0.060 0.001-0.080zM1.31 25.266c0.137-0.024 0.278-0.009 0.416-0.012 0.118 0.003 0.242-0.019 0.352 0.032-0.265-0.001-0.53 0.001-0.796-0.001zM21.606 30.091c0.034-0.024 0.089-0.021 0.124 0.003-0.040 0.014-0.087 0.025-0.124-0.003zM19.494 31.11l0.025-0.005c-0.001 0.22 0.002 0.44-0.002 0.659l-0.025-0.012c-0.009-0.214-0.005-0.429 0.002-0.643z"></path>
<path d="M8.226 4.243c0.028-0.029 0.076-0.028 0.105 0.001-0.032 0.014-0.074 0.014-0.105-0.001zM6.344 5.617c0.026 0.044 0.026 0.096 0 0.141-0.019-0.041-0.019-0.1 0-0.141zM4.594 31.986c0.042-0.036 0.104-0.037 0.147-0.002-0.048 0.009-0.099 0.007-0.147 0.002z"></path>
<path d="M23.509 4.243c0.028-0.030 0.076-0.029 0.104 0.001-0.032 0.013-0.073 0.014-0.104-0.001zM22.142 8.967c0.016-0.030 0.063-0.034 0.079-0.001-0.027 0.014-0.053 0.014-0.079 0.001zM17.112 24.373h0.031c0 0.563-0.001 1.127 0 1.69-0.067-0.002-0.134-0.001-0.202-0.003-0.002-0.042-0.003-0.084-0.005-0.126 0.019 0.039 0.038 0.103 0.093 0.071 0.005 0.008 0.015 0.023 0.020 0.031 0.016-0.002 0.049-0.005 0.065-0.006-0.002-0.552 0-1.104-0.003-1.657z"></path>
<path d="M21.588 4.343c0.032 0.002 0.030 0.080-0.002 0.082-0.019-0.022-0.018-0.061 0.002-0.082zM22.568 4.497c0.028-0.021 0.077-0.013 0.102 0.012-0.034 0.013-0.076 0.018-0.102-0.012z"></path>
<path d="M10.308 4.448c0.025-0.002 0.051-0.003 0.077-0.005 0.013 0.047-0.084 0.053-0.077 0.005zM21.525 4.878c0.033 0.001 0.031 0.079-0.001 0.080-0.019-0.021-0.018-0.059 0.001-0.080zM11.178 5.425c-0.042-0.037 0.080-0.053 0.073-0.004-0.024 0.003-0.049 0.004-0.073 0.004zM13.852 8.264c0.082-0.036 0.184-0.033 0.267-0.001-0.088 0.018-0.179 0.016-0.267 0.001zM3.728 24.071c-0.029-0.098-0.020-0.203-0.001-0.302 0.011 0.1 0.012 0.202 0.001 0.302zM2.77 25.984c0.030 0.014 0.030 0.054 0.009 0.077-0.024-0.024-0.027-0.050-0.009-0.077z"></path>
<path d="M9.177 4.51c0.028-0.020 0.074-0.022 0.103-0.003-0.012 0.029-0.092 0.033-0.103 0.003zM18.081 13.815c0.077-0.012 0.154-0.021 0.232-0.017 0.15 0.008 0.301-0.013 0.449 0.018-0.226 0.017-0.455 0.019-0.681-0.001zM19.073 22.712c0.018 0.054 0.030 0.11 0.041 0.166 0.164 0.007 0.331-0.016 0.494 0.011 0.025 0.167 0.003 0.338 0.010 0.506-0.001 0.619-0.003 1.239 0 1.858-0.004 0.421-0.001 0.842-0.001 1.263-0.014 0.335 0.015 0.67-0.006 1.005l-0.024 0.004c-0.002-1.541-0.001-3.081 0-4.622-0.171 0-0.343 0-0.514 0-0.002-0.064-0.003-0.128 0-0.192z"></path>
<path d="M10.304 4.759l0.008 0.004c0.017 0.061 0.004 0.126-0.002 0.188-0.009-0.064-0.023-0.129-0.006-0.193z"></path>
<path d="M21.497 5.046c0.041 0.017 0.036 0.116-0.009 0.129 0.001-0.043 0.004-0.086 0.009-0.129z"></path>
<path d="M15.944 5.464c0.033 0.028 0.020 0.073-0.003 0.103-0.019-0.029-0.011-0.073 0.003-0.103z"></path>
<path d="M11.932 5.652c0.028-0.005 0.056-0.008 0.085-0.010 0.008 0.043-0.087 0.054-0.085 0.010zM15.621 31.958c0.033-0.014 0.076-0.025 0.105 0.005-0.030 0.018-0.078 0.019-0.105-0.005z"></path>
<path d="M20.569 6.347c-0.011-0.091-0.027-0.185 0.004-0.274 0.011 0.091 0.006 0.183-0.004 0.274zM14.564 27.712c0.604 0.002 1.208 0 1.811 0.001v0.031c-0.603 0.001-1.206-0.001-1.809 0.001z"></path>
<path d="M18.965 7.104c0.079-0.017 0.16-0.021 0.24-0.012l-0.029 0.020c-0.059 0.004-0.118 0.008-0.176 0.011z"></path>
<path d="M9.765 7.358c-0.039-0.001-0.040-0.092 0-0.091 0.003 0.030 0.004 0.060 0 0.091z"></path>
<path d="M9.616 8.965c0.016-0.031 0.064-0.028 0.079 0.002-0.027 0.013-0.053 0.012-0.079-0.002zM7.905 11.874c0.011-0.026 0.050-0.027 0.061-0.001-0.015 0-0.045 0.001-0.061 0.001zM23.889 13.294c0.040-0.009 0.040 0.078 0 0.068-0.004-0.023-0.005-0.046 0-0.068zM20.361 22.884c0.171 0 0.346-0.025 0.514 0.017-0.172 0.005-0.344 0-0.516 0.003z"></path>
<path d="M5.846 9.597c0.039 0.017 0.039 0.111 0.003 0.131-0.008-0.043-0.010-0.088-0.003-0.131zM16.836 10.827c0.001-0.062-0.011-0.13 0.028-0.183 0.008 0.109 0.009 0.219 0 0.328-0.029-0.043-0.026-0.096-0.028-0.145z"></path>
<path d="M16.871 12.954c-0.039 0.019-0.047-0.061-0.005-0.048 0.001 0.012 0.003 0.036 0.005 0.048z"></path>
<path d="M12.867 13.798c0.067-0.031 0.139-0.021 0.202 0.015-0.068 0-0.135-0.006-0.202-0.015zM17.958 23.525c-0.041-0.083-0.039-0.174-0.005-0.258 0.009 0.085 0.008 0.172 0.005 0.258z"></path>
<path d="M13.273 13.824c0.102-0.035 0.211-0.037 0.313 0.001-0.104 0.004-0.209 0.004-0.313-0.001zM23.182 31.111c-0.001-0.076-0.012-0.162 0.038-0.226-0.006 0.108-0.008 0.217 0 0.326-0.024-0.029-0.040-0.063-0.038-0.1z"></path>
<path d="M13.635 13.815c0.029-0.025 0.069-0.024 0.102-0.005-0.026 0.022-0.075 0.028-0.102 0.005zM26.759 24.101c0.042-0.028 0.099-0.033 0.139 0.002-0.042 0.014-0.097 0.013-0.139-0.002z"></path>
<path d="M5.396 14.114c0.005-0.003 0.015-0.009 0.021-0.013 0.045 0.122 0.062 0.259 0.026 0.386-0.026 0.083-0.096 0.17-0.192 0.163-0.114-0.009-0.17-0.154-0.126-0.251 0.058-0.121 0.164-0.209 0.271-0.286zM14.766 30.384c-0.006-0.144 0.204-0.191 0.289-0.097 0.051 0.046 0.055 0.121 0.044 0.185-0.023 0.104-0.106 0.179-0.191 0.236-0.062-0.1-0.135-0.203-0.142-0.324z"></path>
<path d="M9.629 14.361c0.106 0.077 0.226 0.143 0.301 0.254 0.071 0.106 0.040 0.276-0.082 0.33-0.088 0.047-0.196-0.015-0.229-0.102-0.068-0.154-0.023-0.325 0.011-0.482z"></path>
<path d="M22.25 14.516c0.079 0.054 0.034 0.165 0.039 0.244-0.010 0.005-0.029 0.015-0.039 0.019 0.015-0.087 0.011-0.177 0-0.264z"></path>
<path d="M15.984 14.596c0.008-0.007 0.023-0.021 0.030-0.028 0 0.272-0.009 0.544 0.006 0.816-0.009 0.003-0.027 0.009-0.035 0.011-0.005-0.266-0.011-0.533 0-0.799z"></path>
<path d="M23.274 14.57c0.027 0.037 0.030 0.090-0.002 0.125-0.015-0.039-0.013-0.087 0.002-0.125z"></path>
<path d="M15.981 17.795c-0.005-0.091 0.005-0.183 0.029-0.271-0.009 0.838-0.002 1.677-0.004 2.516-0.003 0.093 0.007 0.187-0.008 0.28-0.038-0.234-0.006-0.471-0.011-0.707-0.009-0.292 0-0.584-0.005-0.877-0.005-0.314 0.014-0.628 0-0.941z"></path>
<path d="M-0.019 22.907c0.002-0.069-0.002-0.138 0.007-0.206 0.034 0.053 0.032 0.116 0.025 0.177 0.169-0.002 0.337-0.008 0.506 0 0 0.008-0.001 0.023-0.002 0.031-0.178-0.005-0.357 0-0.536-0.002z"></path>
<path d="M-0.012 22.701c0.721 0.009 1.443 0 2.164 0.005 0.193 0.014 0.388 0.023 0.576 0.073 0.29 0.066 0.578 0.197 0.773 0.427 0.177 0.205 0.256 0.48 0.245 0.748 0.002 0.283-0.098 0.575-0.31 0.769-0.255 0.237-0.605 0.331-0.941 0.385 0.252 0.021 0.507 0.094 0.711 0.25 0.146 0.108 0.253 0.264 0.31 0.436 0.077 0.234 0.128 0.477 0.158 0.722 0.049 0.288 0.033 0.589 0.133 0.867 0.039 0.113 0.151 0.182 0.268 0.185 0.099-0.005 0.196-0.031 0.291-0.060 0.019 0.058 0.039 0.115 0.052 0.175-0.23 0.136-0.504 0.187-0.769 0.166-0.201-0.022-0.407-0.099-0.542-0.256-0.13-0.151-0.174-0.354-0.2-0.546l-0.009-0.014c-0.054-0.316-0.074-0.636-0.13-0.952l0.011-0.018c0.021-0.023 0.021-0.063-0.009-0.077-0.005-0.004-0.015-0.012-0.020-0.015-0.035-0.212-0.103-0.444-0.284-0.578-0.108-0.083-0.248-0.099-0.38-0.102l-0.007-0.003c-0.11-0.051-0.235-0.029-0.352-0.032-0.138 0.003-0.279-0.012-0.416 0.012l-0.027 0.020c-0.003 0.002-0.009 0.007-0.012 0.009 0.003 0.746 0.001 1.492 0.001 2.238 0.177 0.002 0.353 0.002 0.53 0.001 0 0.072 0 0.145 0 0.218-0.607-0.001-1.214 0-1.821 0 0-0.074 0.001-0.148 0.001-0.221 0.178 0.002 0.355 0.002 0.533 0-0.001-1.264 0-2.527-0.001-3.791 0.002-0.276-0.004-0.552 0.003-0.828 0.001-0.008 0.001-0.024 0.002-0.031-0.168-0.008-0.337-0.002-0.506 0 0.006-0.061 0.009-0.124-0.025-0.177zM1.285 22.912c-0.003 0-0.010 0-0.013 0 0.001 0.706 0.001 1.413 0 2.12 0.194 0.004 0.388-0.004 0.582-0.002 0.109 0.002 0.219-0.013 0.326-0.032 0.184-0.035 0.366-0.134 0.463-0.3 0.126-0.211 0.144-0.464 0.149-0.703 0.002-0.293-0.003-0.617-0.189-0.861-0.125-0.165-0.339-0.229-0.539-0.222 0.047-0.001 0.094-0.010 0.141-0.018-0.286-0.023-0.575-0.009-0.862-0.019-0.027-0.004-0.050 0.009-0.058 0.037zM3.728 24.071c0.012-0.1 0.010-0.202-0.001-0.302-0.019 0.099-0.028 0.204 0.001 0.302zM7.038 22.703c0.071 0.001 0.142 0.001 0.213 0 0.619 1.607 1.227 3.218 1.843 4.826 0.185-0.001 0.369 0.001 0.554-0.002 0 0.072 0 0.144 0 0.217-0.635 0.001-1.271-0.001-1.906 0.001 0-0.071 0.001-0.142 0-0.214 0.181 0.003 0.363-0.005 0.544-0.003-0.174-0.45-0.346-0.901-0.519-1.351-0.571 0.001-1.142 0-1.713 0-0.090 0.255-0.178 0.512-0.269 0.768-0.046 0.137-0.113 0.279-0.084 0.426 0.011 0.073 0.076 0.134 0.15 0.143 0.125 0.021 0.252 0.024 0.378 0.018 0 0.058 0.001 0.116 0.001 0.175-0.449-0.002-0.899 0.002-1.348-0.001-0.012-0.058-0.025-0.117-0.042-0.174v-0.001c0.154 0.001 0.331 0.013 0.455-0.095 0.15-0.136 0.2-0.34 0.268-0.523 0.493-1.403 0.98-2.808 1.473-4.211zM6.14 25.946c0.511 0 1.022 0.001 1.533 0-0.074-0.231-0.173-0.453-0.257-0.68-0.187-0.476-0.371-0.952-0.555-1.429-0.242 0.703-0.481 1.406-0.721 2.109zM10.078 22.9c0-0.066 0-0.131 0.001-0.196 1.118 0 2.237 0.001 3.355 0 0.015 0.080 0.010 0.162 0.013 0.243 0.015 0.383 0.032 0.766 0.044 1.149-0.062 0-0.124 0-0.185 0-0.014-0.178-0.051-0.355-0.105-0.526-0.069-0.216-0.194-0.426-0.393-0.544-0.088-0.056-0.191-0.080-0.289-0.111-0.054-0.022-0.111-0.038-0.169-0.037-0.271 0.001-0.542 0.002-0.812-0.001-0.062-0.001-0.123 0.008-0.183 0.023 0.002 0.746 0.001 1.491 0.001 2.237 0.225-0.005 0.452 0.012 0.676-0.018 0.13-0.014 0.262-0.077 0.326-0.196 0.091-0.168 0.090-0.366 0.088-0.552 0.069 0 0.139 0 0.208 0 0 0.563 0 1.127 0 1.69-0.070 0-0.139 0-0.209 0 0.003-0.193 0.003-0.409-0.118-0.57-0.091-0.118-0.247-0.135-0.384-0.148 0.019-0.004 0.056-0.011 0.075-0.014-0.152-0.023-0.306-0.010-0.458-0.013-0.069-0.002-0.139 0.005-0.205 0.024 0.001 0.731 0.001 1.461 0.001 2.192 0.165 0.004 0.33-0.003 0.495 0.004-0.011 0.056-0.019 0.112-0.027 0.169-0.569 0.004-1.139 0.003-1.708 0-0.004-0.057-0.008-0.113-0.017-0.169 0.168-0.008 0.337 0 0.505-0.005 0-1.544 0-3.088 0-4.632-0.175 0-0.35 0-0.524 0zM14.578 22.704c1.12-0.001 2.24 0 3.361 0-0.002 0.188 0.021 0.375 0.014 0.563-0.034 0.084-0.035 0.175 0.005 0.258 0.018 0.196 0.021 0.393 0.025 0.59-0.060-0.001-0.12-0.001-0.179 0-0.032-0.254-0.077-0.513-0.196-0.742-0.082-0.165-0.216-0.308-0.385-0.385-0.146-0.071-0.311-0.085-0.471-0.084-0.302 0.001-0.603-0.002-0.905 0.001 0.002 0.744 0.002 1.488 0 2.232 0.258-0.007 0.522 0.023 0.776-0.038 0.149-0.036 0.246-0.168 0.285-0.31 0.029-0.137 0.030-0.277 0.031-0.417 0.057-0.001 0.115-0.001 0.172 0 0.003 0.552 0.001 1.104 0.003 1.657-0.016 0.002-0.049 0.005-0.065 0.006-0.005-0.008-0.015-0.023-0.020-0.031-0.055 0.032-0.074-0.033-0.093-0.071 0.003-0.010 0.008-0.032 0.010-0.042 0.017-0.031 0.028-0.075-0.005-0.099-0.005-0.005-0.014-0.016-0.019-0.021-0.012-0.179-0.123-0.367-0.311-0.401-0.252-0.048-0.51-0.019-0.764-0.025 0.003 0.729 0.002 1.459 0.001 2.188 0.176 0.002 0.351 0 0.527 0.001 0 0.059 0 0.119 0 0.179-0.604-0.001-1.208 0.001-1.812-0.001-0.001-0.060-0.001-0.119 0-0.179 0.176 0 0.352 0 0.529 0 0.001-1.544-0.001-3.089 0.001-4.634-0.172 0-0.344 0-0.515 0-0.001-0.065-0.001-0.13-0.001-0.195zM19.070 22.703c0.603 0.002 1.207 0 1.81 0.001-0.001 0.066-0.001 0.133 0.001 0.199l-0.006-0.001c-0.168-0.042-0.343-0.017-0.514-0.017l-0.002 0.020c-0.003 1.541 0 3.083-0.002 4.625 0.336-0.003 0.674 0.018 1.009-0.025 0.249-0.039 0.504-0.107 0.709-0.261 0.187-0.136 0.312-0.342 0.382-0.56 0.058-0.193 0.077-0.393 0.092-0.593 0.054 0.001 0.108 0.002 0.163 0.003 0.007 0.539 0.010 1.079 0 1.618-1.111 0.004-2.221 0.003-3.332-0.002-0.129 0.002-0.262-0.017-0.385 0.032-0.017 0.003-0.034 0.007-0.050 0.011-0.001-0.074 0-0.148 0-0.222 0.214-0.001 0.429 0.007 0.642-0.004l0.024-0.004c0.021-0.335-0.009-0.67 0.006-1.005 0.001-0.421-0.003-0.842 0.001-1.263-0.003-0.619-0.002-1.239 0-1.858-0.007-0.169 0.015-0.339-0.010-0.506-0.163-0.027-0.33-0.004-0.494-0.011-0.011-0.056-0.024-0.112-0.041-0.166zM23.426 22.912c-0.001-0.070-0.002-0.139-0.001-0.209 1.146 0.002 2.293 0 3.44 0.001 0.017 0.47 0.031 0.94 0.050 1.409-0.004-0.003-0.012-0.008-0.017-0.011-0.040-0.035-0.097-0.030-0.139-0.002l-0.028 0.014c-0.028-0.273-0.082-0.552-0.222-0.792-0.093-0.162-0.244-0.292-0.422-0.35-0.13-0.051-0.271-0.049-0.407-0.061-0.054-0.018-0.109-0.035-0.166-0.033-0.214 0.002-0.427 0.004-0.641-0.002-0.060 0-0.127-0.007-0.177 0.033 0.011 0.553-0.003 1.107 0.012 1.66-0.001 0.187 0.001 0.375 0 0.562 0.226-0.004 0.455 0.013 0.68-0.019 0.122-0.018 0.246-0.082 0.305-0.195 0.091-0.168 0.087-0.365 0.090-0.55 0.066 0 0.133 0 0.199 0-0.002 0.565 0 1.13-0.001 1.694-0.066-0.001-0.132-0.001-0.198 0-0.003-0.188 0-0.394-0.114-0.555-0.071-0.102-0.195-0.146-0.315-0.158-0.215-0.019-0.431-0.002-0.646-0.006-0.001 0.729-0.001 1.458 0 2.187 0.348-0.003 0.697 0.011 1.043-0.029 0.203-0.030 0.409-0.078 0.588-0.182 0.174-0.1 0.313-0.261 0.39-0.447 0.060-0.135 0.088-0.28 0.112-0.424 0.016-0.13 0.015-0.261 0.026-0.39 0.066 0.001 0.132 0.001 0.198 0.001-0.001 0.564 0.002 1.128-0.001 1.693-0.008-0.002-0.024-0.007-0.032-0.009-0.116-0.044-0.241-0.026-0.362-0.027-1.067-0.004-2.133 0.001-3.2-0.003-0.002-0.059-0.002-0.117-0.011-0.175 0.16-0.009 0.321-0.002 0.482-0.005-0.001-1.54-0.001-3.081 0-4.621-0.172 0-0.344-0.002-0.516 0.001zM29.304 22.803c0.23-0.087 0.479-0.108 0.723-0.096 0.156 0.013 0.314 0.024 0.464 0.071 0.27 0.071 0.5 0.246 0.776 0.299 0.059 0.022 0.117-0.032 0.131-0.087 0.021-0.082 0.012-0.167 0.012-0.25 0.071-0.001 0.142-0.001 0.214-0.002 0.002 0.112-0.008 0.225 0.007 0.336 0.005 0.409 0.009 0.818 0.011 1.227-0.070-0.001-0.14 0.002-0.209 0.003-0.079-0.386-0.209-0.787-0.502-1.066-0.269-0.258-0.662-0.333-1.023-0.311-0.246 0.010-0.503 0.073-0.695 0.234-0.264 0.224-0.309 0.633-0.171 0.938 0.086 0.192 0.261 0.325 0.446 0.415 0.251 0.118 0.525 0.174 0.793 0.237 0.203 0.055 0.405 0.115 0.605 0.179 0.242 0.082 0.49 0.169 0.688 0.336 0.144 0.121 0.235 0.294 0.271 0.477 0.096 0.459 0.032 0.964-0.233 1.357-0.212 0.317-0.554 0.538-0.925 0.62-0.174 0.045-0.354 0.054-0.533 0.048-0.312-0.006-0.623-0.062-0.922-0.149-0.143-0.040-0.282-0.094-0.426-0.128-0.080-0.013-0.177-0.020-0.238 0.044-0.054 0.056-0.053 0.139-0.064 0.211-0.067 0-0.134 0-0.201 0 0.002-0.641 0.001-1.281 0-1.922 0.055 0.002 0.112 0.002 0.168 0.008 0.1 0.423 0.257 0.845 0.547 1.176 0.225 0.265 0.539 0.458 0.883 0.522 0.152 0.037 0.311 0.030 0.466 0.028 0.31-0.018 0.628-0.175 0.778-0.457 0.126-0.222 0.126-0.488 0.091-0.734-0.031-0.237-0.164-0.458-0.364-0.59-0.352-0.245-0.784-0.321-1.19-0.433-0.346-0.094-0.712-0.185-0.993-0.419-0.171-0.141-0.28-0.348-0.311-0.567-0.030-0.259-0.019-0.53 0.084-0.773 0.147-0.37 0.471-0.652 0.843-0.783z"></path>
<path d="M1.285 22.912c0.009-0.028 0.031-0.041 0.058-0.037 0.287 0.009 0.576-0.004 0.862 0.019-0.047 0.009-0.093 0.017-0.141 0.018-0.26-0.001-0.52-0.002-0.779 0z"></path>
<path d="M24.696 22.91c0.051-0.040 0.117-0.033 0.177-0.033 0.214 0.006 0.428 0.003 0.641 0.002 0.057-0.002 0.112 0.015 0.166 0.034-0.328 0.002-0.657 0.006-0.985-0.002z"></path>
<path d="M11.354 25.34c0.067-0.019 0.136-0.026 0.205-0.024 0.153 0.004 0.306-0.009 0.458 0.013-0.019 0.004-0.056 0.011-0.075 0.014-0.196-0.002-0.392 0.003-0.588-0.003z"></path>
<path d="M16.941 25.792c0.033 0.025 0.023 0.068 0.005 0.099-0.021-0.026-0.026-0.073-0.005-0.099z"></path>
<path d="M22.549 26.059c0.066 0 0.132 0 0.198 0-0.002 0.562-0.001 1.124-0.001 1.686-1.171-0.001-2.343 0-3.514 0-0.079-0.001-0.158 0.003-0.236-0.004 0.123-0.049 0.256-0.030 0.385-0.032 1.11 0.004 2.221 0.005 3.332 0.002 0.010-0.539 0.007-1.079 0-1.618-0.055-0.001-0.109-0.002-0.163-0.003z"></path>
<path d="M4.834 27.746c0.001-0.071-0.003-0.143 0.008-0.213 0.016 0.057 0.030 0.115 0.042 0.174 0.449 0.003 0.898 0 1.348 0.001l-0.002 0.034c-0.465 0.006-0.93 0.001-1.395 0.004z"></path>
<path d="M10.069 27.746c0-0.077-0.002-0.155 0.005-0.232l0.022 0.022c0.010 0.055 0.013 0.112 0.017 0.168 0.569 0.003 1.139 0.003 1.708 0 0.008-0.057 0.016-0.113 0.027-0.169l0.004-0.020c0.008 0.011 0.024 0.032 0.031 0.043-0.015 0.061-0.012 0.124-0.011 0.186-0.601-0.002-1.203-0.002-1.804 0z"></path>
<path d="M29.322 30.216c0.146-0.148 0.39-0.175 0.574-0.087 0.069 0.032 0.12 0.099 0.2 0.106 0.011-0.033 0.023-0.065 0.034-0.097 0.039 0 0.078 0.001 0.118 0.001-0.002 0.187-0.002 0.375 0 0.562-0.040 0.005-0.079 0.008-0.118 0.011-0.019-0.118-0.057-0.241-0.147-0.325-0.118-0.11-0.301-0.125-0.447-0.069-0.179 0.076-0.192 0.374-0.013 0.456 0.208 0.072 0.444 0.061 0.635 0.182 0.126 0.075 0.188 0.225 0.184 0.368 0.010 0.172-0.027 0.36-0.153 0.486-0.149 0.156-0.391 0.185-0.592 0.131-0.101-0.024-0.181-0.101-0.286-0.108-0.005 0.034-0.008 0.069-0.010 0.105-0.042 0.001-0.083 0.002-0.124 0.003 0-0.226 0.001-0.451 0-0.676 0.036-0.001 0.073 0 0.109 0 0.002 0.027 0.004 0.055 0.006 0.084 0.032 0.163 0.119 0.325 0.28 0.39 0.146 0.026 0.309 0.033 0.443-0.039 0.174-0.091 0.175-0.38-0.003-0.468-0.207-0.096-0.454-0.062-0.65-0.186-0.138-0.083-0.188-0.254-0.185-0.407-0.010-0.153 0.034-0.314 0.144-0.424zM29.189 31.409c0.004 0.172 0 0.345 0.002 0.517l0.025-0.001c-0.009-0.217 0.008-0.434-0.009-0.65-0.022 0.040-0.018 0.089-0.018 0.134z"></path>
<path d="M12.173 30.165c0.17-0.117 0.414-0.114 0.581 0.007 0.030 0.020 0.060 0.041 0.091 0.062 0.012-0.002 0.035-0.007 0.047-0.009 0.008-0.029 0.017-0.058 0.025-0.086 0.037 0 0.074 0 0.112 0 0.001 0.19 0.002 0.381-0.002 0.571-0.037 0-0.073 0-0.109 0-0.022-0.161-0.104-0.333-0.263-0.395-0.123-0.039-0.274-0.045-0.381 0.036-0.141 0.107-0.119 0.375 0.056 0.432 0.227 0.069 0.492 0.056 0.679 0.222 0.061 0.056 0.091 0.135 0.116 0.212 0.008 0.1 0.010 0.201 0 0.302-0.030 0.109-0.068 0.221-0.153 0.299-0.062 0.067-0.148 0.103-0.233 0.131-0.122 0.024-0.25 0.026-0.37-0.013-0.093-0.024-0.168-0.1-0.268-0.1-0.007 0.035-0.013 0.070-0.018 0.105-0.038-0.001-0.076-0.002-0.114-0.002 0.001-0.225 0-0.45 0.001-0.675 0.035 0 0.070 0.001 0.105 0.001 0.009 0.156 0.062 0.323 0.193 0.42 0.111 0.082 0.258 0.079 0.389 0.062 0.102-0.012 0.206-0.066 0.252-0.161 0.036-0.096 0.037-0.215-0.034-0.295-0.077-0.092-0.204-0.105-0.314-0.127-0.171-0.029-0.365-0.050-0.489-0.184-0.126-0.147-0.109-0.356-0.092-0.535 0.037-0.109 0.094-0.217 0.193-0.281zM21.369 30.172c0.063-0.050 0.143-0.070 0.219-0.091l0.018 0.010c0.037 0.028 0.084 0.017 0.124 0.003 0.118-0.015 0.215 0.074 0.31 0.131 0.058 0.036 0.073-0.049 0.087-0.087 0.038 0 0.076 0.001 0.115 0.002-0.001 0.19 0.003 0.38-0.003 0.57-0.038 0-0.076 0-0.114 0-0.025-0.109-0.052-0.226-0.136-0.306-0.108-0.122-0.294-0.14-0.442-0.092-0.158 0.057-0.21 0.278-0.105 0.405 0.052 0.070 0.145 0.080 0.224 0.098 0.164 0.035 0.339 0.048 0.484 0.14 0.106 0.065 0.176 0.186 0.183 0.309-0.024 0.069-0.025 0.142-0.001 0.211-0.013 0.17-0.106 0.341-0.26 0.421-0.196 0.104-0.445 0.090-0.634-0.022-0.042-0.027-0.090-0.041-0.14-0.031-0.003 0.032-0.005 0.064-0.007 0.096-0.040 0-0.081-0.001-0.121 0 0-0.225 0.001-0.45 0-0.676 0.038 0 0.077 0.001 0.115 0.003 0.002 0.161 0.065 0.332 0.202 0.426 0.111 0.078 0.255 0.070 0.383 0.055 0.113-0.013 0.229-0.084 0.259-0.199 0.007-0.082 0.019-0.176-0.037-0.244-0.062-0.085-0.171-0.109-0.268-0.13-0.17-0.032-0.355-0.043-0.498-0.151-0.123-0.094-0.156-0.259-0.156-0.405-0.007-0.168 0.060-0.346 0.198-0.447zM5.774 30.132c0.527 0.007 1.054 0.002 1.581 0.003-0.002 0.187-0.001 0.375-0.001 0.562-0.041 0-0.082 0-0.123 0.001-0.001-0.080 0.004-0.163-0.026-0.238-0.049-0.076-0.129-0.131-0.218-0.145-0.090-0.012-0.182-0.012-0.273-0.012 0 0.489 0.001 0.979 0 1.468 0.087-0.001 0.175 0 0.262 0.005-0.001 0.054-0.001 0.108-0.001 0.163-0.16 0.001-0.321 0-0.481 0.001-0.111 0-0.223-0.006-0.333 0.009-0.003-0.059-0.003-0.119-0.002-0.177 0.086-0.001 0.172-0.001 0.258-0.002-0.002-0.489-0.001-0.978-0.001-1.467-0.149 0.004-0.325-0.019-0.442 0.097-0.088 0.072-0.071 0.195-0.075 0.296-0.041 0-0.082 0.001-0.123 0.003-0.002-0.189 0.003-0.378-0.002-0.567zM5.784 30.342c0.011 0.118-0.019 0.241 0.021 0.355 0.009-0.118-0.001-0.236 0.004-0.354-0.001-0.063 0.009-0.128-0.005-0.189-0.035 0.049-0.015 0.127-0.019 0.188zM7.828 30.135c0.461 0.003 0.922-0.002 1.383 0.003-0.002 0.156 0.018 0.312 0.028 0.468-0.041 0-0.083 0-0.124 0.001 0-0.077-0.004-0.161-0.052-0.224-0.048-0.057-0.125-0.073-0.196-0.074-0.174-0.007-0.349-0.005-0.523-0.003 0.002 0.214 0 0.428 0.001 0.642 0.128-0.006 0.291 0.031 0.383-0.083 0.008-0.069 0.016-0.138 0.018-0.207 0.037 0 0.074 0 0.112 0.001 0.004 0.238-0.001 0.476 0.002 0.714-0.039-0.001-0.078-0.001-0.116-0.001-0.005-0.078 0.017-0.181-0.049-0.237-0.109-0.051-0.233-0.027-0.349-0.032 0 0.223 0 0.446 0 0.669 0.195 0 0.391 0.006 0.586 0 0.077-0.004 0.169-0.008 0.219-0.077 0.063-0.090 0.055-0.206 0.065-0.31 0.038 0 0.077 0 0.115 0.001-0.001 0.186 0 0.372-0.001 0.557-0.501-0.004-1.001-0.001-1.502-0.002 0-0.056 0-0.112 0.001-0.168 0.072-0.001 0.145 0 0.217 0.005 0.002-0.491 0-0.982 0.001-1.473-0.073 0-0.146 0-0.218 0 0-0.056-0.001-0.113-0.001-0.168zM9.876 30.135c0.266 0 0.532 0.001 0.798-0.001 0 0.056 0 0.113 0 0.169-0.085-0.001-0.17-0.002-0.255 0.002 0.002 0.488 0.001 0.977 0 1.465 0.166 0.005 0.333 0.005 0.499-0.003 0.114-0.006 0.23-0.047 0.306-0.135 0.066-0.089 0.061-0.206 0.067-0.312 0.037 0 0.074 0 0.112 0 0.002 0.21 0.004 0.42-0.002 0.63-0.275-0.022-0.551-0.005-0.826-0.009-0.233-0.002-0.466 0-0.699 0 0-0.055 0-0.11 0-0.165 0.082-0.005 0.163-0.005 0.245-0.004-0.001-0.493 0-0.985 0-1.478-0.082 0-0.163 0-0.245 0 0-0.053 0-0.106 0-0.159zM16.914 30.135c0.267 0 0.534 0.001 0.801 0 0.144 0.001 0.293 0.018 0.421 0.087 0.178 0.101 0.239 0.347 0.161 0.53-0.065 0.148-0.228 0.214-0.374 0.254 0.099 0.031 0.209 0.066 0.267 0.159 0.096 0.15 0.082 0.334 0.108 0.503 0.002 0.050 0.016 0.099 0.045 0.141 0.056 0.001 0.112-0.003 0.168-0.010 0.018 0.040 0.037 0.080 0.055 0.12-0.129 0.036-0.27 0.054-0.4 0.017-0.091-0.025-0.153-0.108-0.176-0.196-0.045-0.164-0.038-0.337-0.079-0.502-0.021-0.079-0.098-0.124-0.174-0.135-0.089-0.012-0.18-0.007-0.27-0.008 0 0.226-0.001 0.451 0.001 0.677 0.084 0 0.169 0 0.253 0 0 0.060 0.008 0.121-0.012 0.18-0.264-0.024-0.531-0.005-0.796-0.011 0-0.055 0-0.11 0-0.164 0.084-0.006 0.169-0.006 0.253 0-0.001-0.491 0-0.982 0-1.473-0.084 0-0.168 0-0.252 0.001-0.001-0.056-0.001-0.112-0.001-0.168zM17.467 30.302c0 0.211 0 0.422 0 0.633 0.15-0.005 0.316 0.015 0.447-0.074 0.117-0.091 0.105-0.258 0.086-0.389-0.022-0.093-0.116-0.132-0.198-0.159-0.112-0.008-0.224-0.011-0.336-0.011zM24.902 30.135c0.288 0.003 0.576-0.001 0.864 0.002 0.156 0.009 0.329 0.036 0.443 0.153 0.109 0.121 0.134 0.308 0.077 0.458-0.070 0.147-0.231 0.228-0.385 0.257 0.102 0.028 0.211 0.064 0.272 0.157 0.099 0.149 0.088 0.336 0.113 0.507 0.008 0.049 0.002 0.12 0.062 0.139 0.051 0.007 0.103-0.003 0.154-0.008 0.015 0.041 0.032 0.081 0.047 0.122-0.121 0.034-0.251 0.047-0.374 0.021-0.080-0.017-0.151-0.072-0.18-0.15-0.069-0.176-0.052-0.37-0.097-0.551-0.019-0.070-0.081-0.119-0.15-0.134-0.099-0.020-0.201-0.011-0.301-0.011 0 0.224 0.001 0.448-0.001 0.672 0.085 0.008 0.171 0.006 0.256 0.001 0.003 0.056 0.003 0.113 0.004 0.17-0.092 0.003-0.184 0.001-0.276 0.001-0.176-0.001-0.352 0-0.527 0 0-0.055 0-0.11 0-0.165 0.082-0.004 0.163-0.004 0.245-0.004 0-0.489-0.001-0.979 0-1.468-0.081-0.001-0.163-0.001-0.244 0.001-0.001-0.057-0.002-0.114-0.002-0.17zM25.447 30.305c0.001 0.21 0 0.419 0 0.629 0.144-0.003 0.299 0.014 0.43-0.057 0.111-0.065 0.133-0.206 0.122-0.322-0.001-0.085-0.042-0.176-0.125-0.209-0.134-0.057-0.285-0.039-0.427-0.040zM26.948 30.136c0.526 0 1.051 0.001 1.577-0.001 0 0.188 0 0.376 0 0.563-0.039 0-0.077 0-0.116 0-0.001-0.105 0.005-0.231-0.084-0.303-0.118-0.108-0.287-0.087-0.433-0.092 0 0.305 0 0.61 0 0.915 0 0.186-0.001 0.371 0.001 0.557 0.085-0.005 0.172-0.005 0.258 0.003-0.005 0.054-0.009 0.108-0.011 0.163-0.27-0.003-0.541 0.002-0.811-0.002 0-0.054 0-0.107 0-0.161 0.088-0.007 0.177-0.006 0.265-0.008-0.015-0.241-0.003-0.483-0.007-0.724 0.003-0.247-0.007-0.495 0.007-0.742-0.145 0.003-0.312-0.019-0.431 0.082-0.097 0.072-0.092 0.204-0.095 0.312-0.040-0.001-0.080-0.002-0.119-0.001 0-0.187 0-0.375 0-0.562z"></path>
<path d="M14.69 30.161c0.168-0.113 0.456-0.089 0.538 0.118 0.046 0.117 0.033 0.255-0.035 0.361-0.047 0.084-0.128 0.137-0.203 0.193 0.113 0.149 0.213 0.308 0.334 0.451 0.065-0.096 0.124-0.206 0.231-0.262 0.092-0.054 0.221-0.074 0.31-0.004 0.063 0.059 0.088 0.163 0.046 0.242-0.047 0.097-0.198 0.123-0.272 0.042-0.039-0.038-0.032-0.099-0.044-0.147-0.078 0.070-0.148 0.151-0.196 0.245 0.105 0.116 0.199 0.253 0.347 0.319 0.12 0.004 0.181-0.126 0.237-0.214 0.036 0.012 0.073 0.025 0.11 0.037-0.074 0.17-0.166 0.38-0.367 0.422-0.029-0.030-0.071-0.019-0.105-0.005-0.029 0.013-0.058-0.009-0.084-0.018-0.133-0.067-0.236-0.18-0.326-0.296-0.119 0.14-0.256 0.287-0.445 0.322-0.284 0.055-0.575-0.204-0.552-0.493-0.007-0.27 0.198-0.493 0.43-0.602-0.062-0.114-0.138-0.227-0.144-0.36 0-0.139 0.069-0.279 0.19-0.351zM14.766 30.384c0.008 0.121 0.080 0.224 0.142 0.324 0.085-0.057 0.168-0.132 0.191-0.236 0.011-0.063 0.007-0.139-0.044-0.185-0.085-0.094-0.296-0.048-0.289 0.097zM14.507 31.198c-0.050 0.149 0.016 0.306 0.11 0.421 0.051 0.073 0.14 0.108 0.226 0.115 0.126-0.007 0.206-0.113 0.282-0.2-0.128-0.179-0.264-0.353-0.387-0.536-0.091 0.046-0.188 0.102-0.231 0.199z"></path>
<path d="M3.962 30.526c0.141-0.256 0.42-0.433 0.715-0.425 0.185 0.022 0.365 0.102 0.493 0.239 0.17 0.164 0.256 0.397 0.282 0.628l-0.012 0.018c-0.028 0.029-0.018 0.070 0.001 0.102 0.022 0.055-0.006 0.116-0.011 0.173-0.063 0.346-0.33 0.67-0.689 0.724-0.043-0.036-0.105-0.035-0.147 0.002-0.168 0.005-0.327-0.084-0.452-0.191-0.349-0.311-0.413-0.872-0.181-1.27zM4.296 30.43c-0.082 0.124-0.116 0.274-0.133 0.42-0.024 0.256-0.015 0.529 0.101 0.765 0.053 0.112 0.163 0.185 0.282 0.208 0.122 0.005 0.257 0.007 0.357-0.075 0.143-0.117 0.179-0.311 0.208-0.483 0.016-0.249 0.020-0.51-0.082-0.742-0.047-0.113-0.143-0.213-0.267-0.235-0.164-0.039-0.367-0.005-0.466 0.144zM23.462 30.148c0.167-0.063 0.359-0.058 0.521 0.017 0.283 0.122 0.471 0.41 0.519 0.709 0.068 0.377-0.089 0.8-0.419 1.007-0.078 0.051-0.167 0.079-0.256 0.103-0.078-0.024-0.158-0.018-0.236 0.001-0.309-0.050-0.554-0.305-0.649-0.596-0.087-0.268-0.070-0.573 0.062-0.824 0.095-0.188 0.258-0.344 0.457-0.417zM23.421 30.362c-0.142 0.133-0.172 0.339-0.201 0.523-0.050 0.064-0.039 0.15-0.038 0.226-0.002 0.037 0.014 0.071 0.038 0.1 0.021 0.156 0.052 0.317 0.137 0.452 0.065 0.099 0.181 0.157 0.298 0.161 0.114 0.007 0.24-0.007 0.327-0.089 0.132-0.119 0.165-0.305 0.193-0.472 0.019-0.267 0.020-0.552-0.109-0.795-0.119-0.226-0.456-0.254-0.645-0.105z"></path>
<path d="M5.784 30.342c0.004-0.060-0.016-0.139 0.019-0.188 0.014 0.061 0.005 0.126 0.005 0.189-0.005 0.118 0.005 0.236-0.004 0.354-0.039-0.114-0.010-0.237-0.021-0.355z"></path>
<path d="M19.493 30.307l0.025-0.002c0.002 0.214 0 0.428 0 0.642-0.006 0-0.019-0.001-0.025-0.002-0.009-0.212-0.009-0.425 0-0.637z"></path>
<path d="M22.332 31.476c-0.024-0.069-0.023-0.142 0.001-0.211 0.008 0.070 0.008 0.141-0.001 0.211zM23.592 31.984c0.078-0.018 0.158-0.025 0.236-0.001-0.079 0.006-0.158 0.007-0.236 0.001z"></path>
<path d="M29.189 31.409c0-0.045-0.003-0.094 0.018-0.134 0.017 0.216-0.001 0.433 0.009 0.65l-0.025 0.001c-0.002-0.172 0.002-0.345-0.002-0.517z"></path>
<path d="M20.394 31.386c0.036-0.001 0.072-0.001 0.109-0.001-0.004 0.186 0.006 0.373-0.005 0.559-0.053-0.167-0.009-0.345-0.027-0.517-0.026-0.014-0.051-0.027-0.076-0.041z"></path>
</svg>
