<!-- Generated by IcoMoon.io -->
<svg version="1.1" xmlns="http://www.w3.org/2000/svg" width="162" height="32" viewBox="0 0 162 32">
<title>samadhi</title>
<path d="M16.529 0.274c-0.255 0.255-0.245 0.378 0.038 0.802 0.859 1.265 0.887 1.529 0.887 7.372-0.009 2.643-0.038 5.39-0.076 6.098l-0.057 1.284h2.228l-0.066-0.406c-0.094-0.67-0.179-7.863-0.113-9.996 0.038-1.18 0.123-2.284 0.208-2.719 0.236-1.161 0.094-1.369-1.416-2.124-1.001-0.5-1.369-0.576-1.633-0.311z"></path>
<path d="M152.175 0.264c-0.151 0.283-0.142 0.321 0.236 0.868 0.585 0.859 0.623 1.029 0.67 3.7l0.057 2.435h-9.109l0.047-2.53c0.028-1.482 0.094-2.766 0.17-3.106 0.142-0.717 0.066-0.84-0.727-1.171-0.585-0.236-1.303-0.217-1.822 0.047l-0.293 0.151 0.368 0.736c0.614 1.208 0.821 2.341 0.916 5.022 0.076 1.926-0.028 3.36-0.444 6.079l-0.283 1.869 0.236 0.491c0.132 0.264 0.359 0.623 0.51 0.802 0.34 0.415 0.67 0.359 0.906-0.132 0.396-0.831 0.472-1.576 0.472-4.437 0-1.784 0.038-2.766 0.104-2.804 0.142-0.104 8.656-0.085 8.817 0.009 0.113 0.076 0.123 0.632 0.076 3.663-0.038 1.963-0.076 3.644-0.094 3.738-0.019 0.16 0.076 0.179 1.048 0.189l1.067 0.019-0.076-1.935c-0.113-3.002-0.076-10.837 0.066-11.884 0.113-0.878 0.113-0.887-0.104-1.095-0.311-0.293-1.614-0.812-2.209-0.868-0.434-0.047-0.51-0.028-0.604 0.142z"></path>
<path d="M158.943 0.198c-0.264 0.151-0.198 0.519 0.208 1.189 0.68 1.123 0.708 1.425 0.708 6.542 0 2.464-0.028 5.248-0.076 6.192l-0.066 1.699h2.171l-0.066-1.699c-0.047-0.944-0.076-3.596-0.076-5.909 0-3.719 0.019-4.323 0.179-5.248 0.236-1.35 0.179-1.501-0.689-2.020-0.699-0.415-1.709-0.85-1.963-0.85-0.094 0-0.245 0.047-0.33 0.104z"></path>
<path d="M124.149 0.396c-0.198 0.198-0.123 0.557 0.264 1.133 0.208 0.311 0.425 0.717 0.481 0.906 0.245 0.812 0.359 6.985 0.179 10.053-0.076 1.303-0.132 1.709-0.33 2.265-0.387 1.086-0.387 1.086-0.085 1.208 0.189 0.076 0.595 0.076 1.312 0.028 0.576-0.047 2.247-0.085 3.729-0.085 3.124-0.009 3.493-0.076 5.154-0.897 2.756-1.35 4.116-3.917 3.974-7.457-0.151-3.776-1.737-5.843-5.022-6.57-0.642-0.142-1.114-0.16-3.115-0.123-4.38 0.076-4.616 0.057-5.428-0.283-0.774-0.321-0.944-0.349-1.114-0.179zM132.842 1.973c2.058 0.538 3.2 1.794 3.663 4.021 0.17 0.812 0.189 1.161 0.151 2.454-0.066 1.727-0.227 2.501-0.783 3.634-0.472 0.963-1.35 1.831-2.303 2.294-1.237 0.604-1.68 0.68-3.965 0.68-1.114 0-2.143-0.028-2.275-0.066l-0.255-0.076-0.066-1.388c-0.047-0.774-0.038-3.37 0-5.786 0.047-2.417 0.085-4.701 0.085-5.088 0.009-0.387 0.057-0.717 0.104-0.736 0.311-0.104 2.284-0.198 3.493-0.17 1.029 0.028 1.624 0.085 2.152 0.227z"></path>
<path d="M50.605 0.529c-0.283 0.066-0.831 0.151-1.227 0.189-0.689 0.066-0.708 0.066-0.491 0.217 0.566 0.396 0.84 0.689 0.944 1.019 0.123 0.359 0.113 0.387-1.86 4.842-1.086 2.464-2.218 5.022-2.52 5.692-0.519 1.142-0.831 1.576-1.142 1.576-0.227 0-0.151 0.349 0.236 1.114 0.434 0.868 0.614 1.057 0.802 0.859 0.076-0.076 0.5-1.171 0.963-2.445 0.453-1.274 0.934-2.586 1.076-2.926l0.255-0.614h5.447l0.689 1.652c0.378 0.906 0.906 2.209 1.18 2.889l0.481 1.227h2.303l-0.557-1.227c-0.623-1.359-2.096-4.833-4.37-10.251-0.812-1.945-1.529-3.625-1.595-3.738-0.094-0.179-0.132-0.179-0.614-0.076zM51.634 6.372l1.029 2.549-0.349 0.076c-0.415 0.094-4.031 0.047-4.125-0.047-0.038-0.038 0.453-1.284 1.095-2.775 0.897-2.096 1.18-2.671 1.237-2.53 0.047 0.094 0.538 1.322 1.114 2.728z"></path>
<path d="M81.463 0.491c-0.179 0.057-0.755 0.142-1.265 0.208l-0.934 0.104 0.491 0.302c0.368 0.236 0.529 0.406 0.67 0.736l0.189 0.434-1.567 3.559c-2.237 5.088-3.455 7.788-3.559 7.929-0.057 0.066-0.245 0.189-0.415 0.255-0.274 0.113-0.311 0.17-0.255 0.349 0.104 0.349 0.661 1.425 0.859 1.671l0.189 0.236 0.151-0.236c0.085-0.123 0.463-1.123 0.85-2.209 0.387-1.095 0.868-2.398 1.057-2.907l0.359-0.916h5.428l0.444 1.057c0.245 0.585 0.783 1.897 1.189 2.907l0.746 1.841 1.133 0.009c0.623 0 1.133-0.009 1.133-0.028 0-0.009-0.198-0.463-0.434-0.991-0.708-1.576-2.058-4.729-4.144-9.704-1.076-2.568-1.963-4.673-1.973-4.682 0-0.009-0.16 0.028-0.34 0.076zM82.218 6.23c0.585 1.463 1.029 2.681 0.991 2.719-0.094 0.094-3.71 0.142-4.125 0.047l-0.349-0.076 1.142-2.671c0.632-1.463 1.171-2.662 1.208-2.662s0.547 1.189 1.133 2.643z"></path>
<path d="M115.455 0.529c-0.283 0.066-0.831 0.151-1.227 0.189-0.689 0.066-0.708 0.066-0.491 0.217 0.566 0.396 0.84 0.689 0.944 1.019 0.123 0.359 0.113 0.387-1.86 4.842-1.086 2.464-2.218 5.022-2.52 5.692-0.519 1.142-0.831 1.576-1.142 1.576-0.227 0-0.151 0.349 0.236 1.114 0.434 0.868 0.614 1.057 0.802 0.859 0.076-0.076 0.5-1.171 0.963-2.445 0.453-1.274 0.934-2.586 1.076-2.926l0.255-0.614h5.447l0.689 1.652c0.378 0.906 0.906 2.209 1.18 2.889l0.481 1.227h2.303l-0.368-0.802c-0.623-1.359-1.784-4.059-3.965-9.26-1.142-2.728-2.124-5.041-2.19-5.154-0.094-0.179-0.132-0.179-0.614-0.076zM116.484 6.372l1.029 2.549-0.349 0.076c-0.415 0.094-4.031 0.047-4.125-0.047-0.038-0.038 0.453-1.284 1.095-2.775 0.897-2.096 1.18-2.671 1.237-2.53 0.047 0.094 0.538 1.322 1.114 2.728z"></path>
<path d="M68.229 0.566c-0.746 0.123-1.369 0.368-1.963 0.765-0.651 0.444-1.038 0.897-1.397 1.661-0.236 0.51-0.255 0.632-0.255 1.727 0 1.388 0.132 1.775 0.859 2.549 0.604 0.642 1.142 0.963 2.785 1.661 1.633 0.689 2.341 1.133 2.719 1.68 0.396 0.585 0.51 1.019 0.463 1.841-0.047 0.859-0.311 1.501-0.812 2.020-0.481 0.51-0.944 0.717-1.812 0.84-1.775 0.264-3.615-0.519-4.588-1.945-0.378-0.547-0.359-0.293 0.047 0.453 0.349 0.661 0.953 1.293 1.501 1.595 1.029 0.557 2.69 0.774 4.040 0.529 2.105-0.387 3.36-2.096 3.379-4.616 0-0.793-0.028-0.963-0.264-1.482-0.5-1.095-1.237-1.624-3.653-2.624-1.463-0.604-2.19-1.076-2.558-1.642-1.255-1.982 0.17-4.38 2.52-4.238 0.415 0.028 0.802 0.123 1.048 0.245 0.481 0.245 1.038 0.859 1.284 1.397 0.094 0.227 0.236 0.415 0.302 0.415 0.076 0 0.189-0.245 0.283-0.623 0.085-0.349 0.227-0.755 0.302-0.906 0.132-0.255 0.132-0.302-0.009-0.453-0.245-0.264-1.369-0.736-2.029-0.84-0.699-0.113-1.539-0.113-2.19-0.009z"></path>
<path d="M91.998 0.585c-0.019 0.066-0.151 1.095-0.283 2.294-0.349 2.983-1.548 11.45-1.812 12.706l-0.047 0.236h1.51l0.047-0.566c0.028-0.321 0.113-1.406 0.189-2.417 0.085-1.010 0.302-3.276 0.5-5.041 0.302-2.794 0.359-3.172 0.481-3.021 0.066 0.104 1.34 2.615 2.832 5.579 1.491 2.973 2.766 5.409 2.822 5.409 0.066 0 0.274-0.349 0.472-0.783 0.878-1.954 5.286-10.421 5.381-10.327 0.009 0.009 0.208 1.822 0.444 4.031 0.529 4.852 0.651 5.645 0.982 6.324 0.359 0.717 0.746 0.972 1.454 0.925 0.396-0.028 0.614-0.104 0.868-0.302 0.406-0.302 0.547-0.708 0.293-0.85-0.878-0.529-1.048-0.783-1.227-1.869-0.066-0.434-0.415-3.408-0.765-6.617-0.614-5.588-0.651-5.824-0.84-5.824-0.151 0-0.765 1.095-3.389 6.004-2.568 4.814-3.228 5.975-3.313 5.871-0.189-0.198-3.323-6.107-4.842-9.109-1.038-2.058-1.435-2.766-1.558-2.766-0.094 0-0.179 0.057-0.198 0.113z"></path>
<path d="M0.576 0.68c-0.434 0.16-0.595 0.425-0.349 0.566 0.359 0.198 1.019 0.868 1.237 1.255 0.359 0.604 4.012 9.515 5.135 12.507l0.302 0.802h1.491l0.538-1.369c1.359-3.493 3.181-7.863 4.842-11.63 0.472-1.067 0.859-1.963 0.859-1.982s-0.359-0.028-0.802-0.038h-0.802l-0.34 1.038c-0.765 2.332-3.398 9.175-4.286 11.158l-0.302 0.651-0.132-0.264c-0.264-0.481-2.832-6.966-3.719-9.364-0.481-1.303-0.982-2.501-1.114-2.681-0.132-0.17-0.406-0.396-0.623-0.491-0.519-0.227-1.52-0.311-1.935-0.16z"></path>
<path d="M23.542 1.51c0.132 1.831 0.17 9.015 0.066 11.601-0.057 1.473-0.094 2.69-0.085 2.709 0.019 0.009 0.217-0.019 0.453-0.066 0.708-0.142 3.474-0.208 4.418-0.104 0.481 0.057 1.322 0.217 1.869 0.359l0.991 0.255 0.255-0.189c0.378-0.283 0.68-0.859 0.68-1.331 0-0.217-0.038-0.396-0.085-0.396-0.057 0-0.444 0.085-0.878 0.189-0.68 0.16-1.114 0.189-3.209 0.189h-2.417l-0.066-0.916c-0.076-1.010 0.009-12.243 0.104-12.772l0.057-0.33h-2.218l0.066 0.802z"></path>
<path d="M34.492 1.227c0.123 1.104 0.17 10.185 0.066 12.356-0.057 1.218-0.085 2.228-0.076 2.237s0.208-0.019 0.444-0.066c0.708-0.151 3.474-0.208 4.418-0.104 0.491 0.057 1.35 0.227 1.916 0.368l1.029 0.255 0.33-0.321c0.359-0.349 0.661-1.114 0.566-1.416-0.076-0.227-0.047-0.227-1.010 0-0.68 0.16-1.114 0.189-3.2 0.189h-2.426l-0.066-2.53c-0.076-2.539-0.009-9.468 0.104-10.78l0.066-0.708h-2.218l0.057 0.519z"></path>
<path d="M60.479 22.041c-0.878 0.33-1.293 0.934-1.293 1.878 0 0.991 0.368 1.425 1.709 2.001 0.963 0.406 1.303 0.642 1.463 1.038 0.179 0.425 0.16 0.765-0.057 1.237-0.255 0.566-0.651 0.783-1.407 0.783-0.727 0-1.274-0.236-1.709-0.717-0.312-0.359-0.349-0.349-0.151 0.038 0.359 0.689 1.001 1.001 2.039 1.010 0.708 0 0.85-0.028 1.246-0.255 0.717-0.434 1.152-1.576 0.925-2.445-0.16-0.595-0.651-1.010-1.69-1.444-1.331-0.547-1.746-1.095-1.52-1.954 0.189-0.689 0.963-1.076 1.718-0.85 0.283 0.085 0.434 0.217 0.642 0.547l0.274 0.434 0.104-0.274c0.255-0.651 0.236-0.746-0.16-0.944-0.463-0.227-1.633-0.274-2.133-0.085z"></path>
<path d="M64.642 22.098c-0.198 0.113-0.227 0.368-0.038 0.368 0.066 0 0.302 0.189 0.51 0.415 0.378 0.406 0.557 0.434 0.453 0.076-0.028-0.085-0.094-0.34-0.151-0.566-0.085-0.34-0.132-0.396-0.359-0.396-0.142 0-0.33 0.047-0.415 0.104z"></path>
<path d="M77.027 23.74c-0.274 0.33-0.632 0.425-1.624 0.425-1.425 0.009-2.001 0.33-2.256 1.246-0.16 0.614-0.028 1.104 0.434 1.567l0.406 0.396-0.321 0.321c-0.415 0.415-0.425 0.727-0.009 1.142l0.321 0.321-0.33 0.217c-0.519 0.34-0.727 0.689-0.717 1.171 0.009 0.538 0.245 0.868 0.821 1.161 0.85 0.425 2.152 0.368 2.917-0.132 0.774-0.51 1.133-1.756 0.68-2.379-0.33-0.463-0.793-0.614-1.954-0.661-1.095-0.057-1.388-0.16-1.388-0.5 0-0.387 0.227-0.5 1.029-0.529 0.595-0.019 0.859-0.076 1.161-0.245 0.614-0.34 0.783-0.642 0.783-1.388 0-0.557-0.038-0.68-0.264-0.982l-0.264-0.349h0.33c0.255 0 0.378-0.057 0.491-0.227 0.264-0.406 0.038-0.925-0.245-0.576zM75.799 24.703c0.802 0.717 0.425 2.35-0.566 2.53-0.953 0.16-1.633-1.010-1.189-2.067 0.302-0.736 1.189-0.963 1.756-0.463zM76.073 29.291c0.179 0.066 0.406 0.227 0.51 0.368 0.245 0.321 0.255 1.001 0.028 1.35-0.519 0.783-2.029 0.925-2.719 0.236-0.227-0.227-0.264-0.34-0.264-0.793 0-0.415 0.047-0.576 0.227-0.783 0.198-0.227 0.293-0.264 0.746-0.264 0.406 0 0.5-0.028 0.425-0.123-0.132-0.151 0.595-0.151 1.048 0.009z"></path>
<path d="M69.23 24.335c-0.208 0.104-0.472 0.302-0.585 0.444l-0.208 0.264v-0.783h-0.897l0.028 2.473 0.028 2.483h0.425l0.415 0.009-0.019-1.661c-0.028-1.794 0.047-2.171 0.444-2.549 0.311-0.293 1.161-0.378 1.52-0.142 0.406 0.264 0.51 0.699 0.595 2.294 0.076 1.539 0.142 1.803 0.519 2.048 0.17 0.113 0.274 0.123 0.491 0.047 0.425-0.17 0.538-0.425 0.227-0.519-0.349-0.113-0.425-0.415-0.472-2.048-0.047-1.709-0.085-1.831-0.689-2.284-0.368-0.274-1.312-0.311-1.822-0.076z"></path>
<path d="M79.509 24.288c-0.359 0.142-1.161 0.689-1.161 0.802 0 0.047 0.236 0.151 0.529 0.227 0.481 0.132 0.519 0.132 0.453-0.009-0.198-0.472-0.17-0.557 0.245-0.67 0.906-0.245 1.595 0.179 1.68 1.029 0.038 0.406 0.019 0.481-0.179 0.604-0.123 0.076-0.604 0.208-1.076 0.302-0.982 0.189-1.378 0.396-1.595 0.84-0.302 0.632-0.104 1.35 0.472 1.727 0.529 0.34 1.595 0.16 2.181-0.368 0.198-0.189 0.198-0.189 0.264 0.019 0.066 0.198 0.557 0.481 0.746 0.425 0.057-0.019 0.217-0.057 0.368-0.085 0.33-0.076 0.33-0.208-0.019-0.274-0.368-0.076-0.396-0.255-0.378-2.086 0.019-1.699-0.038-1.945-0.595-2.341-0.245-0.17-0.453-0.217-0.972-0.236-0.359-0.009-0.793 0.028-0.963 0.094zM81.274 27.365c0 0.661-0.028 0.783-0.236 1.038-0.5 0.585-1.416 0.623-1.746 0.076-0.472-0.765-0.085-1.378 1.038-1.671 0.387-0.094 0.765-0.179 0.831-0.179 0.076-0.009 0.113 0.198 0.113 0.736z"></path>
<path d="M83.379 24.307c-0.368 0.16-0.387 0.264-0.085 0.406 0.406 0.179 0.453 0.614 0.415 4.068l-0.028 3.172h0.887l-0.113-3.587 0.387 0.396c0.378 0.387 0.85 0.595 1.35 0.595 0.434 0 1.104-0.293 1.454-0.632 0.547-0.529 0.746-1.067 0.746-2.011 0-1.605-0.774-2.539-2.096-2.549-0.661 0-1.038 0.17-1.473 0.67l-0.359 0.415 0.019-0.378c0.047-0.699 0.038-0.708-0.396-0.708-0.227 0.009-0.547 0.066-0.708 0.142zM86.778 24.807c0.463 0.274 0.68 0.878 0.68 1.907 0 0.765-0.038 0.963-0.236 1.359-0.321 0.632-0.642 0.859-1.237 0.85-0.585-0.009-0.906-0.227-1.218-0.85-0.33-0.642-0.34-1.945-0.019-2.605 0.255-0.51 0.368-0.623 0.84-0.793 0.396-0.142 0.793-0.094 1.189 0.132z"></path>
<path d="M90.827 24.297c-1.038 0.34-1.576 1.189-1.567 2.464 0.009 0.85 0.142 1.255 0.595 1.765 0.453 0.519 1.057 0.765 1.897 0.774 1.671 0.019 2.643-1.067 2.53-2.832-0.085-1.359-0.765-2.228-1.737-2.209-0.255 0-0.651-0.019-0.887-0.047-0.236-0.019-0.604 0.019-0.831 0.085zM92.035 24.439c0 0.057-0.038 0.123-0.094 0.151-0.047 0.028-0.094 0.113-0.094 0.179 0 0.085 0.132 0.123 0.415 0.113 0.802-0.019 1.142 0.632 1.076 2.048-0.028 0.736-0.076 0.944-0.293 1.312-0.293 0.5-0.708 0.736-1.322 0.736-0.859 0-1.444-0.736-1.548-1.945-0.094-1.161 0.321-2.265 0.953-2.549 0.34-0.142 0.906-0.17 0.906-0.047z"></path>
<path d="M95.056 24.26c-0.113 0.066-0.094 0.132 0.142 0.378l0.283 0.293 0.028 2.124 0.028 2.114h0.793l-0.028-1.454c-0.038-1.652 0.047-2.124 0.463-2.539 0.264-0.255 0.321-0.274 0.755-0.227l0.463 0.057v-0.415c0-0.425 0-0.425-0.33-0.425-0.415 0-0.746 0.208-1.104 0.699l-0.274 0.378 0.066-0.396c0.085-0.538-0.047-0.68-0.661-0.68-0.264 0-0.547 0.047-0.623 0.094z"></path>
<path d="M100.012 24.307c-0.859 0.302-1.463 1.34-1.463 2.511 0 1.010 0.415 1.756 1.246 2.218 0.661 0.368 1.652 0.387 2.407 0.047 0.717-0.321 0.774-0.415 0.699-1.142-0.076-0.632-0.094-0.623-0.311 0.085-0.076 0.236-0.245 0.5-0.378 0.604-0.274 0.208-0.944 0.311-1.435 0.217-0.689-0.132-1.274-0.925-1.284-1.718v-0.387l0.68-0.066c0.378-0.038 1.218-0.038 1.878 0 0.925 0.047 1.208 0.038 1.265-0.057 0.047-0.076 0.019-0.17-0.076-0.236s-0.16-0.198-0.16-0.293c0-0.68-0.519-1.454-1.18-1.746-0.453-0.208-1.35-0.227-1.888-0.038zM101.635 24.694c0.293 0.179 0.5 0.623 0.566 1.18l0.057 0.472-2.719-0.057 0.028-0.311c0.028-0.368 0.302-0.944 0.566-1.18 0.387-0.349 1.038-0.396 1.501-0.104z"></path>
<path d="M64.831 26.714l0.028 2.454h0.84v-4.909h-0.897l0.028 2.454z"></path>
</svg>
