<!-- Generated by IcoMoon.io -->
<svg version="1.1" xmlns="http://www.w3.org/2000/svg" width="32" height="32" viewBox="0 0 32 32">
<title>Tamarind-Hill-Logo</title>
<path d="M22.71 13.305c-0.11 0.040-0.11 0.050-0.035 0.19 0.175 0.34 0.205 1.115 0.070 1.95-0.040 0.265-0.035 0.335 0.030 0.435 0.090 0.14 0.2 0.155 0.25 0.030 0.020-0.045 0.045-0.335 0.060-0.64l0.030-0.555 0.38-0.030c0.21-0.015 0.555-0.015 0.775 0l0.39 0.030-0.020 0.645-0.020 0.64h0.38l-0.010-1.31-0.015-1.31-0.185-0.070c-0.105-0.040-0.22-0.060-0.26-0.045-0.065 0.025-0.065 0.060 0.025 0.255 0.075 0.175 0.095 0.315 0.085 0.59l-0.015 0.365h-1.55v-0.35c0-0.195 0.015-0.44 0.025-0.545 0.025-0.18 0.015-0.2-0.125-0.255-0.095-0.040-0.19-0.045-0.265-0.020z"></path>
<path d="M2.2 13.335c-0.21 0.030-0.3 0.095-0.3 0.225 0 0.080 0.025 0.095 0.115 0.070 0.355-0.105 0.585-0.14 0.66-0.11 0.080 0.030 0.085 0.13 0.065 1.255l-0.020 1.225h0.355l-0.015-1.205c-0.015-0.66 0-1.225 0.020-1.245 0.050-0.050 0.29 0 0.555 0.105 0.14 0.055 0.17 0.055 0.26-0.030 0.060-0.050 0.105-0.14 0.105-0.195 0-0.1-0.025-0.105-0.815-0.11-0.445-0.005-0.89 0-0.985 0.015z"></path>
<path d="M4.715 13.34c-0.18 0.020-0.205 0.065-0.090 0.16 0.040 0.035 0.075 0.085 0.075 0.115 0 0.105-0.865 2.010-0.94 2.065-0.065 0.045-0.065 0.075-0.005 0.195 0.090 0.185 0.18 0.21 0.22 0.065 0.020-0.065 0.1-0.3 0.185-0.53l0.155-0.415 0.955 0.030 0.2 0.485 0.2 0.49h0.19c0.18 0 0.195-0.010 0.16-0.115-0.015-0.060-0.070-0.19-0.12-0.285s-0.275-0.625-0.5-1.175c-0.23-0.55-0.44-1.025-0.47-1.050-0.030-0.030-0.13-0.045-0.215-0.035zM4.995 14.34c0.085 0.215 0.155 0.41 0.155 0.425 0 0.020-0.155 0.035-0.35 0.035-0.265 0-0.35-0.015-0.35-0.070 0-0.095 0.305-0.78 0.35-0.78 0.020 0 0.11 0.175 0.195 0.39z"></path>
<path d="M10.74 13.34c-0.105 0.010-0.19 0.035-0.19 0.065 0 0.025 0.020 0.045 0.050 0.045 0.025 0 0.070 0.045 0.095 0.095 0.045 0.075-0.035 0.29-0.37 1.060-0.235 0.53-0.465 1.005-0.505 1.055-0.070 0.075-0.075 0.11-0.020 0.24 0.090 0.225 0.17 0.185 0.27-0.14 0.050-0.155 0.135-0.39 0.19-0.525l0.1-0.235h0.925l0.205 0.485 0.2 0.49 0.205 0.015c0.115 0.010 0.205 0.005 0.205-0.005s-0.070-0.17-0.15-0.355c-0.085-0.18-0.33-0.765-0.55-1.29-0.225-0.53-0.42-0.975-0.44-0.99s-0.12-0.020-0.22-0.010zM11.015 14.3c0.070 0.18 0.14 0.365 0.16 0.41 0.030 0.080 0 0.090-0.35 0.090-0.29 0-0.38-0.015-0.36-0.065 0.18-0.47 0.36-0.83 0.39-0.8 0.020 0.020 0.095 0.185 0.16 0.365z"></path>
<path d="M14.62 13.37c-0.015 0.040 0.015 0.135 0.065 0.21 0.080 0.125 0.090 0.26 0.090 1.3l-0.005 1.165 0.165-0.015 0.17-0.010 0.005-1.24 0.010-1.24-0.12-0.090c-0.19-0.135-0.345-0.17-0.38-0.080z"></path>
<path d="M15.765 13.335c-0.14 0.025-0.14 0.040-0.010 0.17 0.1 0.1 0.105 0.145 0.085 1.17-0.015 0.975-0.025 1.075-0.115 1.175-0.080 0.090-0.085 0.115-0.025 0.15 0.11 0.070 0.18 0.060 0.27-0.030 0.065-0.065 0.080-0.23 0.080-1.005 0-0.52 0.020-0.915 0.045-0.905 0.040 0.015 1.010 1.055 1.615 1.73 0.125 0.145 0.25 0.26 0.275 0.26 0.020 0 0.040-0.455 0.040-1.015 0-0.555 0.010-1.155 0.025-1.335 0.020-0.32 0.015-0.325-0.115-0.34l-0.13-0.015 0.030 0.975c0.020 0.68 0.015 0.98-0.025 0.98-0.025 0-0.34-0.31-0.695-0.685-1.095-1.175-1.225-1.3-1.35-1.28z"></path>
<path d="M18.55 13.37c0 0.045 0.035 0.14 0.085 0.21 0.145 0.22 0.15 1.765 0.010 2.37-0.015 0.065 0.075 0.075 0.58 0.085 0.33 0.005 0.715-0.010 0.855-0.040 0.77-0.15 1.205-0.9 1.005-1.72-0.1-0.405-0.23-0.595-0.5-0.74-0.18-0.095-0.32-0.11-1.010-0.14-0.44-0.015-0.85-0.050-0.91-0.070-0.090-0.030-0.115-0.020-0.115 0.045zM20.29 13.7c0.115 0.065 0.25 0.2 0.315 0.32 0.105 0.175 0.12 0.27 0.12 0.655-0.005 0.685-0.2 0.99-0.74 1.15-0.285 0.085-0.72 0.1-0.835 0.025-0.090-0.055-0.13-0.845-0.075-1.685 0.040-0.65 0.005-0.62 0.635-0.59 0.28 0.010 0.435 0.045 0.58 0.125z"></path>
<path d="M25.525 13.355c-0.020 0.025 0.005 0.135 0.060 0.235 0.080 0.165 0.090 0.31 0.085 1.315l-0.005 1.135h0.335l0.010-1.095c0.005-0.6 0.010-1.165 0.010-1.255 0.005-0.14-0.025-0.18-0.195-0.275-0.23-0.13-0.255-0.135-0.3-0.060z"></path>
<path d="M6.675 13.66c-0.050 0.445-0.265 1.985-0.305 2.175-0.030 0.155-0.025 0.165 0.1 0.165 0.155 0 0.155 0.010 0.23-0.95 0.035-0.4 0.080-0.77 0.1-0.825 0.030-0.080 0.135 0.1 0.505 0.835 0.26 0.52 0.48 0.94 0.495 0.94s0.24-0.42 0.5-0.925c0.26-0.51 0.485-0.925 0.5-0.925 0.020 0 0.070 0.36 0.12 0.805 0.045 0.445 0.11 0.855 0.14 0.915 0.1 0.195 0.25 0.23 0.42 0.11 0.095-0.070 0.095-0.075-0.020-0.195-0.12-0.125-0.18-0.485-0.345-2.025-0.020-0.2-0.060-0.365-0.090-0.37-0.025 0-0.29 0.44-0.58 0.98-0.29 0.545-0.55 0.99-0.575 0.985-0.025 0-0.275-0.45-0.555-0.99-0.28-0.545-0.53-0.995-0.56-1.005-0.025-0.010-0.060 0.125-0.080 0.3z"></path>
<path d="M12.45 14.685v1.315h0.35v-0.625c0-0.825 0.060-0.83 0.425-0.060 0.15 0.315 0.305 0.595 0.345 0.63 0.045 0.040 0.205 0.055 0.44 0.045 0.38-0.015 0.48-0.085 0.205-0.145-0.29-0.060-0.485-0.215-0.755-0.615-0.145-0.215-0.255-0.42-0.245-0.45s0.1-0.070 0.205-0.090c0.44-0.090 0.68-0.345 0.68-0.72 0-0.22-0.12-0.425-0.315-0.53-0.070-0.035-0.345-0.060-0.72-0.065h-0.615v1.31zM13.62 13.675c0.1 0.090 0.13 0.17 0.13 0.325 0 0.115-0.025 0.25-0.055 0.31-0.075 0.135-0.425 0.29-0.68 0.29h-0.215v-1.050h0.345c0.29 0 0.36 0.015 0.475 0.125z"></path>
<path d="M26.65 13.375c0 0-0.010 0.59-0.015 1.315l-0.010 1.31h0.505c0.28 0 0.575 0.025 0.665 0.055 0.135 0.045 0.175 0.040 0.255-0.030 0.055-0.050 0.1-0.125 0.1-0.17 0-0.070-0.075-0.080-0.575-0.060l-0.575 0.015v-2.445l-0.175 0.005c-0.095 0.005-0.175 0.005-0.175 0.005z"></path>
<path d="M28.545 13.375c0 0-0.010 0.59-0.010 1.31l-0.010 1.305 0.575 0.020c0.315 0.010 0.615 0.040 0.66 0.060 0.055 0.025 0.115 0.005 0.19-0.070 0.185-0.185 0.11-0.22-0.505-0.225h-0.57l-0.005-1.195v-1.195l-0.16-0.005c-0.090-0.005-0.16-0.005-0.165-0.005z"></path>
<path d="M12.23 17.155c-0.095 0.075-0.13 0.15-0.13 0.27 0 0.175 0.080 0.26 0.395 0.435 0.195 0.105 0.21 0.3 0.035 0.415-0.11 0.075-0.14 0.075-0.315 0s-0.185-0.075-0.11 0c0.045 0.045 0.17 0.095 0.28 0.11 0.285 0.035 0.425-0.105 0.405-0.4-0.015-0.195-0.030-0.22-0.265-0.335-0.175-0.090-0.255-0.16-0.265-0.24-0.035-0.225 0.2-0.345 0.36-0.185 0.095 0.1 0.13 0.095 0.13-0.020 0-0.18-0.315-0.21-0.52-0.050z"></path>
<path d="M13.050 17.145c0 0.025 0.035 0.070 0.075 0.105 0.065 0.050 0.075 0.045 0.075-0.045 0-0.060-0.030-0.105-0.075-0.105-0.040 0-0.075 0.020-0.075 0.045z"></path>
<path d="M14.955 17.445c-0.315 0.040-0.425 0.15-0.385 0.38 0.065 0.325 0.060 0.58-0.005 0.63-0.19 0.16 0.025 0.41 0.345 0.405 0.17-0.005 0.24-0.035 0.33-0.135 0.22-0.255 0.095-0.475-0.27-0.475-0.155 0-0.22-0.020-0.22-0.070 0-0.075 0.105-0.13 0.25-0.13 0.16 0 0.265-0.15 0.235-0.335-0.015-0.090-0.005-0.175 0.020-0.19 0.055-0.035 0.060-0.13 0.010-0.12-0.025 0.005-0.16 0.025-0.31 0.040zM15.050 17.62c0.14 0.175-0.055 0.465-0.235 0.35-0.18-0.11-0.115-0.42 0.085-0.42 0.050 0 0.115 0.035 0.15 0.070zM15.12 18.415c0.215 0.155-0.090 0.46-0.34 0.345-0.2-0.090-0.18-0.295 0.035-0.355 0.22-0.065 0.205-0.065 0.305 0.010z"></path>
<path d="M13.86 17.495c-0.035 0.020-0.12 0.030-0.185 0.015-0.115-0.020-0.115-0.015-0.115 0.41 0 0.395 0.010 0.43 0.1 0.43 0.085 0 0.095-0.025 0.065-0.215-0.045-0.32 0.025-0.505 0.2-0.525 0.18-0.020 0.225 0.050 0.225 0.37 0 0.29 0.105 0.485 0.205 0.38 0.050-0.045 0.050-0.075 0.005-0.12-0.035-0.035-0.060-0.19-0.060-0.345 0-0.24-0.020-0.3-0.11-0.365-0.125-0.090-0.23-0.1-0.33-0.035z"></path>
<path d="M15.605 17.53c-0.080 0.060-0.1 0.095-0.060 0.135s0.075 0.030 0.12-0.035c0.045-0.065 0.1-0.080 0.17-0.060 0.22 0.070 0.17 0.33-0.060 0.33-0.19 0-0.345 0.16-0.305 0.315 0.035 0.15 0.245 0.23 0.375 0.15 0.045-0.030 0.16-0.045 0.255-0.035s0.145 0.005 0.115-0.010c-0.045-0.020-0.065-0.14-0.065-0.35 0-0.255-0.020-0.34-0.1-0.42-0.12-0.12-0.29-0.13-0.445-0.020zM16 18.030c0 0.23-0.22 0.355-0.35 0.195-0.050-0.065-0.050-0.095 0.025-0.175 0.11-0.12 0.325-0.135 0.325-0.020z"></path>
<path d="M16.39 17.485c-0.010 0.025-0.010 0.34 0 0.705 0.015 0.58 0.025 0.665 0.095 0.65 0.060-0.010 0.080-0.075 0.085-0.265 0.005-0.195 0.020-0.245 0.080-0.23 0.27 0.070 0.35 0.060 0.47-0.060 0.18-0.18 0.185-0.535 0.005-0.71-0.135-0.14-0.27-0.155-0.43-0.065-0.085 0.050-0.115 0.050-0.13 0-0.025-0.065-0.15-0.085-0.175-0.025zM16.95 17.6c0.13 0.070 0.175 0.355 0.090 0.535-0.095 0.2-0.335 0.2-0.43 0-0.075-0.155-0.040-0.395 0.075-0.51 0.085-0.090 0.14-0.095 0.265-0.025z"></path>
<path d="M18.47 17.56c0.015 0.065 0.030 0.265 0.030 0.45 0 0.27 0.015 0.34 0.075 0.34s0.075-0.065 0.075-0.29c0-0.295 0.090-0.46 0.24-0.46 0.035 0 0.060-0.020 0.060-0.040 0-0.085-0.065-0.105-0.16-0.055-0.070 0.040-0.115 0.040-0.155 0-0.1-0.1-0.2-0.065-0.165 0.055z"></path>
<path d="M19.27 17.51c-0.18 0.085-0.28 0.43-0.19 0.665 0.040 0.1 0.28 0.225 0.435 0.225 0.14 0 0.38-0.17 0.325-0.23-0.025-0.020-0.080 0-0.13 0.045-0.17 0.155-0.415 0.080-0.485-0.155-0.030-0.105-0.020-0.11 0.29-0.11 0.175 0 0.33-0.015 0.35-0.030 0.050-0.050-0.070-0.32-0.18-0.395-0.125-0.085-0.265-0.090-0.415-0.015zM19.65 17.65c0.080 0.145 0.020 0.2-0.205 0.2-0.155 0-0.195-0.020-0.195-0.090 0-0.21 0.305-0.29 0.4-0.11z"></path>
<path d="M13.1 17.925c0 0.345 0.015 0.425 0.075 0.425s0.075-0.080 0.075-0.425c0-0.345-0.015-0.425-0.075-0.425s-0.075 0.080-0.075 0.425z"></path>
<path d="M17.505 17.63c-0.18 0.23-0.11 0.605 0.13 0.715 0.375 0.17 0.715-0.105 0.65-0.525-0.045-0.27-0.11-0.32-0.41-0.32-0.23 0-0.285 0.020-0.37 0.13zM18.050 17.68c0.090 0.085 0.090 0.435 0 0.545-0.085 0.1-0.32 0.095-0.405-0.010-0.090-0.105-0.090-0.475 0-0.585 0.080-0.095 0.28-0.075 0.405 0.050z"></path>
</svg>
